SeanSlab_1.ufo
<glyph name="exclam" format="1">
  <advance width="323"/>
  <unicode hex="0021"/>
  <outline>
    <contour>
      <point x="223" y="229" type="line"/>
      <point x="242" y="722" type="line"/>
      <point x="80" y="722" type="line"/>
      <point x="99" y="229" type="line"/>
    </contour>
    <contour>
      <point x="254" y="65" type="curve"/>
      <point x="254" y="116"/>
      <point x="214" y="140"/>
      <point x="160" y="140" type="curve"/>
      <point x="106" y="140"/>
      <point x="69" y="113"/>
      <point x="69" y="65" type="curve"/>
      <point x="254" y="65"/>
      <point x="69" y="65"/>
      <point x="254" y="65" type="curve"/>
      <point x="254" y="12"/>
      <point x="214" y="-10"/>
      <point x="159" y="-10" type="curve"/>
      <point x="105" y="-10"/>
      <point x="69" y="15"/>
      <point x="69" y="65" type="curve"/>
      <point x="254" y="65"/>
      <point x="69" y="65"/>
    </contour>
  </outline>
</glyph>
<glyph name="dollar" format="1">
  <advance width="733"/>
  <unicode hex="0024"/>
  <outline>
    <contour>
      <point x="186" y="91" type="curve"/>
      <point x="186" y="211"/>
      <point x="186" y="118"/>
      <point x="186" y="238" type="curve"/>
      <point x="65" y="238"/>
      <point x="186" y="238"/>
      <point x="65" y="238" type="curve"/>
      <point x="65" y="118"/>
      <point x="65" y="211"/>
      <point x="65" y="91" type="curve"/>
      <point x="186" y="91"/>
      <point x="65" y="91"/>
    </contour>
    <contour>
      <point x="516" y="636" type="curve"/>
      <point x="516" y="516"/>
      <point x="516" y="609"/>
      <point x="516" y="489" type="curve"/>
      <point x="637" y="489"/>
      <point x="516" y="489"/>
      <point x="637" y="489" type="curve"/>
      <point x="637" y="609"/>
      <point x="637" y="516"/>
      <point x="637" y="636" type="curve"/>
      <point x="516" y="636"/>
      <point x="637" y="636"/>
    </contour>
    <contour>
      <point x="423" y="-38" type="curve"/>
      <point x="423" y="-9"/>
      <point x="423" y="70"/>
      <point x="423" y="100" type="curve"/>
      <point x="264" y="100"/>
      <point x="423" y="100"/>
      <point x="264" y="100" type="curve"/>
      <point x="264" y="70"/>
      <point x="264" y="-9"/>
      <point x="264" y="-38" type="curve"/>
      <point x="423" y="-38"/>
      <point x="264" y="-38"/>
    </contour>
    <contour>
      <point x="437" y="629" type="curve"/>
      <point x="437" y="658"/>
      <point x="437" y="744"/>
      <point x="437" y="773" type="curve"/>
      <point x="279" y="773"/>
      <point x="437" y="773"/>
      <point x="279" y="773" type="curve"/>
      <point x="279" y="744"/>
      <point x="279" y="658"/>
      <point x="279" y="629" type="curve"/>
      <point x="437" y="629"/>
      <point x="279" y="629"/>
    </contour>
    <contour>
      <point x="65" y="91" type="curve"/>
      <point x="142" y="64"/>
      <point x="234" y="41"/>
      <point x="336" y="41" type="curve"/>
      <point x="525" y="41"/>
      <point x="690" y="76"/>
      <point x="690" y="223" type="curve"/>
      <point x="690" y="349"/>
      <point x="551" y="383"/>
      <point x="409" y="426" type="curve"/>
      <point x="319" y="452"/>
      <point x="225" y="463"/>
      <point x="225" y="518" type="curve"/>
      <point x="225" y="567"/>
      <point x="290" y="573"/>
      <point x="361" y="573" type="curve"/>
      <point x="436" y="573"/>
      <point x="490" y="563"/>
      <point x="558" y="538" type="curve"/>
      <point x="637" y="636"/>
      <point x="558" y="538"/>
      <point x="637" y="636" type="curve"/>
      <point x="544" y="670"/>
      <point x="471" y="688"/>
      <point x="369" y="688" type="curve"/>
      <point x="203" y="688"/>
      <point x="66" y="649"/>
      <point x="66" y="518" type="curve"/>
      <point x="66" y="398"/>
      <point x="179" y="361"/>
      <point x="315" y="321" type="curve"/>
      <point x="413" y="292"/>
      <point x="531" y="284"/>
      <point x="531" y="217" type="curve"/>
      <point x="531" y="154"/>
      <point x="443" y="157"/>
      <point x="351" y="157" type="curve"/>
      <point x="275" y="157"/>
      <point x="208" y="176"/>
      <point x="151" y="195" type="curve"/>
      <point x="65" y="90"/>
      <point x="151" y="195"/>
    </contour>
  </outline>
</glyph>
<glyph name="ampersand" format="1">
  <advance width="880"/>
  <unicode hex="0026"/>
  <outline>
    <contour>
      <point x="854" y="83" type="line"/>
      <point x="734" y="171"/>
      <point x="585" y="285"/>
      <point x="461" y="380" type="curve"/>
      <point x="393" y="432"/>
      <point x="302" y="460"/>
      <point x="302" y="547" type="curve"/>
      <point x="302" y="588"/>
      <point x="336" y="611"/>
      <point x="380" y="611" type="curve"/>
      <point x="435" y="611"/>
      <point x="481" y="597"/>
      <point x="481" y="549" type="curve"/>
      <point x="480" y="469"/>
      <point x="401" y="453"/>
      <point x="322" y="422" type="curve"/>
      <point x="191" y="369"/>
      <point x="60" y="337"/>
      <point x="60" y="202" type="curve"/>
      <point x="60" y="51"/>
      <point x="204" y="-5"/>
      <point x="374" y="-5" type="curve"/>
      <point x="597" y="-5"/>
      <point x="754" y="107"/>
      <point x="845" y="311" type="curve"/>
      <point x="708" y="341"/>
      <point x="845" y="311"/>
      <point x="708" y="341" type="curve"/>
      <point x="642" y="197"/>
      <point x="538" y="111"/>
      <point x="381" y="111" type="curve"/>
      <point x="295" y="111"/>
      <point x="219" y="127"/>
      <point x="219" y="202" type="curve"/>
      <point x="219" y="286"/>
      <point x="305" y="296"/>
      <point x="387" y="329" type="curve"/>
      <point x="514" y="381"/>
      <point x="638" y="418"/>
      <point x="639" y="549" type="curve"/>
      <point x="639" y="675"/>
      <point x="525" y="727"/>
      <point x="388" y="727" type="curve"/>
      <point x="253" y="727"/>
      <point x="145" y="670"/>
      <point x="145" y="547" type="curve"/>
      <point x="145" y="429"/>
      <point x="256" y="380"/>
      <point x="353" y="310" type="curve"/>
      <point x="477" y="212"/>
      <point x="652" y="80"/>
      <point x="772" y="-13" type="curve"/>
    </contour>
  </outline>
</glyph>
<glyph name="parenleft" format="1">
  <advance width="476"/>
  <unicode hex="0028"/>
  <outline>
    <contour>
      <point x="474" y="-202" type="curve"/>
      <point x="294" y="-59"/>
      <point x="201" y="95"/>
      <point x="201" y="326" type="curve"/>
      <point x="201" y="558"/>
      <point x="294" y="711"/>
      <point x="473" y="858" type="curve"/>
      <point x="379" y="933"/>
      <point x="473" y="858"/>
      <point x="379" y="933" type="curve"/>
      <point x="167" y="765"/>
      <point x="45" y="597"/>
      <point x="45" y="326" type="curve"/>
      <point x="45" y="54"/>
      <point x="167" y="-114"/>
      <point x="380" y="-284" type="curve"/>
      <point x="474" y="-202"/>
      <point x="380" y="-284"/>
    </contour>
  </outline>
</glyph>
<glyph name="parenright" format="1">
  <advance width="483"/>
  <unicode hex="0029"/>
  <outline>
    <contour>
      <point x="88" y="-297" type="curve"/>
      <point x="305" y="-119"/>
      <point x="439" y="48"/>
      <point x="439" y="329" type="curve"/>
      <point x="439" y="603"/>
      <point x="312" y="770"/>
      <point x="93" y="936" type="curve"/>
      <point x="-1" y="854"/>
      <point x="93" y="936"/>
      <point x="-1" y="854" type="curve"/>
      <point x="183" y="709"/>
      <point x="283" y="558"/>
      <point x="283" y="324" type="curve"/>
      <point x="283" y="86"/>
      <point x="174" y="-66"/>
      <point x="-6" y="-222" type="curve"/>
      <point x="88" y="-297"/>
      <point x="-6" y="-222"/>
    </contour>
  </outline>
</glyph>
<glyph name="asterisk" format="1">
  <advance width="585"/>
  <unicode hex="002A"/>
  <outline>
    <contour>
      <point x="347" y="603" type="line"/>
      <point x="354" y="837" type="line"/>
      <point x="230" y="837" type="line"/>
      <point x="237" y="603" type="line"/>
    </contour>
    <contour>
      <point x="311" y="551" type="line"/>
      <point x="534" y="625" type="line"/>
      <point x="491" y="741" type="line"/>
      <point x="273" y="655" type="line"/>
    </contour>
    <contour>
      <point x="250" y="568" type="line"/>
      <point x="396" y="384" type="line"/>
      <point x="490" y="464" type="line"/>
      <point x="334" y="638" type="line"/>
    </contour>
    <contour>
      <point x="250" y="638" type="line"/>
      <point x="94" y="464" type="line"/>
      <point x="189" y="384" type="line"/>
      <point x="334" y="568" type="line"/>
    </contour>
    <contour>
      <point x="310" y="655" type="line"/>
      <point x="93" y="741" type="line"/>
      <point x="51" y="626" type="line"/>
      <point x="273" y="552" type="line"/>
    </contour>
  </outline>
</glyph>
<glyph name="two" format="1">
  <advance width="778"/>
  <unicode hex="0032"/>
  <outline>
    <contour>
      <point x="712" y="116" type="curve"/>
      <point x="712" y="234"/>
      <point x="712" y="115"/>
      <point x="712" y="232" type="curve"/>
      <point x="590" y="232"/>
      <point x="712" y="232"/>
      <point x="590" y="232" type="curve"/>
      <point x="590" y="115"/>
      <point x="590" y="234"/>
      <point x="590" y="116" type="curve"/>
      <point x="712" y="116"/>
      <point x="590" y="116"/>
    </contour>
    <contour>
      <point x="54" y="0" type="curve"/>
      <point x="317" y="0"/>
      <point x="527" y="0"/>
      <point x="712" y="0" type="curve"/>
      <point x="712" y="116"/>
      <point x="712" y="0"/>
      <point x="712" y="116" type="curve"/>
      <point x="501" y="116"/>
      <point x="265" y="116"/>
      <point x="54" y="116" type="curve"/>
      <point x="54" y="0"/>
      <point x="54" y="116"/>
    </contour>
    <contour>
      <point x="165" y="504" type="curve"/>
      <point x="233" y="572"/>
      <point x="286" y="606"/>
      <point x="367" y="606" type="curve"/>
      <point x="451" y="606"/>
      <point x="515" y="580"/>
      <point x="515" y="501" type="curve"/>
      <point x="515" y="404"/>
      <point x="424" y="353"/>
      <point x="327" y="292" type="curve"/>
      <point x="236" y="233"/>
      <point x="146" y="176"/>
      <point x="54" y="116" type="curve"/>
      <point x="54" y="0"/>
      <point x="54" y="116"/>
      <point x="54" y="0" type="curve"/>
      <point x="234" y="66"/>
      <point x="327" y="134"/>
      <point x="428" y="200" type="curve"/>
      <point x="561" y="283"/>
      <point x="661" y="352"/>
      <point x="661" y="507" type="curve"/>
      <point x="661" y="665"/>
      <point x="543" y="727"/>
      <point x="373" y="727" type="curve"/>
      <point x="239" y="727"/>
      <point x="135" y="682"/>
      <point x="61" y="576" type="curve"/>
      <point x="165" y="504"/>
      <point x="61" y="576"/>
    </contour>
  </outline>
</glyph>
<glyph name="three" format="1">
  <advance width="695"/>
  <unicode hex="0033"/>
  <outline>
    <contour>
      <point x="47" y="54" type="curve"/>
      <point x="101" y="21"/>
      <point x="192" y="-5"/>
      <point x="292" y="-5" type="curve"/>
      <point x="486" y="-5"/>
      <point x="635" y="42"/>
      <point x="635" y="225" type="curve"/>
      <point x="635" y="378"/>
      <point x="446" y="421"/>
      <point x="199" y="421" type="curve"/>
      <point x="199" y="322"/>
      <point x="199" y="421"/>
      <point x="199" y="322" type="curve"/>
      <point x="338" y="322"/>
      <point x="484" y="306"/>
      <point x="484" y="220" type="curve"/>
      <point x="484" y="123"/>
      <point x="388" y="116"/>
      <point x="297" y="116" type="curve"/>
      <point x="250" y="116"/>
      <point x="179" y="129"/>
      <point x="115" y="155" type="curve"/>
      <point x="47" y="54"/>
      <point x="115" y="155"/>
    </contour>
    <contour>
      <point x="125" y="552" type="curve"/>
      <point x="162" y="579"/>
      <point x="229" y="606"/>
      <point x="289" y="606" type="curve"/>
      <point x="374" y="606"/>
      <point x="443" y="598"/>
      <point x="443" y="521" type="curve"/>
      <point x="443" y="444"/>
      <point x="321" y="431"/>
      <point x="199" y="431" type="curve"/>
      <point x="199" y="332"/>
      <point x="199" y="431"/>
      <point x="199" y="332" type="curve"/>
      <point x="413" y="332"/>
      <point x="594" y="376"/>
      <point x="594" y="527" type="curve"/>
      <point x="594" y="678"/>
      <point x="466" y="727"/>
      <point x="301" y="727" type="curve"/>
      <point x="194" y="727"/>
      <point x="94" y="689"/>
      <point x="46" y="642" type="curve"/>
      <point x="125" y="552"/>
      <point x="46" y="642"/>
    </contour>
  </outline>
</glyph>
<glyph name="four" format="1">
  <advance width="763"/>
  <unicode hex="0034"/>
  <outline>
    <contour>
      <point x="476" y="116" type="line"/>
      <point x="325" y="116" type="line"/>
      <point x="325" y="0" type="line"/>
      <point x="476" y="0" type="line"/>
    </contour>
    <contour>
      <point x="476" y="0" type="line"/>
      <point x="627" y="0" type="line"/>
      <point x="627" y="116" type="line"/>
      <point x="476" y="116" type="line"/>
    </contour>
    <contour>
      <point x="92" y="235" type="line"/>
      <point x="521" y="647" type="line"/>
      <point x="398" y="695" type="line"/>
      <point x="37" y="352" type="line"/>
    </contour>
    <contour>
      <point x="722" y="352" type="line"/>
      <point x="37" y="352" type="line"/>
      <point x="37" y="223" type="line"/>
      <point x="722" y="223" type="line"/>
    </contour>
    <contour>
      <point x="556" y="50" type="line"/>
      <point x="556" y="695" type="line"/>
      <point x="398" y="695" type="line"/>
      <point x="398" y="50" type="line"/>
    </contour>
  </outline>
</glyph>
<glyph name="colon" format="1">
  <advance width="339"/>
  <unicode hex="003A"/>
  <outline>
    <contour>
      <point x="262" y="375" type="curve"/>
      <point x="262" y="427"/>
      <point x="222" y="451"/>
      <point x="168" y="451" type="curve"/>
      <point x="114" y="451"/>
      <point x="77" y="424"/>
      <point x="77" y="375" type="curve"/>
      <point x="262" y="375"/>
      <point x="77" y="375"/>
      <point x="262" y="375" type="curve"/>
      <point x="262" y="323"/>
      <point x="222" y="301"/>
      <point x="167" y="301" type="curve"/>
      <point x="114" y="301"/>
      <point x="77" y="326"/>
      <point x="77" y="375" type="curve"/>
      <point x="262" y="375"/>
      <point x="77" y="375"/>
    </contour>
    <contour>
      <point x="261" y="65" type="curve"/>
      <point x="261" y="117"/>
      <point x="221" y="141"/>
      <point x="167" y="141" type="curve"/>
      <point x="114" y="141"/>
      <point x="76" y="114"/>
      <point x="76" y="65" type="curve"/>
      <point x="261" y="65"/>
      <point x="76" y="65"/>
      <point x="261" y="65" type="curve"/>
      <point x="261" y="13"/>
      <point x="221" y="-10"/>
      <point x="167" y="-10" type="curve"/>
      <point x="113" y="-10"/>
      <point x="76" y="15"/>
      <point x="76" y="65" type="curve"/>
      <point x="261" y="65"/>
      <point x="76" y="65"/>
    </contour>
  </outline>
</glyph>
<glyph name="greater" format="1">
  <advance width="886"/>
  <unicode hex="003E"/>
  <outline>
    <contour>
      <point x="85" y="-28" type="curve"/>
      <point x="338" y="62"/>
      <point x="591" y="152"/>
      <point x="843" y="242" type="curve"/>
      <point x="843" y="370"/>
      <point x="843" y="242"/>
      <point x="843" y="370" type="curve"/>
      <point x="591" y="280"/>
      <point x="338" y="190"/>
      <point x="85" y="100" type="curve"/>
      <point x="85" y="-28"/>
      <point x="85" y="100"/>
    </contour>
    <contour>
      <point x="73" y="506" type="curve"/>
      <point x="329" y="418"/>
      <point x="587" y="330"/>
      <point x="843" y="242" type="curve"/>
      <point x="843" y="370"/>
      <point x="843" y="242"/>
      <point x="843" y="370" type="curve"/>
      <point x="587" y="458"/>
      <point x="329" y="546"/>
      <point x="73" y="634" type="curve"/>
      <point x="73" y="506"/>
      <point x="73" y="634"/>
    </contour>
  </outline>
</glyph>
<glyph name="B" format="1">
  <advance width="868"/>
  <unicode hex="0042"/>
  <outline>
    <contour>
      <point x="238" y="722" type="curve"/>
      <point x="184" y="722"/>
      <point x="131" y="722"/>
      <point x="77" y="722" type="curve"/>
      <point x="77" y="606"/>
      <point x="77" y="722"/>
      <point x="77" y="606" type="curve"/>
      <point x="238" y="606"/>
      <point x="77" y="606"/>
      <point x="238" y="606" type="curve"/>
      <point x="238" y="722"/>
      <point x="238" y="606"/>
    </contour>
    <contour>
      <point x="237" y="116" type="curve"/>
      <point x="76" y="116"/>
      <point x="237" y="116"/>
      <point x="76" y="116" type="curve"/>
      <point x="76" y="0"/>
      <point x="76" y="116"/>
      <point x="76" y="0" type="curve"/>
      <point x="130" y="0"/>
      <point x="184" y="0"/>
      <point x="237" y="0" type="curve"/>
      <point x="237" y="116"/>
      <point x="237" y="0"/>
    </contour>
    <contour>
      <point x="225" y="606" type="curve"/>
      <point x="314" y="606"/>
      <point x="402" y="606"/>
      <point x="491" y="606" type="curve"/>
      <point x="550" y="606"/>
      <point x="597" y="585"/>
      <point x="597" y="529" type="curve"/>
      <point x="597" y="473"/>
      <point x="534" y="462"/>
      <point x="472" y="462" type="curve"/>
      <point x="389" y="462"/>
      <point x="308" y="462"/>
      <point x="225" y="462" type="curve"/>
      <point x="225" y="352"/>
      <point x="225" y="455"/>
      <point x="225" y="345" type="curve"/>
      <point x="281" y="345"/>
      <point x="338" y="345"/>
      <point x="395" y="345" type="curve"/>
      <point x="528" y="345"/>
      <point x="756" y="370"/>
      <point x="756" y="528" type="curve"/>
      <point x="756" y="666"/>
      <point x="643" y="722"/>
      <point x="492" y="722" type="curve"/>
      <point x="402" y="722"/>
      <point x="314" y="722"/>
      <point x="225" y="722" type="curve"/>
      <point x="225" y="613"/>
      <point x="225" y="715"/>
    </contour>
    <contour>
      <point x="322" y="0" type="curve"/>
      <point x="322" y="241"/>
      <point x="322" y="481"/>
      <point x="322" y="722" type="curve"/>
      <point x="156" y="722"/>
      <point x="322" y="722"/>
      <point x="156" y="722" type="curve"/>
      <point x="156" y="481"/>
      <point x="156" y="241"/>
      <point x="156" y="0" type="curve"/>
      <point x="322" y="0"/>
      <point x="156" y="0"/>
    </contour>
    <contour>
      <point x="225" y="345" type="curve"/>
      <point x="308" y="345"/>
      <point x="389" y="345"/>
      <point x="472" y="345" type="curve"/>
      <point x="572" y="345"/>
      <point x="655" y="318"/>
      <point x="655" y="226" type="curve"/>
      <point x="655" y="142"/>
      <point x="584" y="116"/>
      <point x="489" y="116" type="curve"/>
      <point x="400" y="116"/>
      <point x="313" y="116"/>
      <point x="225" y="116" type="curve"/>
      <point x="225" y="7"/>
      <point x="225" y="110"/>
      <point x="225" y="0" type="curve"/>
      <point x="313" y="0"/>
      <point x="401" y="0"/>
      <point x="490" y="0" type="curve"/>
      <point x="677" y="0"/>
      <point x="815" y="60"/>
      <point x="815" y="226" type="curve"/>
      <point x="815" y="424"/>
      <point x="564" y="462"/>
      <point x="395" y="462" type="curve"/>
      <point x="338" y="462"/>
      <point x="281" y="462"/>
      <point x="225" y="462" type="curve"/>
      <point x="225" y="352"/>
      <point x="225" y="455"/>
    </contour>
  </outline>
</glyph>
<glyph name="F" format="1">
  <advance width="762"/>
  <unicode hex="0046"/>
  <outline>
    <contour>
      <point x="237" y="0" type="curve"/>
      <point x="291" y="0"/>
      <point x="237" y="0"/>
      <point x="398" y="0" type="curve"/>
      <point x="398" y="116"/>
      <point x="398" y="0"/>
      <point x="398" y="116" type="curve"/>
      <point x="237" y="116"/>
      <point x="398" y="116"/>
      <point x="237" y="116" type="curve"/>
      <point x="237" y="0"/>
      <point x="237" y="116"/>
    </contour>
    <contour>
      <point x="237" y="722" type="curve"/>
      <point x="184" y="722"/>
      <point x="130" y="722"/>
      <point x="76" y="722" type="curve"/>
      <point x="76" y="606"/>
      <point x="76" y="722"/>
      <point x="76" y="606" type="curve"/>
      <point x="237" y="606"/>
      <point x="76" y="606"/>
      <point x="237" y="606" type="curve"/>
      <point x="237" y="722"/>
      <point x="237" y="606"/>
    </contour>
    <contour>
      <point x="237" y="116" type="curve"/>
      <point x="76" y="116"/>
      <point x="237" y="116"/>
      <point x="76" y="116" type="curve"/>
      <point x="76" y="0"/>
      <point x="76" y="116"/>
      <point x="76" y="0" type="curve"/>
      <point x="130" y="0"/>
      <point x="184" y="0"/>
      <point x="237" y="0" type="curve"/>
      <point x="237" y="116"/>
      <point x="237" y="0"/>
    </contour>
    <contour>
      <point x="612" y="664" type="curve"/>
      <point x="612" y="544"/>
      <point x="612" y="664"/>
      <point x="612" y="544" type="curve"/>
      <point x="734" y="544"/>
      <point x="612" y="544"/>
      <point x="734" y="544" type="curve"/>
      <point x="734" y="664"/>
      <point x="734" y="544"/>
      <point x="734" y="664" type="curve"/>
      <point x="612" y="664"/>
      <point x="734" y="664"/>
    </contour>
    <contour>
      <point x="243" y="314" type="curve"/>
      <point x="376" y="314"/>
      <point x="510" y="314"/>
      <point x="643" y="314" type="curve"/>
      <point x="643" y="431"/>
      <point x="643" y="314"/>
      <point x="643" y="431" type="curve"/>
      <point x="510" y="431"/>
      <point x="376" y="431"/>
      <point x="243" y="431" type="curve"/>
      <point x="243" y="314"/>
      <point x="243" y="431"/>
    </contour>
    <contour>
      <point x="317" y="0" type="curve"/>
      <point x="317" y="722" type="line"/>
      <point x="158" y="722"/>
      <point x="317" y="722"/>
      <point x="158" y="722" type="curve"/>
      <point x="158" y="481"/>
      <point x="158" y="241"/>
      <point x="158" y="0" type="curve"/>
      <point x="317" y="0"/>
      <point x="158" y="0"/>
    </contour>
    <contour>
      <point x="223" y="606" type="curve"/>
      <point x="394" y="606"/>
      <point x="563" y="606"/>
      <point x="734" y="606" type="curve"/>
      <point x="734" y="722"/>
      <point x="734" y="606"/>
      <point x="734" y="722" type="curve"/>
      <point x="563" y="722"/>
      <point x="394" y="722"/>
      <point x="223" y="722" type="curve"/>
      <point x="223" y="606"/>
      <point x="223" y="722"/>
    </contour>
  </outline>
</glyph>
<glyph name="G" format="1">
  <advance width="1002"/>
  <unicode hex="0047"/>
  <outline>
    <contour>
      <point x="532" y="780" type="move" name="top"/>
    </contour>
    <contour>
      <point x="596" y="14" type="move" name="bottom"/>
    </contour>
    <contour>
      <point x="787" y="646" type="curve"/>
      <point x="787" y="524"/>
      <point x="787" y="610"/>
      <point x="787" y="488" type="curve"/>
      <point x="908" y="488"/>
      <point x="787" y="488"/>
      <point x="908" y="488" type="curve"/>
      <point x="908" y="610"/>
      <point x="908" y="524"/>
      <point x="908" y="646" type="curve"/>
      <point x="787" y="646"/>
      <point x="908" y="646"/>
    </contour>
    <contour>
      <point x="887" y="374" type="curve"/>
      <point x="796" y="374"/>
      <point x="704" y="374"/>
      <point x="613" y="374" type="curve"/>
      <point x="613" y="257"/>
      <point x="613" y="374"/>
      <point x="613" y="257" type="curve"/>
      <point x="704" y="257"/>
      <point x="796" y="257"/>
      <point x="887" y="257" type="curve"/>
      <point x="887" y="374"/>
      <point x="887" y="257"/>
    </contour>
    <contour>
      <point x="930" y="79" type="curve"/>
      <point x="930" y="177"/>
      <point x="930" y="275"/>
      <point x="930" y="374" type="curve"/>
      <point x="786" y="374"/>
      <point x="930" y="374"/>
      <point x="786" y="374" type="curve"/>
      <point x="786" y="275"/>
      <point x="786" y="177"/>
      <point x="786" y="79" type="curve"/>
      <point x="930" y="79"/>
      <point x="786" y="79"/>
    </contour>
    <contour>
      <point x="908" y="646" type="curve"/>
      <point x="781" y="704"/>
      <point x="671" y="727"/>
      <point x="532" y="727" type="curve"/>
      <point x="255" y="727"/>
      <point x="58" y="617"/>
      <point x="58" y="359" type="curve"/>
      <point x="58" y="99"/>
      <point x="263" y="-5"/>
      <point x="546" y="-5" type="curve"/>
      <point x="695" y="-5"/>
      <point x="791" y="23"/>
      <point x="930" y="79" type="curve"/>
      <point x="850" y="166"/>
      <point x="930" y="79"/>
      <point x="850" y="166" type="curve"/>
      <point x="743" y="123"/>
      <point x="662" y="116"/>
      <point x="546" y="116" type="curve"/>
      <point x="353" y="116"/>
      <point x="217" y="191"/>
      <point x="217" y="371" type="curve"/>
      <point x="217" y="539"/>
      <point x="349" y="606"/>
      <point x="532" y="606" type="curve"/>
      <point x="642" y="606"/>
      <point x="728" y="592"/>
      <point x="829" y="547" type="curve"/>
      <point x="908" y="646"/>
      <point x="829" y="547"/>
    </contour>
  </outline>
</glyph>
<glyph name="J" format="1">
  <advance width="575"/>
  <unicode hex="004A"/>
  <outline>
    <contour>
      <point x="387" y="722" type="curve"/>
      <point x="325" y="722"/>
      <point x="289" y="722"/>
      <point x="226" y="722" type="curve"/>
      <point x="226" y="606"/>
      <point x="226" y="722"/>
      <point x="226" y="606" type="curve"/>
      <point x="414" y="606"/>
      <point x="199" y="606"/>
      <point x="387" y="606" type="curve"/>
      <point x="387" y="722"/>
      <point x="387" y="606"/>
    </contour>
    <contour>
      <point x="387" y="606" type="curve"/>
      <point x="575" y="606"/>
      <point x="360" y="606"/>
      <point x="548" y="606" type="curve"/>
      <point x="548" y="722"/>
      <point x="548" y="606"/>
      <point x="548" y="722" type="curve"/>
      <point x="486" y="722"/>
      <point x="450" y="722"/>
      <point x="387" y="722" type="curve"/>
      <point x="387" y="606"/>
      <point x="387" y="722"/>
    </contour>
    <contour>
      <point x="-5" y="45" type="curve"/>
      <point x="37" y="22"/>
      <point x="98" y="-5"/>
      <point x="171" y="-5" type="curve"/>
      <point x="349" y="-5"/>
      <point x="465" y="73"/>
      <point x="465" y="247" type="curve"/>
      <point x="465" y="404"/>
      <point x="465" y="565"/>
      <point x="465" y="722" type="curve"/>
      <point x="307" y="722"/>
      <point x="465" y="722"/>
      <point x="307" y="722" type="curve"/>
      <point x="307" y="565"/>
      <point x="307" y="404"/>
      <point x="307" y="247" type="curve"/>
      <point x="307" y="161"/>
      <point x="257" y="111"/>
      <point x="171" y="111" type="curve"/>
      <point x="130" y="111"/>
      <point x="102" y="122"/>
      <point x="67" y="138" type="curve"/>
      <point x="-5" y="45"/>
      <point x="67" y="138"/>
    </contour>
  </outline>
</glyph>
<glyph name="L" format="1">
  <advance width="752"/>
  <unicode hex="004C"/>
  <outline>
    <contour>
      <point x="208" y="780" type="move" name="top"/>
    </contour>
    <contour>
      <point x="433" y="7" type="move" name="bottom"/>
    </contour>
    <contour>
      <point x="732" y="58" type="curve"/>
      <point x="732" y="178"/>
      <point x="732" y="58"/>
      <point x="732" y="178" type="curve"/>
      <point x="611" y="178"/>
      <point x="732" y="178"/>
      <point x="611" y="178" type="curve"/>
      <point x="611" y="58"/>
      <point x="611" y="178"/>
      <point x="611" y="58" type="curve"/>
      <point x="732" y="58"/>
      <point x="611" y="58"/>
    </contour>
    <contour>
      <point x="208" y="116" type="curve"/>
      <point x="19" y="116"/>
      <point x="235" y="116"/>
      <point x="46" y="116" type="curve"/>
      <point x="46" y="0"/>
      <point x="46" y="116"/>
      <point x="46" y="0" type="curve"/>
      <point x="108" y="0"/>
      <point x="144" y="0"/>
      <point x="208" y="0" type="curve"/>
      <point x="208" y="116"/>
      <point x="208" y="0"/>
    </contour>
    <contour>
      <point x="208" y="722" type="curve"/>
      <point x="144" y="722"/>
      <point x="108" y="722"/>
      <point x="46" y="722" type="curve"/>
      <point x="46" y="606"/>
      <point x="46" y="722"/>
      <point x="46" y="606" type="curve"/>
      <point x="235" y="606"/>
      <point x="19" y="606"/>
      <point x="208" y="606" type="curve"/>
      <point x="208" y="722"/>
      <point x="208" y="606"/>
    </contour>
    <contour>
      <point x="208" y="606" type="curve"/>
      <point x="396" y="606"/>
      <point x="181" y="606"/>
      <point x="369" y="606" type="curve"/>
      <point x="369" y="722"/>
      <point x="369" y="606"/>
      <point x="369" y="722" type="curve"/>
      <point x="306" y="722"/>
      <point x="270" y="722"/>
      <point x="208" y="722" type="curve"/>
      <point x="208" y="606"/>
      <point x="208" y="722"/>
    </contour>
    <contour>
      <point x="288" y="0" type="curve"/>
      <point x="288" y="241"/>
      <point x="288" y="481"/>
      <point x="288" y="722" type="curve"/>
      <point x="129" y="722"/>
      <point x="288" y="722"/>
      <point x="129" y="722" type="curve"/>
      <point x="129" y="481"/>
      <point x="129" y="241"/>
      <point x="129" y="0" type="curve"/>
      <point x="288" y="0"/>
      <point x="129" y="0"/>
    </contour>
    <contour>
      <point x="208" y="0" type="curve"/>
      <point x="383" y="0"/>
      <point x="557" y="0"/>
      <point x="732" y="0" type="curve"/>
      <point x="732" y="116"/>
      <point x="732" y="0"/>
      <point x="732" y="116" type="curve"/>
      <point x="557" y="116"/>
      <point x="383" y="116"/>
      <point x="208" y="116" type="curve"/>
      <point x="208" y="0"/>
      <point x="208" y="116"/>
    </contour>
  </outline>
</glyph>
<glyph name="O" format="1">
  <advance width="976"/>
  <unicode hex="004F"/>
  <outline>
    <contour>
      <point x="494" y="780" type="move" name="top"/>
    </contour>
    <contour>
      <point x="217" y="360" type="curve"/>
      <point x="217" y="516"/>
      <point x="318" y="604"/>
      <point x="481" y="604" type="curve"/>
      <point x="649" y="604"/>
      <point x="760" y="521"/>
      <point x="760" y="363" type="curve"/>
      <point x="760" y="207"/>
      <point x="657" y="119"/>
      <point x="493" y="119" type="curve"/>
      <point x="324" y="119"/>
      <point x="217" y="202"/>
      <point x="217" y="360" type="curve"/>
      <point x="58" y="360"/>
      <point x="217" y="360"/>
      <point x="58" y="360" type="curve"/>
      <point x="58" y="120"/>
      <point x="232" y="-5"/>
      <point x="485" y="-5" type="curve"/>
      <point x="742" y="-5"/>
      <point x="918" y="121"/>
      <point x="918" y="363" type="curve"/>
      <point x="918" y="601"/>
      <point x="746" y="727"/>
      <point x="494" y="727" type="curve"/>
      <point x="236" y="727"/>
      <point x="58" y="602"/>
      <point x="58" y="360" type="curve"/>
      <point x="217" y="360"/>
      <point x="58" y="360"/>
    </contour>
  </outline>
</glyph>
<glyph name="Y" format="1">
  <advance width="766"/>
  <unicode hex="0059"/>
  <outline>
    <contour>
      <point x="386" y="780" type="move" name="top"/>
    </contour>
    <contour>
      <point x="381" y="116" type="curve"/>
      <point x="220" y="116"/>
      <point x="381" y="116"/>
      <point x="220" y="116" type="curve"/>
      <point x="220" y="0"/>
      <point x="220" y="116"/>
      <point x="220" y="0" type="curve"/>
      <point x="274" y="0"/>
      <point x="327" y="0"/>
      <point x="381" y="0" type="curve"/>
      <point x="381" y="116"/>
      <point x="381" y="0"/>
    </contour>
    <contour>
      <point x="381" y="0" type="curve"/>
      <point x="435" y="0"/>
      <point x="488" y="0"/>
      <point x="542" y="0" type="curve"/>
      <point x="542" y="116"/>
      <point x="542" y="0"/>
      <point x="542" y="116" type="curve"/>
      <point x="381" y="116"/>
      <point x="542" y="116"/>
      <point x="381" y="116" type="curve"/>
      <point x="381" y="0"/>
      <point x="381" y="116"/>
    </contour>
    <contour>
      <point x="616" y="722" type="curve"/>
      <point x="563" y="722"/>
      <point x="510" y="722"/>
      <point x="456" y="722" type="curve"/>
      <point x="456" y="606"/>
      <point x="456" y="722"/>
      <point x="456" y="606" type="curve"/>
      <point x="616" y="606"/>
      <point x="456" y="606"/>
      <point x="616" y="606" type="curve"/>
      <point x="616" y="722"/>
      <point x="616" y="606"/>
    </contour>
    <contour>
      <point x="157" y="722" type="curve"/>
      <point x="111" y="722"/>
      <point x="64" y="722"/>
      <point x="18" y="722" type="curve"/>
      <point x="18" y="606"/>
      <point x="18" y="722"/>
      <point x="18" y="606" type="curve"/>
      <point x="157" y="606"/>
      <point x="18" y="606"/>
      <point x="157" y="606" type="curve"/>
      <point x="157" y="722"/>
      <point x="157" y="606"/>
    </contour>
    <contour>
      <point x="159" y="606" type="curve"/>
      <point x="320" y="606"/>
      <point x="159" y="606"/>
      <point x="320" y="606" type="curve"/>
      <point x="320" y="722"/>
      <point x="320" y="606"/>
      <point x="320" y="722" type="curve"/>
      <point x="266" y="722"/>
      <point x="213" y="722"/>
      <point x="159" y="722" type="curve"/>
      <point x="159" y="606"/>
      <point x="159" y="722"/>
    </contour>
    <contour>
      <point x="618" y="606" type="curve"/>
      <point x="759" y="606"/>
      <point x="618" y="606"/>
      <point x="759" y="606" type="curve"/>
      <point x="759" y="722"/>
      <point x="759" y="606"/>
      <point x="759" y="722" type="curve"/>
      <point x="712" y="722"/>
      <point x="665" y="722"/>
      <point x="618" y="722" type="curve"/>
      <point x="618" y="606"/>
      <point x="618" y="722"/>
    </contour>
    <contour>
      <point x="38" y="684" type="curve"/>
      <point x="126" y="569"/>
      <point x="213" y="453"/>
      <point x="300" y="337" type="curve"/>
      <point x="461" y="337"/>
      <point x="298" y="337"/>
      <point x="458" y="337" type="curve"/>
      <point x="362" y="466"/>
      <point x="266" y="594"/>
      <point x="169" y="722" type="curve"/>
      <point x="38" y="722"/>
      <point x="169" y="684"/>
    </contour>
    <contour>
      <point x="609" y="722" type="curve"/>
      <point x="507" y="594"/>
      <point x="405" y="465"/>
      <point x="303" y="337" type="curve"/>
      <point x="463" y="337"/>
      <point x="301" y="337"/>
      <point x="462" y="337" type="curve"/>
      <point x="555" y="454"/>
      <point x="647" y="571"/>
      <point x="741" y="687" type="curve"/>
      <point x="609" y="687"/>
      <point x="741" y="722"/>
    </contour>
    <contour>
      <point x="468" y="0" type="curve"/>
      <point x="468" y="115"/>
      <point x="468" y="230"/>
      <point x="468" y="345" type="curve"/>
      <point x="294" y="345"/>
      <point x="468" y="345"/>
      <point x="294" y="345" type="curve"/>
      <point x="294" y="230"/>
      <point x="294" y="115"/>
      <point x="294" y="0" type="curve"/>
      <point x="468" y="0"/>
      <point x="294" y="0"/>
    </contour>
  </outline>
</glyph>
<glyph name="Z" format="1">
  <advance width="867"/>
  <unicode hex="005A"/>
  <outline>
    <contour>
      <point x="429" y="780" type="move" name="top"/>
    </contour>
    <contour>
      <point x="81" y="664" type="curve"/>
      <point x="81" y="544"/>
      <point x="81" y="664"/>
      <point x="81" y="544" type="curve"/>
      <point x="202" y="544"/>
      <point x="81" y="544"/>
      <point x="202" y="544" type="curve"/>
      <point x="202" y="664"/>
      <point x="202" y="544"/>
      <point x="202" y="664" type="curve"/>
      <point x="81" y="664"/>
      <point x="202" y="664"/>
    </contour>
    <contour>
      <point x="810" y="58" type="curve"/>
      <point x="810" y="178"/>
      <point x="810" y="58"/>
      <point x="810" y="178" type="curve"/>
      <point x="688" y="178"/>
      <point x="810" y="178"/>
      <point x="688" y="178" type="curve"/>
      <point x="688" y="58"/>
      <point x="688" y="178"/>
      <point x="688" y="58" type="curve"/>
      <point x="810" y="58"/>
      <point x="688" y="58"/>
    </contour>
    <contour>
      <point x="81" y="606" type="curve"/>
      <point x="280" y="606"/>
      <point x="535" y="606"/>
      <point x="733" y="606" type="curve"/>
      <point x="721" y="619"/>
      <point x="699" y="613"/>
      <point x="687" y="626" type="curve"/>
      <point x="678" y="638"/>
      <point x="674" y="653"/>
      <point x="666" y="664" type="curve"/>
      <point x="657" y="655"/>
      <point x="640" y="664"/>
      <point x="632" y="655" type="curve"/>
      <point x="38" y="116" type="line"/>
      <point x="38" y="58"/>
      <point x="38" y="116"/>
      <point x="38" y="58" type="curve"/>
      <point x="38" y="0"/>
      <point x="38" y="58"/>
      <point x="38" y="0" type="curve"/>
      <point x="95" y="0"/>
      <point x="38" y="0"/>
      <point x="95" y="0" type="curve"/>
      <point x="807" y="0"/>
      <point x="572" y="0"/>
      <point x="810" y="0" type="curve"/>
      <point x="810" y="116"/>
      <point x="810" y="0"/>
      <point x="810" y="116" type="curve"/>
      <point x="572" y="116"/>
      <point x="332" y="116"/>
      <point x="95" y="116" type="curve"/>
      <point x="107" y="107"/>
      <point x="124" y="108"/>
      <point x="135" y="100" type="curve"/>
      <point x="145" y="87"/>
      <point x="151" y="70"/>
      <point x="161" y="58" type="curve"/>
      <point x="174" y="69"/>
      <point x="200" y="55"/>
      <point x="213" y="67" type="curve"/>
      <point x="805" y="606" type="line"/>
      <point x="805" y="664"/>
      <point x="805" y="606"/>
      <point x="805" y="664" type="curve"/>
      <point x="805" y="722"/>
      <point x="805" y="664"/>
      <point x="805" y="722" type="curve"/>
      <point x="715" y="722"/>
      <point x="805" y="722"/>
      <point x="715" y="722" type="curve"/>
      <point x="522" y="722"/>
      <point x="274" y="722"/>
      <point x="81" y="722" type="curve"/>
      <point x="81" y="606"/>
      <point x="81" y="722"/>
    </contour>
  </outline>
</glyph>
<glyph name="bracketright" format="1">
  <advance width="397"/>
  <unicode hex="005D"/>
  <outline>
    <contour>
      <point x="54" y="642" type="curve"/>
      <point x="117" y="642"/>
      <point x="180" y="642"/>
      <point x="245" y="642" type="curve"/>
      <point x="228" y="651"/>
      <point x="210" y="658"/>
      <point x="194" y="669" type="curve"/>
      <point x="179" y="680"/>
      <point x="171" y="698"/>
      <point x="156" y="710" type="curve"/>
      <point x="156" y="455"/>
      <point x="156" y="200"/>
      <point x="156" y="-55" type="curve"/>
      <point x="171" y="-43"/>
      <point x="183" y="-26"/>
      <point x="198" y="-15" type="curve"/>
      <point x="214" y="-3"/>
      <point x="230" y="5"/>
      <point x="246" y="16" type="curve"/>
      <point x="181" y="16"/>
      <point x="117" y="16"/>
      <point x="54" y="16" type="curve"/>
      <point x="54" y="-112"/>
      <point x="54" y="16"/>
      <point x="54" y="-112" type="curve"/>
      <point x="117" y="-112"/>
      <point x="181" y="-112"/>
      <point x="246" y="-112" type="curve"/>
      <point x="315" y="-112"/>
      <point x="246" y="-112"/>
      <point x="315" y="-112" type="curve"/>
      <point x="315" y="-55"/>
      <point x="315" y="-112"/>
      <point x="315" y="-55" type="curve"/>
      <point x="315" y="200"/>
      <point x="315" y="455"/>
      <point x="315" y="710" type="curve"/>
      <point x="315" y="769"/>
      <point x="315" y="710"/>
      <point x="315" y="769" type="curve"/>
      <point x="245" y="769"/>
      <point x="315" y="769"/>
      <point x="245" y="769" type="curve"/>
      <point x="180" y="769"/>
      <point x="117" y="769"/>
      <point x="54" y="769" type="curve"/>
      <point x="54" y="642"/>
      <point x="54" y="769"/>
    </contour>
  </outline>
</glyph>
<glyph name="c" format="1">
  <advance width="691"/>
  <unicode hex="0063"/>
  <outline>
    <contour>
      <point x="381" y="610" type="move" name="top"/>
    </contour>
    <contour>
      <point x="396" y="12" type="move" name="bottom"/>
    </contour>
    <contour>
      <point x="521" y="469" type="curve"/>
      <point x="521" y="309"/>
      <point x="521" y="469"/>
      <point x="521" y="309" type="curve"/>
      <point x="643" y="309"/>
      <point x="521" y="309"/>
      <point x="643" y="309" type="curve"/>
      <point x="643" y="469"/>
      <point x="643" y="309"/>
      <point x="643" y="469" type="curve"/>
      <point x="521" y="469"/>
      <point x="643" y="469"/>
    </contour>
    <contour>
      <point x="643" y="469" type="curve"/>
      <point x="574" y="511"/>
      <point x="487" y="538"/>
      <point x="403" y="538" type="curve"/>
      <point x="195" y="538"/>
      <point x="45" y="463"/>
      <point x="45" y="267" type="curve"/>
      <point x="45" y="73"/>
      <point x="191" y="-5"/>
      <point x="398" y="-5" type="curve"/>
      <point x="492" y="-5"/>
      <point x="584" y="20"/>
      <point x="640" y="71" type="curve"/>
      <point x="554" y="167"/>
      <point x="640" y="71"/>
      <point x="554" y="167" type="curve"/>
      <point x="511" y="133"/>
      <point x="459" y="116"/>
      <point x="405" y="116" type="curve"/>
      <point x="288" y="116"/>
      <point x="204" y="157"/>
      <point x="204" y="267" type="curve"/>
      <point x="204" y="375"/>
      <point x="284" y="417"/>
      <point x="399" y="417" type="curve"/>
      <point x="451" y="417"/>
      <point x="505" y="411"/>
      <point x="549" y="388" type="curve"/>
      <point x="643" y="469"/>
      <point x="549" y="388"/>
    </contour>
  </outline>
</glyph>
<glyph name="d" format="1">
  <advance width="830"/>
  <unicode hex="0064"/>
  <outline>
    <contour>
      <point x="629" y="800" type="curve"/>
      <point x="575" y="800"/>
      <point x="521" y="800"/>
      <point x="467" y="800" type="curve"/>
      <point x="467" y="684"/>
      <point x="467" y="800"/>
      <point x="467" y="684" type="curve"/>
      <point x="629" y="684"/>
      <point x="467" y="684"/>
      <point x="629" y="684" type="curve"/>
      <point x="629" y="799"/>
      <point x="629" y="685"/>
    </contour>
    <contour>
      <point x="630" y="0" type="curve"/>
      <point x="684" y="0"/>
      <point x="737" y="0"/>
      <point x="791" y="0" type="curve"/>
      <point x="791" y="116"/>
      <point x="791" y="0"/>
      <point x="791" y="116" type="curve"/>
      <point x="630" y="115"/>
      <point x="791" y="116"/>
      <point x="630" y="115" type="curve"/>
      <point x="630" y="-1"/>
      <point x="630" y="116"/>
    </contour>
    <contour>
      <point x="658" y="400" type="curve"/>
      <point x="579" y="486"/>
      <point x="463" y="538"/>
      <point x="349" y="538" type="curve"/>
      <point x="174" y="538"/>
      <point x="47" y="450"/>
      <point x="47" y="262" type="curve"/>
      <point x="47" y="74"/>
      <point x="173" y="-5"/>
      <point x="350" y="-5" type="curve"/>
      <point x="490" y="-5"/>
      <point x="589" y="58"/>
      <point x="661" y="157" type="curve"/>
      <point x="588" y="220"/>
      <point x="652" y="157"/>
      <point x="579" y="220" type="curve"/>
      <point x="521" y="144"/>
      <point x="456" y="112"/>
      <point x="371" y="112" type="curve"/>
      <point x="278" y="112"/>
      <point x="205" y="160"/>
      <point x="205" y="268" type="curve"/>
      <point x="205" y="376"/>
      <point x="281" y="421"/>
      <point x="376" y="421" type="curve"/>
      <point x="455" y="421"/>
      <point x="542" y="379"/>
      <point x="590" y="319" type="curve"/>
      <point x="664" y="390"/>
      <point x="584" y="330"/>
    </contour>
    <contour>
      <point x="712" y="0" type="curve"/>
      <point x="712" y="267"/>
      <point x="712" y="533"/>
      <point x="712" y="800" type="curve"/>
      <point x="546" y="800"/>
      <point x="712" y="800"/>
      <point x="546" y="800" type="curve"/>
      <point x="546" y="533"/>
      <point x="546" y="267"/>
      <point x="546" y="0" type="curve"/>
      <point x="712" y="0"/>
      <point x="546" y="0"/>
    </contour>
  </outline>
</glyph>
<glyph name="g" format="1">
  <advance width="716"/>
  <unicode hex="0067"/>
  <outline>
    <contour>
      <point x="356" y="610" type="move" name="top"/>
    </contour>
    <contour>
      <point x="493" y="436" type="curve"/>
      <point x="706" y="512" type="line"/>
      <point x="647" y="629" type="line"/>
      <point x="415" y="518" type="line"/>
      <point x="492" y="435"/>
      <point x="416" y="519"/>
    </contour>
    <contour>
      <point x="229" y="336" type="curve"/>
      <point x="229" y="400"/>
      <point x="294" y="423"/>
      <point x="368" y="423" type="curve"/>
      <point x="442" y="423"/>
      <point x="502" y="398"/>
      <point x="502" y="334" type="curve"/>
      <point x="502" y="274"/>
      <point x="442" y="255"/>
      <point x="371" y="255" type="curve"/>
      <point x="297" y="255"/>
      <point x="229" y="270"/>
      <point x="229" y="336" type="curve"/>
      <point x="70" y="330"/>
      <point x="229" y="336"/>
      <point x="70" y="330" type="curve"/>
      <point x="70" y="192"/>
      <point x="202" y="138"/>
      <point x="358" y="138" type="curve"/>
      <point x="522" y="138"/>
      <point x="661" y="194"/>
      <point x="661" y="339" type="curve"/>
      <point x="661" y="481"/>
      <point x="528" y="539"/>
      <point x="368" y="539" type="curve"/>
      <point x="205" y="539"/>
      <point x="70" y="476"/>
      <point x="70" y="330" type="curve"/>
      <point x="229" y="336"/>
      <point x="70" y="330"/>
    </contour>
    <contour>
      <point x="206" y="249" type="curve"/>
      <point x="134" y="222"/>
      <point x="75" y="188"/>
      <point x="75" y="114" type="curve"/>
      <point x="75" y="-10"/>
      <point x="208" y="-25"/>
      <point x="348" y="-34" type="curve"/>
      <point x="453" y="-40"/>
      <point x="570" y="-34"/>
      <point x="570" y="-115" type="curve"/>
      <point x="570" y="-182"/>
      <point x="470" y="-188"/>
      <point x="375" y="-188" type="curve"/>
      <point x="282" y="-188"/>
      <point x="192" y="-179"/>
      <point x="192" y="-100" type="curve"/>
      <point x="192" y="-38"/>
      <point x="233" y="-10"/>
      <point x="281" y="4" type="curve"/>
      <point x="201" y="74"/>
      <point x="281" y="4"/>
      <point x="201" y="74" type="curve"/>
      <point x="109" y="48"/>
      <point x="33" y="-1"/>
      <point x="33" y="-105" type="curve"/>
      <point x="33" y="-266"/>
      <point x="191" y="-304"/>
      <point x="367" y="-304" type="curve"/>
      <point x="550" y="-304"/>
      <point x="718" y="-274"/>
      <point x="714" y="-104" type="curve"/>
      <point x="714" y="60"/>
      <point x="548" y="67"/>
      <point x="376" y="76" type="curve"/>
      <point x="308" y="80"/>
      <point x="234" y="81"/>
      <point x="234" y="125" type="curve"/>
      <point x="234" y="153"/>
      <point x="253" y="168"/>
      <point x="279" y="179" type="curve"/>
      <point x="206" y="249"/>
      <point x="279" y="179"/>
    </contour>
  </outline>
</glyph>
<glyph name="h" format="1">
  <advance width="798"/>
  <unicode hex="0068"/>
  <outline>
    <contour>
      <point x="632" y="-1" type="curve"/>
      <point x="695" y="-1"/>
      <point x="730" y="0"/>
      <point x="793" y="0" type="curve"/>
      <point x="793" y="116"/>
      <point x="793" y="0"/>
      <point x="793" y="116" type="curve"/>
      <point x="605" y="115"/>
      <point x="820" y="116"/>
      <point x="632" y="115" type="curve"/>
      <point x="632" y="-1"/>
      <point x="632" y="115"/>
    </contour>
    <contour>
      <point x="170" y="-1" type="curve"/>
      <point x="228" y="-1"/>
      <point x="143" y="-1"/>
      <point x="318" y="0" type="curve"/>
      <point x="318" y="116"/>
      <point x="318" y="0"/>
      <point x="318" y="116" type="curve"/>
      <point x="143" y="115"/>
      <point x="345" y="116"/>
      <point x="170" y="115" type="curve"/>
      <point x="170" y="-1"/>
      <point x="170" y="115"/>
    </contour>
    <contour>
      <point x="170" y="799" type="curve"/>
      <point x="107" y="799"/>
      <point x="71" y="800"/>
      <point x="9" y="800" type="curve"/>
      <point x="9" y="684"/>
      <point x="9" y="800"/>
      <point x="9" y="684" type="curve"/>
      <point x="197" y="684"/>
      <point x="-18" y="684"/>
      <point x="170" y="684" type="curve"/>
      <point x="170" y="799"/>
      <point x="170" y="684"/>
    </contour>
    <contour>
      <point x="170" y="115" type="curve"/>
      <point x="-18" y="116"/>
      <point x="197" y="115"/>
      <point x="9" y="116" type="curve"/>
      <point x="9" y="0"/>
      <point x="9" y="116"/>
      <point x="9" y="0" type="curve"/>
      <point x="71" y="0"/>
      <point x="107" y="-1"/>
      <point x="170" y="-1" type="curve"/>
      <point x="170" y="115"/>
      <point x="170" y="-1"/>
    </contour>
    <contour>
      <point x="214" y="270" type="curve"/>
      <point x="250" y="366"/>
      <point x="332" y="421"/>
      <point x="420" y="421" type="curve"/>
      <point x="500" y="421"/>
      <point x="554" y="371"/>
      <point x="554" y="293" type="curve"/>
      <point x="554" y="192"/>
      <point x="554" y="102"/>
      <point x="554" y="0" type="curve"/>
      <point x="713" y="0"/>
      <point x="554" y="0"/>
      <point x="713" y="0" type="curve"/>
      <point x="713" y="106"/>
      <point x="713" y="211"/>
      <point x="713" y="317" type="curve"/>
      <point x="713" y="472"/>
      <point x="609" y="538"/>
      <point x="447" y="538" type="curve"/>
      <point x="314" y="538"/>
      <point x="199" y="461"/>
      <point x="137" y="324" type="curve"/>
      <point x="216" y="265"/>
      <point x="135" y="328"/>
    </contour>
    <contour>
      <point x="249" y="0" type="curve"/>
      <point x="249" y="267"/>
      <point x="249" y="533"/>
      <point x="249" y="800" type="curve"/>
      <point x="90" y="800"/>
      <point x="249" y="800"/>
      <point x="90" y="800" type="curve"/>
      <point x="90" y="533"/>
      <point x="90" y="267"/>
      <point x="90" y="0" type="curve"/>
      <point x="249" y="0"/>
      <point x="90" y="0"/>
    </contour>
  </outline>
</glyph>
<glyph name="k" format="1">
  <advance width="736"/>
  <unicode hex="006B"/>
  <outline>
    <contour>
      <point x="420" y="-3" type="move" name="bottom"/>
    </contour>
    <contour>
      <point x="168" y="115" type="curve"/>
      <point x="-19" y="116"/>
      <point x="195" y="115"/>
      <point x="8" y="116" type="curve"/>
      <point x="8" y="0"/>
      <point x="8" y="116"/>
      <point x="8" y="0" type="curve"/>
      <point x="70" y="0"/>
      <point x="106" y="-1"/>
      <point x="168" y="-1" type="curve"/>
      <point x="168" y="115"/>
      <point x="168" y="-1"/>
    </contour>
    <contour>
      <point x="553" y="-1" type="curve"/>
      <point x="622" y="-1"/>
      <point x="648" y="0"/>
      <point x="716" y="0" type="curve"/>
      <point x="716" y="116"/>
      <point x="716" y="0"/>
      <point x="716" y="116" type="curve"/>
      <point x="508" y="115"/>
      <point x="761" y="116"/>
      <point x="553" y="115" type="curve"/>
      <point x="553" y="-1"/>
      <point x="553" y="115"/>
    </contour>
    <contour>
      <point x="559" y="417" type="curve"/>
      <point x="734" y="417"/>
      <point x="514" y="417"/>
      <point x="689" y="417" type="curve"/>
      <point x="689" y="533"/>
      <point x="689" y="417"/>
      <point x="689" y="533" type="curve"/>
      <point x="630" y="533"/>
      <point x="617" y="533"/>
      <point x="559" y="533" type="curve"/>
      <point x="559" y="417"/>
      <point x="559" y="533"/>
    </contour>
    <contour>
      <point x="168" y="-1" type="curve"/>
      <point x="215" y="-1"/>
      <point x="168" y="-1"/>
      <point x="310" y="0" type="curve"/>
      <point x="310" y="116"/>
      <point x="310" y="0"/>
      <point x="310" y="116" type="curve"/>
      <point x="168" y="115"/>
      <point x="310" y="116"/>
      <point x="168" y="115" type="curve"/>
      <point x="168" y="-1"/>
      <point x="168" y="115"/>
    </contour>
    <contour>
      <point x="580" y="533" type="curve"/>
      <point x="488" y="533"/>
      <point x="407" y="533"/>
      <point x="317" y="533" type="curve"/>
      <point x="317" y="417"/>
      <point x="317" y="533"/>
      <point x="317" y="417" type="curve"/>
      <point x="589" y="417"/>
      <point x="308" y="417"/>
      <point x="580" y="417" type="curve"/>
      <point x="580" y="533"/>
      <point x="580" y="417"/>
    </contour>
    <contour>
      <point x="171" y="799" type="curve"/>
      <point x="108" y="799"/>
      <point x="73" y="800"/>
      <point x="10" y="800" type="curve"/>
      <point x="10" y="684"/>
      <point x="10" y="800"/>
      <point x="10" y="684" type="curve"/>
      <point x="198" y="684"/>
      <point x="-17" y="684"/>
      <point x="171" y="684" type="curve"/>
      <point x="171" y="799"/>
      <point x="171" y="684"/>
    </contour>
    <contour>
      <point x="249" y="0" type="curve"/>
      <point x="249" y="800" type="line"/>
      <point x="90" y="800"/>
      <point x="249" y="800"/>
      <point x="90" y="800" type="curve"/>
      <point x="90" y="533"/>
      <point x="90" y="267"/>
      <point x="90" y="0" type="curve"/>
      <point x="249" y="0"/>
      <point x="90" y="0"/>
    </contour>
    <contour>
      <point x="508" y="533" type="curve"/>
      <point x="206" y="275" type="line"/>
      <point x="397" y="275"/>
      <point x="206" y="275"/>
      <point x="397" y="275" type="curve"/>
      <point x="670" y="487" type="line"/>
      <point x="453" y="487"/>
      <point x="725" y="533"/>
    </contour>
    <contour>
      <point x="689" y="60" type="curve"/>
      <point x="396" y="275" type="line"/>
      <point x="206" y="275"/>
      <point x="396" y="275"/>
      <point x="206" y="275" type="curve"/>
      <point x="540" y="0" type="line"/>
      <point x="755" y="0"/>
      <point x="473" y="60"/>
    </contour>
  </outline>
</glyph>
<glyph name="x" format="1">
  <advance width="754"/>
  <unicode hex="0078"/>
  <outline>
    <contour>
      <point x="144" y="116" type="curve"/>
      <point x="-20" y="116"/>
      <point x="179" y="116"/>
      <point x="16" y="116" type="curve"/>
      <point x="16" y="0"/>
      <point x="16" y="116"/>
      <point x="16" y="0" type="curve"/>
      <point x="70" y="0"/>
      <point x="89" y="0"/>
      <point x="144" y="0" type="curve"/>
      <point x="144" y="116"/>
      <point x="144" y="0"/>
    </contour>
    <contour>
      <point x="626" y="116" type="curve"/>
      <point x="400" y="116"/>
      <point x="643" y="116"/>
      <point x="417" y="116" type="curve"/>
      <point x="417" y="0"/>
      <point x="417" y="116"/>
      <point x="417" y="0" type="curve"/>
      <point x="492" y="0"/>
      <point x="551" y="0"/>
      <point x="626" y="0" type="curve"/>
      <point x="626" y="116"/>
      <point x="626" y="0"/>
    </contour>
    <contour>
      <point x="624" y="0" type="curve"/>
      <point x="676" y="0"/>
      <point x="693" y="0"/>
      <point x="744" y="0" type="curve"/>
      <point x="744" y="116"/>
      <point x="744" y="0"/>
      <point x="744" y="116" type="curve"/>
      <point x="590" y="116"/>
      <point x="778" y="116"/>
      <point x="624" y="116" type="curve"/>
      <point x="624" y="0"/>
      <point x="624" y="116"/>
    </contour>
    <contour>
      <point x="142" y="0" type="curve"/>
      <point x="217" y="0"/>
      <point x="124" y="0"/>
      <point x="351" y="0" type="curve"/>
      <point x="351" y="116"/>
      <point x="351" y="0"/>
      <point x="351" y="116" type="curve"/>
      <point x="124" y="116"/>
      <point x="368" y="116"/>
      <point x="142" y="116" type="curve"/>
      <point x="142" y="0"/>
      <point x="142" y="116"/>
    </contour>
    <contour>
      <point x="587" y="417" type="curve"/>
      <point x="751" y="417"/>
      <point x="553" y="417"/>
      <point x="717" y="417" type="curve"/>
      <point x="717" y="533"/>
      <point x="717" y="417"/>
      <point x="717" y="533" type="curve"/>
      <point x="662" y="533"/>
      <point x="640" y="533"/>
      <point x="587" y="533" type="curve"/>
      <point x="587" y="417"/>
      <point x="587" y="533"/>
    </contour>
    <contour>
      <point x="181" y="533" type="curve"/>
      <point x="126" y="533"/>
      <point x="105" y="533"/>
      <point x="50" y="533" type="curve"/>
      <point x="50" y="417"/>
      <point x="50" y="533"/>
      <point x="50" y="417" type="curve"/>
      <point x="216" y="417"/>
      <point x="16" y="417"/>
      <point x="181" y="417" type="curve"/>
      <point x="181" y="533"/>
      <point x="181" y="417"/>
    </contour>
    <contour>
      <point x="151" y="417" type="curve"/>
      <point x="366" y="417"/>
      <point x="125" y="417"/>
      <point x="340" y="417" type="curve"/>
      <point x="340" y="533"/>
      <point x="340" y="417"/>
      <point x="340" y="533" type="curve"/>
      <point x="268" y="533"/>
      <point x="222" y="533"/>
      <point x="151" y="533" type="curve"/>
      <point x="151" y="417"/>
      <point x="151" y="533"/>
    </contour>
    <contour>
      <point x="590" y="533" type="curve"/>
      <point x="526" y="533"/>
      <point x="489" y="533"/>
      <point x="427" y="533" type="curve"/>
      <point x="427" y="417"/>
      <point x="427" y="533"/>
      <point x="427" y="417" type="curve"/>
      <point x="616" y="417"/>
      <point x="400" y="417"/>
      <point x="590" y="417" type="curve"/>
      <point x="590" y="533"/>
      <point x="590" y="417"/>
    </contour>
    <contour>
      <point x="698" y="53" type="curve"/>
      <point x="180" y="533" type="line"/>
      <point x="17" y="533"/>
      <point x="233" y="479"/>
      <point x="69" y="479" type="curve"/>
      <point x="573" y="0" type="line"/>
      <point x="751" y="0"/>
      <point x="520" y="53"/>
    </contour>
    <contour>
      <point x="588" y="533" type="curve"/>
      <point x="57" y="52" type="line"/>
      <point x="240" y="52"/>
      <point x="8" y="0"/>
      <point x="191" y="0" type="curve"/>
      <point x="690" y="470" type="line"/>
      <point x="526" y="470"/>
      <point x="752" y="533"/>
    </contour>
  </outline>
</glyph>
<glyph name="bar" format="1">
  <advance width="325"/>
  <unicode hex="007C"/>
  <outline>
    <contour>
      <point x="242" y="-300" type="curve"/>
      <point x="242" y="67"/>
      <point x="242" y="433"/>
      <point x="242" y="800" type="curve"/>
      <point x="83" y="800"/>
      <point x="242" y="800"/>
      <point x="83" y="800" type="curve"/>
      <point x="83" y="433"/>
      <point x="83" y="67"/>
      <point x="83" y="-300" type="curve"/>
      <point x="242" y="-300"/>
      <point x="83" y="-300"/>
    </contour>
  </outline>
</glyph>
<glyph name="cent" format="1">
  <advance width="840"/>
  <unicode hex="00A2"/>
  <outline>
    <contour>
      <point x="525" y="-53" type="curve"/>
      <point x="525" y="-13"/>
      <point x="525" y="27"/>
      <point x="525" y="67" type="curve"/>
      <point x="366" y="67"/>
      <point x="525" y="67"/>
      <point x="366" y="67" type="curve"/>
      <point x="366" y="27"/>
      <point x="366" y="-13"/>
      <point x="366" y="-53" type="curve"/>
      <point x="525" y="-53"/>
      <point x="366" y="-53"/>
    </contour>
    <contour>
      <point x="393" y="778" type="curve"/>
      <point x="393" y="742"/>
      <point x="393" y="706"/>
      <point x="393" y="670" type="curve"/>
      <point x="551" y="670"/>
      <point x="393" y="670"/>
      <point x="551" y="670" type="curve"/>
      <point x="551" y="706"/>
      <point x="551" y="742"/>
      <point x="551" y="778" type="curve"/>
      <point x="393" y="778"/>
      <point x="551" y="778"/>
    </contour>
    <contour>
      <point x="778" y="619" type="curve"/>
      <point x="677" y="669"/>
      <point x="597" y="687"/>
      <point x="483" y="687" type="curve"/>
      <point x="239" y="687"/>
      <point x="54" y="587"/>
      <point x="54" y="363" type="curve"/>
      <point x="54" y="153"/>
      <point x="213" y="44"/>
      <point x="437" y="44" type="curve"/>
      <point x="571" y="44"/>
      <point x="666" y="68"/>
      <point x="781" y="134" type="curve"/>
      <point x="697" y="238"/>
      <point x="781" y="134"/>
      <point x="697" y="238" type="curve"/>
      <point x="604" y="187"/>
      <point x="541" y="166"/>
      <point x="452" y="166" type="curve"/>
      <point x="312" y="166"/>
      <point x="213" y="236"/>
      <point x="213" y="369" type="curve"/>
      <point x="213" y="504"/>
      <point x="322" y="566"/>
      <point x="468" y="566" type="curve"/>
      <point x="554" y="566"/>
      <point x="615" y="551"/>
      <point x="709" y="512" type="curve"/>
      <point x="778" y="619"/>
      <point x="709" y="512"/>
    </contour>
    <contour>
      <point x="657" y="619" type="curve"/>
      <point x="657" y="492"/>
      <point x="657" y="588"/>
      <point x="657" y="461" type="curve"/>
      <point x="778" y="461"/>
      <point x="657" y="461"/>
      <point x="778" y="461" type="curve"/>
      <point x="778" y="588"/>
      <point x="778" y="492"/>
      <point x="778" y="619" type="curve"/>
      <point x="657" y="619"/>
      <point x="778" y="619"/>
    </contour>
  </outline>
</glyph>
<glyph name="sterling" format="1">
  <advance width="642"/>
  <unicode hex="00A3"/>
  <outline>
    <contour>
      <point x="559" y="116" type="curve"/>
      <point x="392" y="116"/>
      <point x="224" y="116"/>
      <point x="57" y="116" type="curve"/>
      <point x="57" y="0"/>
      <point x="57" y="116"/>
      <point x="57" y="0" type="curve"/>
      <point x="224" y="0"/>
      <point x="392" y="0"/>
      <point x="559" y="0" type="curve"/>
      <point x="559" y="116"/>
      <point x="559" y="0"/>
    </contour>
    <contour>
      <point x="500" y="433" type="curve"/>
      <point x="367" y="433"/>
      <point x="233" y="433"/>
      <point x="100" y="433" type="curve"/>
      <point x="100" y="316"/>
      <point x="100" y="433"/>
      <point x="100" y="316" type="curve"/>
      <point x="233" y="316"/>
      <point x="367" y="316"/>
      <point x="500" y="316" type="curve"/>
      <point x="500" y="433"/>
      <point x="500" y="316"/>
    </contour>
    <contour>
      <point x="599" y="661" type="curve"/>
      <point x="536" y="707"/>
      <point x="483" y="720"/>
      <point x="407" y="720" type="curve"/>
      <point x="212" y="720"/>
      <point x="97" y="561"/>
      <point x="155" y="363" type="curve"/>
      <point x="193" y="231"/>
      <point x="159" y="116"/>
      <point x="57" y="116" type="curve"/>
      <point x="57" y="0"/>
      <point x="57" y="116"/>
      <point x="57" y="0" type="curve"/>
      <point x="265" y="0"/>
      <point x="372" y="175"/>
      <point x="312" y="386" type="curve"/>
      <point x="278" y="506"/>
      <point x="312" y="610"/>
      <point x="400" y="610" type="curve"/>
      <point x="448" y="610"/>
      <point x="481" y="598"/>
      <point x="525" y="575" type="curve"/>
      <point x="599" y="661"/>
      <point x="525" y="575"/>
    </contour>
  </outline>
</glyph>
<glyph name="currency" format="1">
  <advance width="800"/>
  <unicode hex="00A4"/>
  <outline>
    <contour>
      <point x="297" y="317" type="curve"/>
      <point x="297" y="370"/>
      <point x="340" y="396"/>
      <point x="397" y="396" type="curve"/>
      <point x="460" y="396"/>
      <point x="505" y="371"/>
      <point x="505" y="315" type="curve"/>
      <point x="505" y="261"/>
      <point x="465" y="233"/>
      <point x="409" y="233" type="curve"/>
      <point x="344" y="233"/>
      <point x="297" y="258"/>
      <point x="297" y="317" type="curve"/>
      <point x="137" y="317"/>
      <point x="297" y="317"/>
      <point x="138" y="317" type="curve"/>
      <point x="138" y="178"/>
      <point x="252" y="116"/>
      <point x="403" y="116" type="curve"/>
      <point x="552" y="116"/>
      <point x="663" y="183"/>
      <point x="663" y="320" type="curve"/>
      <point x="663" y="452"/>
      <point x="554" y="513"/>
      <point x="412" y="513" type="curve"/>
      <point x="257" y="513"/>
      <point x="138" y="456"/>
      <point x="138" y="317" type="curve"/>
      <point x="297" y="317"/>
      <point x="137" y="317"/>
    </contour>
    <contour>
      <point x="568" y="293" type="line"/>
      <point x="740" y="452" type="line"/>
      <point x="616" y="576" type="line"/>
      <point x="457" y="403" type="line"/>
    </contour>
    <contour>
      <point x="459" y="231" type="line"/>
      <point x="617" y="58" type="line"/>
      <point x="742" y="183" type="line"/>
      <point x="569" y="341" type="line"/>
    </contour>
    <contour>
      <point x="232" y="344" type="line"/>
      <point x="59" y="185" type="line"/>
      <point x="183" y="61" type="line"/>
      <point x="342" y="234" type="line"/>
    </contour>
    <contour>
      <point x="343" y="405" type="line"/>
      <point x="184" y="578" type="line"/>
      <point x="60" y="454" type="line"/>
      <point x="232" y="295" type="line"/>
    </contour>
  </outline>
</glyph>
<glyph name="ordfeminine" format="1">
  <advance width="557"/>
  <unicode hex="00AA"/>
  <outline>
    <contour>
      <point x="77" y="735" type="curve"/>
      <point x="77" y="655"/>
      <point x="77" y="731"/>
      <point x="77" y="651" type="curve"/>
      <point x="160" y="651"/>
      <point x="77" y="651"/>
      <point x="160" y="651" type="curve"/>
      <point x="160" y="731"/>
      <point x="160" y="655"/>
      <point x="160" y="735" type="curve"/>
      <point x="77" y="735"/>
      <point x="160" y="735"/>
    </contour>
    <contour>
      <point x="453" y="426" type="curve"/>
      <point x="453" y="508"/>
      <point x="453" y="586"/>
      <point x="453" y="668" type="curve"/>
      <point x="453" y="765"/>
      <point x="367" y="786"/>
      <point x="263" y="786" type="curve"/>
      <point x="184" y="786"/>
      <point x="126" y="766"/>
      <point x="77" y="735" type="curve"/>
      <point x="118" y="669"/>
      <point x="83" y="732"/>
      <point x="124" y="666" type="curve"/>
      <point x="151" y="687"/>
      <point x="192" y="708"/>
      <point x="248" y="708" type="curve"/>
      <point x="300" y="708"/>
      <point x="346" y="699"/>
      <point x="346" y="651" type="curve"/>
      <point x="346" y="575"/>
      <point x="346" y="501"/>
      <point x="346" y="426" type="curve"/>
      <point x="453" y="426"/>
      <point x="346" y="426"/>
    </contour>
    <contour>
      <point x="401" y="426" type="curve"/>
      <point x="434" y="426"/>
      <point x="467" y="426"/>
      <point x="501" y="426" type="curve"/>
      <point x="501" y="504"/>
      <point x="501" y="426"/>
      <point x="501" y="504" type="curve"/>
      <point x="401" y="504"/>
      <point x="501" y="504"/>
      <point x="401" y="504" type="curve"/>
      <point x="401" y="426"/>
      <point x="401" y="504"/>
    </contour>
    <contour>
      <point x="396" y="660" type="curve"/>
      <point x="331" y="654"/>
      <point x="292" y="652"/>
      <point x="227" y="646" type="curve"/>
      <point x="129" y="637"/>
      <point x="52" y="623"/>
      <point x="52" y="536" type="curve"/>
      <point x="52" y="452"/>
      <point x="119" y="422"/>
      <point x="213" y="422" type="curve"/>
      <point x="306" y="422"/>
      <point x="350" y="461"/>
      <point x="422" y="528" type="curve"/>
      <point x="373" y="568"/>
      <point x="421" y="528"/>
      <point x="372" y="567" type="curve"/>
      <point x="325" y="527"/>
      <point x="287" y="498"/>
      <point x="229" y="498" type="curve"/>
      <point x="188" y="498"/>
      <point x="157" y="506"/>
      <point x="157" y="537" type="curve"/>
      <point x="157" y="568"/>
      <point x="189" y="573"/>
      <point x="223" y="576" type="curve"/>
      <point x="292" y="582"/>
      <point x="332" y="587"/>
      <point x="401" y="594" type="curve"/>
      <point x="396" y="660"/>
      <point x="401" y="594"/>
    </contour>
  </outline>
</glyph>
<glyph name="logicalnot" format="1">
  <advance width="780"/>
  <unicode hex="00AC"/>
  <outline>
    <contour>
      <point x="82" y="250" type="curve"/>
      <point x="702" y="250" type="line"/>
      <point x="702" y="377"/>
      <point x="702" y="250"/>
      <point x="702" y="377" type="curve"/>
      <point x="82" y="377" type="line"/>
      <point x="82" y="250"/>
      <point x="82" y="377"/>
    </contour>
    <contour>
      <point x="702" y="139" type="curve"/>
      <point x="702" y="377" type="line"/>
      <point x="544" y="377"/>
      <point x="711" y="377"/>
      <point x="553" y="377" type="curve"/>
      <point x="553" y="139" type="line"/>
      <point x="711" y="139"/>
      <point x="544" y="139"/>
    </contour>
  </outline>
</glyph>
<glyph name="registered" format="1">
  <advance width="1006"/>
  <unicode hex="00AE"/>
  <outline>
    <contour>
      <point x="178" y="325" type="curve"/>
      <point x="178" y="495"/>
      <point x="320" y="561"/>
      <point x="507" y="561" type="curve"/>
      <point x="691" y="561"/>
      <point x="828" y="490"/>
      <point x="828" y="322" type="curve"/>
      <point x="828" y="159"/>
      <point x="695" y="89"/>
      <point x="517" y="89" type="curve"/>
      <point x="325" y="89"/>
      <point x="178" y="153"/>
      <point x="178" y="325" type="curve"/>
      <point x="135" y="325"/>
      <point x="105" y="325"/>
      <point x="62" y="325" type="curve"/>
      <point x="62" y="95"/>
      <point x="257" y="7"/>
      <point x="512" y="7" type="curve"/>
      <point x="759" y="7"/>
      <point x="944" y="102"/>
      <point x="944" y="327" type="curve"/>
      <point x="944" y="553"/>
      <point x="756" y="645"/>
      <point x="507" y="645" type="curve"/>
      <point x="254" y="645"/>
      <point x="62" y="554"/>
      <point x="62" y="325" type="curve"/>
      <point x="105" y="325"/>
      <point x="135" y="325"/>
    </contour>
    <contour>
      <point x="595" y="140" type="curve"/>
      <point x="644" y="140"/>
      <point x="671" y="140"/>
      <point x="719" y="140" type="curve"/>
      <point x="719" y="234"/>
      <point x="719" y="140"/>
      <point x="719" y="234" type="curve"/>
      <point x="702" y="234"/>
      <point x="703" y="234"/>
      <point x="686" y="234" type="curve"/>
      <point x="597" y="152"/>
      <point x="680" y="236"/>
    </contour>
    <contour>
      <point x="477" y="510" type="curve"/>
      <point x="417" y="510"/>
      <point x="368" y="510"/>
      <point x="309" y="510" type="curve"/>
      <point x="309" y="417"/>
      <point x="309" y="510"/>
      <point x="309" y="417" type="curve"/>
      <point x="327" y="417"/>
      <point x="332" y="417"/>
      <point x="349" y="417" type="curve"/>
      <point x="477" y="510"/>
      <point x="349" y="417"/>
    </contour>
    <contour>
      <point x="477" y="234" type="curve"/>
      <point x="417" y="234"/>
      <point x="368" y="234"/>
      <point x="309" y="234" type="curve"/>
      <point x="309" y="140"/>
      <point x="309" y="234"/>
      <point x="309" y="140" type="curve"/>
      <point x="327" y="140"/>
      <point x="332" y="140"/>
      <point x="349" y="140" type="curve"/>
      <point x="477" y="234"/>
      <point x="349" y="140"/>
    </contour>
    <contour>
      <point x="349" y="140" type="curve"/>
      <point x="405" y="140"/>
      <point x="447" y="140"/>
      <point x="503" y="140" type="curve"/>
      <point x="503" y="234"/>
      <point x="503" y="140"/>
      <point x="503" y="234" type="curve"/>
      <point x="490" y="234"/>
      <point x="489" y="234"/>
      <point x="477" y="234" type="curve"/>
      <point x="349" y="140"/>
      <point x="477" y="234"/>
    </contour>
    <contour>
      <point x="461" y="317" type="curve"/>
      <point x="504" y="265"/>
      <point x="553" y="192"/>
      <point x="595" y="140" type="curve"/>
      <point x="686" y="228"/>
      <point x="601" y="143"/>
      <point x="686" y="234" type="curve"/>
      <point x="614" y="316" type="line"/>
      <point x="457" y="316"/>
      <point x="617" y="317"/>
    </contour>
    <contour>
      <point x="475" y="234" type="curve"/>
      <point x="475" y="326"/>
      <point x="475" y="418"/>
      <point x="475" y="510" type="curve"/>
      <point x="348" y="417"/>
      <point x="477" y="510"/>
      <point x="349" y="417" type="curve"/>
      <point x="349" y="325"/>
      <point x="349" y="232"/>
      <point x="349" y="140" type="curve"/>
      <point x="477" y="234"/>
      <point x="348" y="140"/>
    </contour>
    <contour>
      <point x="415" y="267" type="curve"/>
      <point x="439" y="267"/>
      <point x="463" y="267"/>
      <point x="487" y="267" type="curve"/>
      <point x="599" y="267"/>
      <point x="685" y="289"/>
      <point x="685" y="392" type="curve"/>
      <point x="685" y="478"/>
      <point x="609" y="510"/>
      <point x="513" y="510" type="curve"/>
      <point x="500" y="510"/>
      <point x="488" y="510"/>
      <point x="477" y="510" type="curve"/>
      <point x="349" y="417"/>
      <point x="477" y="510"/>
      <point x="349" y="417" type="curve"/>
      <point x="396" y="417"/>
      <point x="443" y="417"/>
      <point x="490" y="417" type="curve"/>
      <point x="527" y="417"/>
      <point x="560" y="418"/>
      <point x="560" y="387" type="curve"/>
      <point x="560" y="360"/>
      <point x="534" y="360"/>
      <point x="505" y="360" type="curve"/>
      <point x="475" y="360"/>
      <point x="445" y="360"/>
      <point x="415" y="360" type="curve"/>
      <point x="415" y="267"/>
      <point x="415" y="360"/>
    </contour>
  </outline>
</glyph>
<glyph name="macron" format="1">
  <advance width="366"/>
  <unicode hex="00AF"/>
  <outline>
    <contour>
      <point x="181" y="543" type="move" name="_top"/>
    </contour>
    <contour>
      <point x="320" y="659" type="curve"/>
      <point x="226" y="659"/>
      <point x="133" y="659"/>
      <point x="39" y="659" type="curve"/>
      <point x="39" y="543"/>
      <point x="39" y="659"/>
      <point x="39" y="543" type="curve"/>
      <point x="133" y="543"/>
      <point x="226" y="543"/>
      <point x="320" y="543" type="curve"/>
      <point x="320" y="659"/>
      <point x="320" y="543"/>
    </contour>
  </outline>
</glyph>
<glyph name="degree" format="1">
  <advance width="622"/>
  <unicode hex="00B0"/>
  <outline>
    <contour>
      <point x="561" y="498" type="curve"/>
      <point x="561" y="636"/>
      <point x="458" y="710"/>
      <point x="313" y="710" type="curve"/>
      <point x="166" y="710"/>
      <point x="61" y="639"/>
      <point x="61" y="500" type="curve"/>
      <point x="193" y="500"/>
      <point x="68" y="500"/>
      <point x="200" y="500" type="curve"/>
      <point x="200" y="560"/>
      <point x="243" y="598"/>
      <point x="310" y="598" type="curve"/>
      <point x="374" y="598"/>
      <point x="420" y="563"/>
      <point x="420" y="498" type="curve"/>
      <point x="420" y="433"/>
      <point x="378" y="393"/>
      <point x="312" y="393" type="curve"/>
      <point x="245" y="393"/>
      <point x="200" y="434"/>
      <point x="200" y="500" type="curve"/>
      <point x="68" y="500"/>
      <point x="193" y="500"/>
      <point x="61" y="500" type="curve"/>
      <point x="61" y="359"/>
      <point x="162" y="282"/>
      <point x="308" y="282" type="curve"/>
      <point x="456" y="282"/>
      <point x="561" y="357"/>
    </contour>
  </outline>
</glyph>
<glyph name="plusminus" format="1">
  <advance width="765"/>
  <unicode hex="00B1"/>
  <outline>
    <contour>
      <point x="66" y="22" type="line"/>
      <point x="699" y="22" type="line"/>
      <point x="699" y="149" type="line"/>
      <point x="66" y="149" type="line"/>
    </contour>
    <contour>
      <point x="66" y="250" type="curve"/>
      <point x="699" y="250" type="line"/>
      <point x="699" y="377"/>
      <point x="699" y="250"/>
      <point x="699" y="377" type="curve"/>
      <point x="66" y="377" type="line"/>
      <point x="66" y="250"/>
      <point x="66" y="377"/>
    </contour>
    <contour>
      <point x="461" y="22" type="curve"/>
      <point x="461" y="587" type="line"/>
      <point x="303" y="587"/>
      <point x="471" y="587"/>
      <point x="313" y="587" type="curve"/>
      <point x="313" y="22" type="line"/>
      <point x="471" y="22"/>
      <point x="303" y="22"/>
    </contour>
  </outline>
</glyph>
<glyph name="acute" format="1">
  <advance width="598"/>
  <unicode hex="00B4"/>
  <outline>
    <contour>
      <point x="156" y="588" type="move" name="_top"/>
    </contour>
    <contour>
      <point x="220" y="587" type="line"/>
      <point x="407" y="753" type="line"/>
      <point x="202" y="753" type="line"/>
      <point x="64" y="587" type="line"/>
    </contour>
  </outline>
</glyph>
<glyph name="ordmasculine" format="1">
  <advance width="554"/>
  <unicode hex="00BA"/>
  <outline>
    <contour>
      <point x="154" y="606" type="curve"/>
      <point x="154" y="672"/>
      <point x="200" y="710"/>
      <point x="272" y="710" type="curve"/>
      <point x="350" y="710"/>
      <point x="400" y="673"/>
      <point x="400" y="605" type="curve"/>
      <point x="400" y="534"/>
      <point x="350" y="500"/>
      <point x="280" y="500" type="curve"/>
      <point x="205" y="500"/>
      <point x="154" y="534"/>
      <point x="154" y="606" type="curve"/>
      <point x="55" y="606"/>
      <point x="145" y="606"/>
      <point x="46" y="606" type="curve"/>
      <point x="46" y="478"/>
      <point x="142" y="421"/>
      <point x="275" y="421" type="curve"/>
      <point x="410" y="421"/>
      <point x="508" y="476"/>
      <point x="508" y="605" type="curve"/>
      <point x="508" y="727"/>
      <point x="414" y="790"/>
      <point x="277" y="790" type="curve"/>
      <point x="140" y="790"/>
      <point x="46" y="727"/>
      <point x="46" y="606" type="curve"/>
      <point x="145" y="606"/>
      <point x="55" y="606"/>
    </contour>
  </outline>
</glyph>
<glyph name="Aring" format="1">
  <advance width="958"/>
  <unicode hex="00C5"/>
  <outline>
    <contour>
      <point x="130" y="116" type="curve"/>
      <point x="-5" y="116"/>
      <point x="131" y="116"/>
      <point x="-4" y="116" type="curve"/>
      <point x="-4" y="0"/>
      <point x="-4" y="116"/>
      <point x="-4" y="0" type="curve"/>
      <point x="41" y="0"/>
      <point x="85" y="0"/>
      <point x="129" y="0" type="curve"/>
      <point x="130" y="116"/>
      <point x="129" y="0"/>
    </contour>
    <contour>
      <point x="130" y="0" type="curve"/>
      <point x="195" y="0"/>
      <point x="130" y="0"/>
      <point x="327" y="0" type="curve"/>
      <point x="327" y="116"/>
      <point x="327" y="0"/>
      <point x="327" y="116" type="curve"/>
      <point x="130" y="116"/>
      <point x="327" y="116"/>
      <point x="130" y="116" type="curve"/>
      <point x="130" y="0"/>
      <point x="130" y="116"/>
    </contour>
    <contour>
      <point x="810" y="0" type="curve"/>
      <point x="855" y="0"/>
      <point x="900" y="0"/>
      <point x="944" y="0" type="curve"/>
      <point x="944" y="116"/>
      <point x="944" y="0"/>
      <point x="944" y="116" type="curve"/>
      <point x="809" y="116"/>
      <point x="945" y="116"/>
      <point x="810" y="116" type="curve"/>
      <point x="810" y="0"/>
      <point x="810" y="116"/>
    </contour>
    <contour>
      <point x="810" y="116" type="curve"/>
      <point x="613" y="116"/>
      <point x="810" y="116"/>
      <point x="613" y="116" type="curve"/>
      <point x="613" y="0"/>
      <point x="613" y="116"/>
      <point x="613" y="0" type="curve"/>
      <point x="679" y="0"/>
      <point x="745" y="0"/>
      <point x="810" y="0" type="curve"/>
      <point x="810" y="116"/>
      <point x="810" y="0"/>
    </contour>
    <contour>
      <point x="677" y="315" type="curve"/>
      <point x="548" y="315"/>
      <point x="418" y="315"/>
      <point x="289" y="315" type="curve"/>
      <point x="223" y="192"/>
      <point x="289" y="315"/>
      <point x="223" y="192" type="curve"/>
      <point x="391" y="192"/>
      <point x="560" y="192"/>
      <point x="728" y="192" type="curve"/>
      <point x="677" y="315"/>
      <point x="728" y="192"/>
    </contour>
    <contour>
      <point x="908" y="0" type="curve"/>
      <point x="796" y="242"/>
      <point x="676" y="480"/>
      <point x="563" y="722" type="curve"/>
      <point x="418" y="722"/>
      <point x="563" y="722"/>
      <point x="418" y="722" type="curve"/>
      <point x="528" y="483"/>
      <point x="632" y="239"/>
      <point x="742" y="0" type="curve"/>
      <point x="908" y="0"/>
      <point x="742" y="0"/>
    </contour>
    <contour>
      <point x="201" y="0" type="curve"/>
      <point x="325" y="239"/>
      <point x="437" y="483"/>
      <point x="561" y="722" type="curve"/>
      <point x="416" y="722"/>
      <point x="561" y="722"/>
      <point x="416" y="722" type="curve"/>
      <point x="290" y="480"/>
      <point x="154" y="242"/>
      <point x="28" y="0" type="curve"/>
      <point x="201" y="0"/>
      <point x="28" y="0"/>
    </contour>
    <contour>
      <point x="288" y="926" type="curve"/>
      <point x="288" y="822"/>
      <point x="376" y="776"/>
      <point x="490" y="776" type="curve"/>
      <point x="607" y="776"/>
      <point x="696" y="821"/>
      <point x="696" y="926" type="curve"/>
      <point x="696" y="1032"/>
      <point x="606" y="1076"/>
      <point x="488" y="1076" type="curve"/>
      <point x="374" y="1076"/>
      <point x="288" y="1030"/>
      <point x="288" y="926" type="curve"/>
      <point x="421" y="926"/>
      <point x="287" y="926"/>
      <point x="420" y="926" type="curve"/>
      <point x="420" y="965"/>
      <point x="450" y="978"/>
      <point x="488" y="978" type="curve"/>
      <point x="529" y="978"/>
      <point x="564" y="971"/>
      <point x="564" y="926" type="curve"/>
      <point x="564" y="885"/>
      <point x="530" y="874"/>
      <point x="490" y="874" type="curve"/>
      <point x="451" y="874"/>
      <point x="420" y="886"/>
      <point x="420" y="926" type="curve"/>
      <point x="287" y="926"/>
      <point x="421" y="926"/>
    </contour>
  </outline>
</glyph>
<glyph name="Ccedilla" format="1">
  <advance width="894"/>
  <unicode hex="00C7"/>
  <outline>
    <contour>
      <point x="717" y="654" type="curve"/>
      <point x="717" y="534"/>
      <point x="717" y="609"/>
      <point x="717" y="489" type="curve"/>
      <point x="839" y="489"/>
      <point x="717" y="489"/>
      <point x="839" y="489" type="curve"/>
      <point x="839" y="609"/>
      <point x="839" y="534"/>
      <point x="839" y="654" type="curve"/>
      <point x="717" y="654"/>
      <point x="839" y="654"/>
    </contour>
    <contour>
      <point x="839" y="654" type="curve"/>
      <point x="743" y="696"/>
      <point x="640" y="727"/>
      <point x="526" y="727" type="curve"/>
      <point x="251" y="727"/>
      <point x="58" y="604"/>
      <point x="58" y="344" type="curve"/>
      <point x="58" y="104"/>
      <point x="237" y="-5"/>
      <point x="494" y="-5" type="curve"/>
      <point x="644" y="-5"/>
      <point x="735" y="23"/>
      <point x="841" y="88" type="curve"/>
      <point x="779" y="189"/>
      <point x="840" y="88"/>
      <point x="778" y="189" type="curve"/>
      <point x="678" y="135"/>
      <point x="604" y="118"/>
      <point x="500" y="118" type="curve"/>
      <point x="332" y="118"/>
      <point x="217" y="192"/>
      <point x="217" y="350" type="curve"/>
      <point x="217" y="521"/>
      <point x="339" y="606"/>
      <point x="518" y="606" type="curve"/>
      <point x="604" y="606"/>
      <point x="681" y="593"/>
      <point x="752" y="562" type="curve"/>
      <point x="839" y="654"/>
      <point x="752" y="562"/>
    </contour>
    <contour>
      <point x="438" y="87" type="curve"/>
      <point x="421" y="66"/>
      <point x="342" y="-40"/>
      <point x="326" y="-62" type="curve"/>
      <point x="433" y="-155"/>
      <point x="326" y="-62"/>
      <point x="433" y="-155" type="curve"/>
      <point x="454" y="-129"/>
      <point x="540" y="-20"/>
      <point x="560" y="6" type="curve"/>
      <point x="438" y="87"/>
      <point x="560" y="6"/>
    </contour>
    <contour>
      <point x="433" y="-155" type="curve"/>
      <point x="438" y="-152"/>
      <point x="442" y="-150"/>
      <point x="447" y="-150" type="curve"/>
      <point x="455" y="-150"/>
      <point x="461" y="-152"/>
      <point x="461" y="-159" type="curve"/>
      <point x="461" y="-171"/>
      <point x="448" y="-174"/>
      <point x="434" y="-174" type="curve"/>
      <point x="408" y="-174"/>
      <point x="386" y="-166"/>
      <point x="349" y="-152" type="curve"/>
      <point x="305" y="-241"/>
      <point x="349" y="-152"/>
      <point x="305" y="-241" type="curve"/>
      <point x="348" y="-258"/>
      <point x="381" y="-269"/>
      <point x="427" y="-269" type="curve"/>
      <point x="527" y="-269"/>
      <point x="607" y="-243"/>
      <point x="607" y="-154" type="curve"/>
      <point x="607" y="-74"/>
      <point x="541" y="-38"/>
      <point x="455" y="-38" type="curve"/>
      <point x="406" y="-38"/>
      <point x="372" y="-46"/>
      <point x="326" y="-62" type="curve"/>
      <point x="433" y="-155"/>
      <point x="326" y="-62"/>
    </contour>
  </outline>
</glyph>
<glyph name="Ecircumflex" format="1">
  <advance width="816"/>
  <unicode hex="00CA"/>
  <outline>
    <contour>
      <point x="771" y="58" type="curve"/>
      <point x="771" y="178"/>
      <point x="771" y="58"/>
      <point x="771" y="178" type="curve"/>
      <point x="649" y="178"/>
      <point x="771" y="178"/>
      <point x="649" y="178" type="curve"/>
      <point x="649" y="58"/>
      <point x="649" y="178"/>
      <point x="649" y="58" type="curve"/>
      <point x="771" y="58"/>
      <point x="649" y="58"/>
    </contour>
    <contour>
      <point x="607" y="664" type="curve"/>
      <point x="607" y="544"/>
      <point x="607" y="664"/>
      <point x="607" y="544" type="curve"/>
      <point x="729" y="544"/>
      <point x="607" y="544"/>
      <point x="729" y="544" type="curve"/>
      <point x="729" y="664"/>
      <point x="729" y="544"/>
      <point x="729" y="664" type="curve"/>
      <point x="607" y="664"/>
      <point x="729" y="664"/>
    </contour>
    <contour>
      <point x="239" y="116" type="curve"/>
      <point x="77" y="116"/>
      <point x="239" y="116"/>
      <point x="77" y="116" type="curve"/>
      <point x="77" y="0"/>
      <point x="77" y="116"/>
      <point x="77" y="0" type="curve"/>
      <point x="131" y="0"/>
      <point x="185" y="0"/>
      <point x="239" y="0" type="curve"/>
      <point x="239" y="116"/>
      <point x="239" y="0"/>
    </contour>
    <contour>
      <point x="239" y="722" type="curve"/>
      <point x="185" y="722"/>
      <point x="131" y="722"/>
      <point x="77" y="722" type="curve"/>
      <point x="77" y="606"/>
      <point x="77" y="722"/>
      <point x="77" y="606" type="curve"/>
      <point x="239" y="606"/>
      <point x="77" y="606"/>
      <point x="239" y="606" type="curve"/>
      <point x="239" y="722"/>
      <point x="239" y="606"/>
    </contour>
    <contour>
      <point x="243" y="314" type="curve"/>
      <point x="379" y="314"/>
      <point x="515" y="314"/>
      <point x="651" y="314" type="curve"/>
      <point x="651" y="431"/>
      <point x="651" y="314"/>
      <point x="651" y="431" type="curve"/>
      <point x="515" y="431"/>
      <point x="379" y="431"/>
      <point x="243" y="431" type="curve"/>
      <point x="243" y="314"/>
      <point x="243" y="431"/>
    </contour>
    <contour>
      <point x="223" y="606" type="curve"/>
      <point x="392" y="606"/>
      <point x="561" y="606"/>
      <point x="729" y="606" type="curve"/>
      <point x="729" y="722"/>
      <point x="729" y="606"/>
      <point x="729" y="722" type="curve"/>
      <point x="561" y="722"/>
      <point x="392" y="722"/>
      <point x="223" y="722" type="curve"/>
      <point x="223" y="606"/>
      <point x="223" y="722"/>
    </contour>
    <contour>
      <point x="317" y="0" type="curve"/>
      <point x="317" y="722" type="line"/>
      <point x="158" y="722"/>
      <point x="317" y="722"/>
      <point x="158" y="722" type="curve"/>
      <point x="158" y="481"/>
      <point x="158" y="241"/>
      <point x="158" y="0" type="curve"/>
      <point x="317" y="0"/>
      <point x="158" y="0"/>
    </contour>
    <contour>
      <point x="223" y="0" type="curve"/>
      <point x="406" y="0"/>
      <point x="588" y="0"/>
      <point x="771" y="0" type="curve"/>
      <point x="771" y="116"/>
      <point x="771" y="0"/>
      <point x="771" y="116" type="curve"/>
      <point x="588" y="116"/>
      <point x="406" y="116"/>
      <point x="223" y="116" type="curve"/>
      <point x="223" y="0"/>
      <point x="223" y="116"/>
    </contour>
    <contour>
      <point x="301" y="781" type="line"/>
      <point x="488" y="947" type="line"/>
      <point x="282" y="947" type="line"/>
      <point x="144" y="781" type="line"/>
    </contour>
    <contour>
      <point x="679" y="781" type="line"/>
      <point x="538" y="947" type="line"/>
      <point x="332" y="947" type="line"/>
      <point x="519" y="781" type="line"/>
    </contour>
  </outline>
</glyph>
<glyph name="Ntilde" format="1">
  <advance width="1072"/>
  <unicode hex="00D1"/>
  <outline>
    <contour>
      <point x="208" y="722" type="curve"/>
      <point x="146" y="722"/>
      <point x="110" y="722"/>
      <point x="47" y="722" type="curve"/>
      <point x="47" y="606"/>
      <point x="47" y="722"/>
      <point x="47" y="606" type="curve"/>
      <point x="235" y="606"/>
      <point x="20" y="606"/>
      <point x="208" y="606" type="curve"/>
      <point x="208" y="722"/>
      <point x="208" y="606"/>
    </contour>
    <contour>
      <point x="871" y="606" type="curve"/>
      <point x="1059" y="606"/>
      <point x="844" y="606"/>
      <point x="1032" y="606" type="curve"/>
      <point x="1032" y="722"/>
      <point x="1032" y="606"/>
      <point x="1032" y="722" type="curve"/>
      <point x="969" y="722"/>
      <point x="934" y="722"/>
      <point x="871" y="722" type="curve"/>
      <point x="871" y="606"/>
      <point x="871" y="722"/>
    </contour>
    <contour>
      <point x="889" y="722" type="curve"/>
      <point x="828" y="722"/>
      <point x="792" y="722"/>
      <point x="729" y="722" type="curve"/>
      <point x="729" y="606"/>
      <point x="729" y="722"/>
      <point x="729" y="606" type="curve"/>
      <point x="916" y="606"/>
      <point x="702" y="606"/>
      <point x="889" y="606" type="curve"/>
      <point x="889" y="722"/>
      <point x="889" y="606"/>
    </contour>
    <contour>
      <point x="207" y="116" type="curve"/>
      <point x="19" y="116"/>
      <point x="234" y="116"/>
      <point x="46" y="116" type="curve"/>
      <point x="46" y="0"/>
      <point x="46" y="116"/>
      <point x="46" y="0" type="curve"/>
      <point x="109" y="0"/>
      <point x="144" y="0"/>
      <point x="207" y="0" type="curve"/>
      <point x="207" y="116"/>
      <point x="207" y="0"/>
    </contour>
    <contour>
      <point x="207" y="0" type="curve"/>
      <point x="270" y="0"/>
      <point x="180" y="0"/>
      <point x="367" y="0" type="curve"/>
      <point x="367" y="116"/>
      <point x="367" y="0"/>
      <point x="367" y="116" type="curve"/>
      <point x="180" y="116"/>
      <point x="394" y="116"/>
      <point x="207" y="116" type="curve"/>
      <point x="207" y="0"/>
      <point x="207" y="116"/>
    </contour>
    <contour>
      <point x="963" y="0" type="curve"/>
      <point x="743" y="239"/>
      <point x="527" y="483"/>
      <point x="307" y="722" type="curve"/>
      <point x="114" y="722"/>
      <point x="307" y="722"/>
      <point x="114" y="722" type="curve"/>
      <point x="334" y="483"/>
      <point x="551" y="239"/>
      <point x="771" y="0" type="curve"/>
      <point x="963" y="0"/>
      <point x="771" y="0"/>
    </contour>
    <contour>
      <point x="809" y="722" type="curve"/>
      <point x="809" y="481"/>
      <point x="809" y="241"/>
      <point x="809" y="0" type="curve"/>
      <point x="968" y="0"/>
      <point x="809" y="0"/>
      <point x="968" y="0" type="curve"/>
      <point x="968" y="241"/>
      <point x="968" y="481"/>
      <point x="968" y="722" type="curve"/>
      <point x="809" y="722"/>
      <point x="968" y="722"/>
    </contour>
    <contour>
      <point x="286" y="0" type="curve"/>
      <point x="286" y="241"/>
      <point x="286" y="481"/>
      <point x="286" y="722" type="curve"/>
      <point x="128" y="722"/>
      <point x="286" y="722"/>
      <point x="128" y="722" type="curve"/>
      <point x="128" y="481"/>
      <point x="128" y="241"/>
      <point x="128" y="0" type="curve"/>
      <point x="286" y="0"/>
      <point x="128" y="0"/>
    </contour>
    <contour>
      <point x="704" y="960" type="curve"/>
      <point x="692" y="924"/>
      <point x="672" y="891"/>
      <point x="643" y="891" type="curve"/>
      <point x="608" y="891"/>
      <point x="588" y="901"/>
      <point x="560" y="922" type="curve" smooth="yes"/>
      <point x="516" y="956"/>
      <point x="481" y="969"/>
      <point x="427" y="969" type="curve"/>
      <point x="338" y="969"/>
      <point x="284" y="920"/>
      <point x="247" y="830" type="curve"/>
      <point x="365" y="773"/>
      <point x="249" y="829"/>
      <point x="366" y="773" type="curve"/>
      <point x="384" y="818"/>
      <point x="404" y="844"/>
      <point x="433" y="844" type="curve"/>
      <point x="467" y="844"/>
      <point x="485" y="830"/>
      <point x="511" y="812" type="curve" smooth="yes"/>
      <point x="559" y="776"/>
      <point x="592" y="766"/>
      <point x="648" y="766" type="curve"/>
      <point x="742" y="766"/>
      <point x="795" y="818"/>
      <point x="828" y="906" type="curve"/>
      <point x="705" y="959"/>
      <point x="827" y="905"/>
    </contour>
  </outline>
</glyph>
<glyph name="Otilde" format="1">
  <advance width="976"/>
  <unicode hex="00D5"/>
  <outline>
    <contour>
      <point x="217" y="360" type="curve"/>
      <point x="217" y="516"/>
      <point x="318" y="604"/>
      <point x="481" y="604" type="curve"/>
      <point x="649" y="604"/>
      <point x="760" y="521"/>
      <point x="760" y="363" type="curve"/>
      <point x="760" y="207"/>
      <point x="657" y="119"/>
      <point x="493" y="119" type="curve"/>
      <point x="324" y="119"/>
      <point x="217" y="202"/>
      <point x="217" y="360" type="curve"/>
      <point x="58" y="360"/>
      <point x="217" y="360"/>
      <point x="58" y="360" type="curve"/>
      <point x="58" y="120"/>
      <point x="232" y="-5"/>
      <point x="485" y="-5" type="curve"/>
      <point x="742" y="-5"/>
      <point x="918" y="121"/>
      <point x="918" y="363" type="curve"/>
      <point x="918" y="601"/>
      <point x="746" y="727"/>
      <point x="494" y="727" type="curve"/>
      <point x="236" y="727"/>
      <point x="58" y="602"/>
      <point x="58" y="360" type="curve"/>
      <point x="217" y="360"/>
      <point x="58" y="360"/>
    </contour>
    <contour>
      <point x="661" y="960" type="curve"/>
      <point x="649" y="924"/>
      <point x="629" y="891"/>
      <point x="600" y="891" type="curve"/>
      <point x="565" y="891"/>
      <point x="545" y="901"/>
      <point x="517" y="922" type="curve" smooth="yes"/>
      <point x="473" y="956"/>
      <point x="438" y="969"/>
      <point x="384" y="969" type="curve"/>
      <point x="295" y="969"/>
      <point x="241" y="920"/>
      <point x="204" y="830" type="curve"/>
      <point x="321" y="773"/>
      <point x="206" y="829"/>
      <point x="322" y="773" type="curve"/>
      <point x="341" y="818"/>
      <point x="361" y="844"/>
      <point x="390" y="844" type="curve"/>
      <point x="423" y="844"/>
      <point x="441" y="830"/>
      <point x="467" y="812" type="curve" smooth="yes"/>
      <point x="516" y="776"/>
      <point x="548" y="766"/>
      <point x="605" y="766" type="curve"/>
      <point x="698" y="766"/>
      <point x="752" y="818"/>
      <point x="784" y="906" type="curve"/>
      <point x="662" y="959"/>
      <point x="784" y="905"/>
    </contour>
  </outline>
</glyph>
<glyph name="Udieresis" format="1">
  <advance width="1042"/>
  <unicode hex="00DC"/>
  <outline>
    <contour>
      <point x="834" y="606" type="curve"/>
      <point x="995" y="606"/>
      <point x="834" y="606"/>
      <point x="995" y="606" type="curve"/>
      <point x="995" y="722"/>
      <point x="995" y="606"/>
      <point x="995" y="722" type="curve"/>
      <point x="942" y="722"/>
      <point x="888" y="722"/>
      <point x="834" y="722" type="curve"/>
      <point x="834" y="606"/>
      <point x="834" y="722"/>
    </contour>
    <contour>
      <point x="834" y="722" type="curve"/>
      <point x="780" y="722"/>
      <point x="726" y="722"/>
      <point x="673" y="722" type="curve"/>
      <point x="673" y="606"/>
      <point x="673" y="722"/>
      <point x="673" y="606" type="curve"/>
      <point x="834" y="606"/>
      <point x="673" y="606"/>
      <point x="834" y="606" type="curve"/>
      <point x="834" y="722"/>
      <point x="834" y="606"/>
    </contour>
    <contour>
      <point x="211" y="722" type="curve"/>
      <point x="158" y="722"/>
      <point x="104" y="722"/>
      <point x="51" y="722" type="curve"/>
      <point x="50" y="606"/>
      <point x="51" y="722"/>
      <point x="50" y="606" type="curve"/>
      <point x="211" y="606"/>
      <point x="50" y="606"/>
      <point x="211" y="606" type="curve"/>
      <point x="211" y="722"/>
      <point x="211" y="606"/>
    </contour>
    <contour>
      <point x="211" y="606" type="curve"/>
      <point x="372" y="606"/>
      <point x="211" y="606"/>
      <point x="372" y="606" type="curve"/>
      <point x="372" y="722"/>
      <point x="372" y="606"/>
      <point x="372" y="722" type="curve"/>
      <point x="319" y="722"/>
      <point x="265" y="722"/>
      <point x="211" y="722" type="curve"/>
      <point x="211" y="606"/>
      <point x="211" y="722"/>
    </contour>
    <contour>
      <point x="137" y="672" type="curve"/>
      <point x="137" y="539"/>
      <point x="137" y="415"/>
      <point x="137" y="282" type="curve"/>
      <point x="137" y="69"/>
      <point x="283" y="-5"/>
      <point x="518" y="-5" type="curve"/>
      <point x="757" y="-5"/>
      <point x="906" y="76"/>
      <point x="906" y="295" type="curve"/>
      <point x="906" y="424"/>
      <point x="906" y="544"/>
      <point x="906" y="672" type="curve"/>
      <point x="761" y="672"/>
      <point x="906" y="672"/>
      <point x="761" y="672" type="curve"/>
      <point x="761" y="536"/>
      <point x="761" y="418"/>
      <point x="761" y="282" type="curve"/>
      <point x="761" y="162"/>
      <point x="668" y="123"/>
      <point x="532" y="123" type="curve"/>
      <point x="380" y="123"/>
      <point x="281" y="166"/>
      <point x="281" y="303" type="curve"/>
      <point x="281" y="428"/>
      <point x="281" y="547"/>
      <point x="281" y="672" type="curve"/>
      <point x="137" y="672"/>
      <point x="281" y="672"/>
    </contour>
    <contour>
      <point x="497" y="851" type="curve"/>
      <point x="497" y="903"/>
      <point x="457" y="927"/>
      <point x="403" y="927" type="curve"/>
      <point x="349" y="927"/>
      <point x="312" y="900"/>
      <point x="312" y="851" type="curve"/>
      <point x="497" y="851"/>
      <point x="312" y="851"/>
      <point x="497" y="851" type="curve"/>
      <point x="497" y="799"/>
      <point x="457" y="777"/>
      <point x="402" y="777" type="curve"/>
      <point x="348" y="777"/>
      <point x="312" y="802"/>
      <point x="312" y="851" type="curve"/>
      <point x="497" y="851"/>
      <point x="312" y="851"/>
    </contour>
    <contour>
      <point x="734" y="851" type="curve"/>
      <point x="734" y="903"/>
      <point x="693" y="927"/>
      <point x="640" y="927" type="curve"/>
      <point x="586" y="927"/>
      <point x="549" y="900"/>
      <point x="549" y="851" type="curve"/>
      <point x="734" y="851"/>
      <point x="549" y="851"/>
      <point x="734" y="851" type="curve"/>
      <point x="734" y="799"/>
      <point x="694" y="777"/>
      <point x="639" y="777" type="curve"/>
      <point x="585" y="777"/>
      <point x="549" y="802"/>
      <point x="549" y="851" type="curve"/>
      <point x="734" y="851"/>
      <point x="549" y="851"/>
    </contour>
  </outline>
</glyph>
<glyph name="atilde" format="1">
  <advance width="742"/>
  <unicode hex="00E3"/>
  <outline>
    <contour>
      <point x="78" y="462" type="curve"/>
      <point x="78" y="343"/>
      <point x="78" y="456"/>
      <point x="78" y="336" type="curve"/>
      <point x="200" y="336"/>
      <point x="78" y="336"/>
      <point x="200" y="336" type="curve"/>
      <point x="200" y="456"/>
      <point x="200" y="343"/>
      <point x="200" y="462" type="curve"/>
      <point x="78" y="462"/>
      <point x="200" y="462"/>
    </contour>
    <contour>
      <point x="634" y="0" type="curve"/>
      <point x="634" y="123"/>
      <point x="634" y="239"/>
      <point x="634" y="362" type="curve"/>
      <point x="634" y="507"/>
      <point x="508" y="538"/>
      <point x="353" y="538" type="curve"/>
      <point x="237" y="538"/>
      <point x="150" y="508"/>
      <point x="78" y="462" type="curve"/>
      <point x="137" y="364"/>
      <point x="87" y="457"/>
      <point x="146" y="358" type="curve"/>
      <point x="197" y="389"/>
      <point x="248" y="421"/>
      <point x="331" y="421" type="curve"/>
      <point x="407" y="421"/>
      <point x="476" y="414"/>
      <point x="476" y="336" type="curve"/>
      <point x="476" y="223"/>
      <point x="476" y="112"/>
      <point x="476" y="0" type="curve"/>
      <point x="634" y="0"/>
      <point x="476" y="0"/>
    </contour>
    <contour>
      <point x="558" y="0" type="curve"/>
      <point x="607" y="0"/>
      <point x="656" y="0"/>
      <point x="706" y="0" type="curve"/>
      <point x="706" y="116"/>
      <point x="706" y="0"/>
      <point x="706" y="116" type="curve"/>
      <point x="558" y="116"/>
      <point x="706" y="116"/>
      <point x="558" y="116" type="curve"/>
      <point x="558" y="0"/>
      <point x="558" y="116"/>
    </contour>
    <contour>
      <point x="551" y="342" type="curve"/>
      <point x="454" y="333"/>
      <point x="396" y="330"/>
      <point x="299" y="321" type="curve"/>
      <point x="160" y="308"/>
      <point x="49" y="289"/>
      <point x="49" y="161" type="curve"/>
      <point x="49" y="39"/>
      <point x="144" y="-5"/>
      <point x="279" y="-5" type="curve"/>
      <point x="417" y="-5"/>
      <point x="514" y="55"/>
      <point x="589" y="153" type="curve"/>
      <point x="514" y="213"/>
      <point x="589" y="153"/>
      <point x="514" y="213" type="curve"/>
      <point x="477" y="154"/>
      <point x="389" y="110"/>
      <point x="303" y="110" type="curve"/>
      <point x="247" y="110"/>
      <point x="205" y="121"/>
      <point x="205" y="161" type="curve"/>
      <point x="205" y="204"/>
      <point x="248" y="211"/>
      <point x="293" y="215" type="curve"/>
      <point x="396" y="224"/>
      <point x="455" y="232"/>
      <point x="558" y="242" type="curve"/>
      <point x="551" y="342"/>
      <point x="558" y="242"/>
    </contour>
    <contour>
      <point x="519" y="790" type="curve"/>
      <point x="508" y="754"/>
      <point x="488" y="721"/>
      <point x="458" y="721" type="curve"/>
      <point x="423" y="721"/>
      <point x="403" y="731"/>
      <point x="375" y="752" type="curve" smooth="yes"/>
      <point x="331" y="786"/>
      <point x="297" y="799"/>
      <point x="243" y="799" type="curve"/>
      <point x="154" y="799"/>
      <point x="100" y="750"/>
      <point x="63" y="660" type="curve"/>
      <point x="180" y="603"/>
      <point x="64" y="659"/>
      <point x="181" y="603" type="curve"/>
      <point x="199" y="648"/>
      <point x="220" y="674"/>
      <point x="249" y="674" type="curve"/>
      <point x="282" y="674"/>
      <point x="300" y="660"/>
      <point x="326" y="642" type="curve" smooth="yes"/>
      <point x="375" y="606"/>
      <point x="407" y="596"/>
      <point x="464" y="596" type="curve"/>
      <point x="557" y="596"/>
      <point x="611" y="648"/>
      <point x="643" y="736" type="curve"/>
      <point x="520" y="789"/>
      <point x="642" y="735"/>
    </contour>
  </outline>
</glyph>
<glyph name="ccedilla" format="1">
  <advance width="691"/>
  <unicode hex="00E7"/>
  <outline>
    <contour>
      <point x="521" y="469" type="curve"/>
      <point x="521" y="309"/>
      <point x="521" y="469"/>
      <point x="521" y="309" type="curve"/>
      <point x="643" y="309"/>
      <point x="521" y="309"/>
      <point x="643" y="309" type="curve"/>
      <point x="643" y="469"/>
      <point x="643" y="309"/>
      <point x="643" y="469" type="curve"/>
      <point x="521" y="469"/>
      <point x="643" y="469"/>
    </contour>
    <contour>
      <point x="643" y="469" type="curve"/>
      <point x="574" y="511"/>
      <point x="487" y="538"/>
      <point x="403" y="538" type="curve"/>
      <point x="195" y="538"/>
      <point x="45" y="463"/>
      <point x="45" y="267" type="curve"/>
      <point x="45" y="73"/>
      <point x="191" y="-5"/>
      <point x="398" y="-5" type="curve"/>
      <point x="492" y="-5"/>
      <point x="584" y="20"/>
      <point x="640" y="71" type="curve"/>
      <point x="554" y="167"/>
      <point x="640" y="71"/>
      <point x="554" y="167" type="curve"/>
      <point x="511" y="133"/>
      <point x="459" y="116"/>
      <point x="405" y="116" type="curve"/>
      <point x="288" y="116"/>
      <point x="204" y="157"/>
      <point x="204" y="267" type="curve"/>
      <point x="204" y="375"/>
      <point x="284" y="417"/>
      <point x="399" y="417" type="curve"/>
      <point x="451" y="417"/>
      <point x="505" y="411"/>
      <point x="549" y="388" type="curve"/>
      <point x="643" y="469"/>
      <point x="549" y="388"/>
    </contour>
    <contour>
      <point x="301" y="93" type="curve"/>
      <point x="284" y="72"/>
      <point x="205" y="-34"/>
      <point x="188" y="-55" type="curve"/>
      <point x="296" y="-149"/>
      <point x="188" y="-55"/>
      <point x="296" y="-149" type="curve"/>
      <point x="317" y="-123"/>
      <point x="403" y="-14"/>
      <point x="423" y="12" type="curve"/>
      <point x="301" y="93"/>
      <point x="423" y="12"/>
    </contour>
    <contour>
      <point x="296" y="-149" type="curve"/>
      <point x="300" y="-145"/>
      <point x="304" y="-143"/>
      <point x="309" y="-143" type="curve"/>
      <point x="317" y="-143"/>
      <point x="324" y="-145"/>
      <point x="324" y="-153" type="curve"/>
      <point x="324" y="-165"/>
      <point x="311" y="-168"/>
      <point x="297" y="-168" type="curve"/>
      <point x="271" y="-168"/>
      <point x="249" y="-159"/>
      <point x="212" y="-146" type="curve"/>
      <point x="168" y="-235"/>
      <point x="212" y="-146"/>
      <point x="168" y="-235" type="curve"/>
      <point x="211" y="-252"/>
      <point x="244" y="-263"/>
      <point x="290" y="-263" type="curve"/>
      <point x="390" y="-263"/>
      <point x="469" y="-236"/>
      <point x="469" y="-148" type="curve"/>
      <point x="469" y="-68"/>
      <point x="404" y="-31"/>
      <point x="318" y="-31" type="curve"/>
      <point x="269" y="-31"/>
      <point x="235" y="-40"/>
      <point x="188" y="-55" type="curve"/>
      <point x="296" y="-149"/>
      <point x="188" y="-55"/>
    </contour>
  </outline>
</glyph>
<glyph name="igrave" format="1">
  <advance width="390"/>
  <unicode hex="00EC"/>
  <outline>
    <contour>
      <point x="199" y="116" type="curve"/>
      <point x="37" y="116"/>
      <point x="199" y="116"/>
      <point x="37" y="116" type="curve"/>
      <point x="37" y="0"/>
      <point x="37" y="116"/>
      <point x="37" y="0" type="curve"/>
      <point x="91" y="0"/>
      <point x="146" y="0"/>
      <point x="199" y="0" type="curve"/>
      <point x="199" y="116"/>
      <point x="199" y="0"/>
    </contour>
    <contour>
      <point x="199" y="0" type="curve"/>
      <point x="252" y="0"/>
      <point x="305" y="0"/>
      <point x="357" y="0" type="curve"/>
      <point x="357" y="116"/>
      <point x="357" y="0"/>
      <point x="357" y="116" type="curve"/>
      <point x="199" y="116"/>
      <point x="357" y="116"/>
      <point x="199" y="116" type="curve"/>
      <point x="199" y="0"/>
      <point x="199" y="116"/>
    </contour>
    <contour>
      <point x="199" y="533" type="curve"/>
      <point x="146" y="533"/>
      <point x="91" y="533"/>
      <point x="37" y="533" type="curve"/>
      <point x="37" y="417"/>
      <point x="37" y="533"/>
      <point x="37" y="417" type="curve"/>
      <point x="199" y="417"/>
      <point x="37" y="417"/>
      <point x="199" y="417" type="curve"/>
      <point x="199" y="533"/>
      <point x="199" y="417"/>
    </contour>
    <contour>
      <point x="283" y="0" type="curve"/>
      <point x="283" y="178"/>
      <point x="283" y="355"/>
      <point x="283" y="533" type="curve"/>
      <point x="117" y="533"/>
      <point x="283" y="533"/>
      <point x="117" y="533" type="curve"/>
      <point x="117" y="355"/>
      <point x="117" y="178"/>
      <point x="117" y="0" type="curve"/>
      <point x="283" y="0"/>
      <point x="117" y="0"/>
    </contour>
    <contour>
      <point x="292" y="609" type="line"/>
      <point x="151" y="775" type="line"/>
      <point x="-55" y="775" type="line"/>
      <point x="132" y="609" type="line"/>
    </contour>
  </outline>
</glyph>
<glyph name="iacute" format="1">
  <advance width="374"/>
  <unicode hex="00ED"/>
  <outline>
    <contour>
      <point x="188" y="116" type="curve"/>
      <point x="27" y="116"/>
      <point x="188" y="116"/>
      <point x="27" y="116" type="curve"/>
      <point x="27" y="0"/>
      <point x="27" y="116"/>
      <point x="27" y="0" type="curve"/>
      <point x="81" y="0"/>
      <point x="135" y="0"/>
      <point x="188" y="0" type="curve"/>
      <point x="188" y="116"/>
      <point x="188" y="0"/>
    </contour>
    <contour>
      <point x="188" y="0" type="curve"/>
      <point x="241" y="0"/>
      <point x="294" y="0"/>
      <point x="346" y="0" type="curve"/>
      <point x="346" y="116"/>
      <point x="346" y="0"/>
      <point x="346" y="116" type="curve"/>
      <point x="188" y="116"/>
      <point x="346" y="116"/>
      <point x="188" y="116" type="curve"/>
      <point x="188" y="0"/>
      <point x="188" y="116"/>
    </contour>
    <contour>
      <point x="188" y="533" type="curve"/>
      <point x="135" y="533"/>
      <point x="81" y="533"/>
      <point x="27" y="533" type="curve"/>
      <point x="27" y="417"/>
      <point x="27" y="533"/>
      <point x="27" y="417" type="curve"/>
      <point x="188" y="417"/>
      <point x="27" y="417"/>
      <point x="188" y="417" type="curve"/>
      <point x="188" y="533"/>
      <point x="188" y="417"/>
    </contour>
    <contour>
      <point x="272" y="0" type="curve"/>
      <point x="272" y="178"/>
      <point x="272" y="355"/>
      <point x="272" y="533" type="curve"/>
      <point x="106" y="533"/>
      <point x="272" y="533"/>
      <point x="106" y="533" type="curve"/>
      <point x="106" y="355"/>
      <point x="106" y="178"/>
      <point x="106" y="0" type="curve"/>
      <point x="272" y="0"/>
      <point x="106" y="0"/>
    </contour>
    <contour>
      <point x="254" y="609" type="line"/>
      <point x="441" y="775" type="line"/>
      <point x="236" y="775" type="line"/>
      <point x="98" y="609" type="line"/>
    </contour>
  </outline>
</glyph>
<glyph name="icircumflex" format="1">
  <advance width="404"/>
  <unicode hex="00EE"/>
  <outline>
    <contour>
      <point x="204" y="116" type="curve"/>
      <point x="42" y="116"/>
      <point x="204" y="116"/>
      <point x="42" y="116" type="curve"/>
      <point x="42" y="0"/>
      <point x="42" y="116"/>
      <point x="42" y="0" type="curve"/>
      <point x="96" y="0"/>
      <point x="150" y="0"/>
      <point x="204" y="0" type="curve"/>
      <point x="204" y="116"/>
      <point x="204" y="0"/>
    </contour>
    <contour>
      <point x="204" y="0" type="curve"/>
      <point x="256" y="0"/>
      <point x="309" y="0"/>
      <point x="361" y="0" type="curve"/>
      <point x="361" y="116"/>
      <point x="361" y="0"/>
      <point x="361" y="116" type="curve"/>
      <point x="204" y="116"/>
      <point x="361" y="116"/>
      <point x="204" y="116" type="curve"/>
      <point x="204" y="0"/>
      <point x="204" y="116"/>
    </contour>
    <contour>
      <point x="204" y="533" type="curve"/>
      <point x="150" y="533"/>
      <point x="96" y="533"/>
      <point x="42" y="533" type="curve"/>
      <point x="42" y="417"/>
      <point x="42" y="533"/>
      <point x="42" y="417" type="curve"/>
      <point x="204" y="417"/>
      <point x="42" y="417"/>
      <point x="204" y="417" type="curve"/>
      <point x="204" y="533"/>
      <point x="204" y="417"/>
    </contour>
    <contour>
      <point x="288" y="0" type="curve"/>
      <point x="288" y="178"/>
      <point x="288" y="355"/>
      <point x="288" y="533" type="curve"/>
      <point x="121" y="533"/>
      <point x="288" y="533"/>
      <point x="121" y="533" type="curve"/>
      <point x="121" y="355"/>
      <point x="121" y="178"/>
      <point x="121" y="0" type="curve"/>
      <point x="288" y="0"/>
      <point x="121" y="0"/>
    </contour>
    <contour>
      <point x="96" y="611" type="line"/>
      <point x="283" y="777" type="line"/>
      <point x="77" y="777" type="line"/>
      <point x="-61" y="611" type="line"/>
    </contour>
    <contour>
      <point x="474" y="611" type="line"/>
      <point x="332" y="777" type="line"/>
      <point x="127" y="777" type="line"/>
      <point x="314" y="611" type="line"/>
    </contour>
  </outline>
</glyph>
<glyph name="eth" format="1">
  <advance width="752"/>
  <unicode hex="00F0"/>
  <outline>
    <contour>
      <point x="138" y="542" type="curve"/>
      <point x="224" y="628"/>
      <point x="294" y="696"/>
      <point x="380" y="783" type="curve"/>
      <point x="469" y="694"/>
      <point x="360" y="803"/>
      <point x="449" y="714" type="curve"/>
      <point x="362" y="628"/>
      <point x="293" y="559"/>
      <point x="207" y="473" type="curve"/>
      <point x="118" y="562"/>
      <point x="227" y="453"/>
    </contour>
    <contour>
      <point x="576" y="232" type="curve"/>
      <point x="527" y="313"/>
      <point x="461" y="338"/>
      <point x="367" y="338" type="curve"/>
      <point x="272" y="338"/>
      <point x="198" y="313"/>
      <point x="198" y="228" type="curve"/>
      <point x="198" y="153"/>
      <point x="267" y="133"/>
      <point x="352" y="133" type="curve"/>
      <point x="466" y="133"/>
      <point x="552" y="166"/>
      <point x="552" y="268" type="curve"/>
      <point x="552" y="500"/>
      <point x="335" y="556"/>
      <point x="78" y="612" type="curve"/>
      <point x="114" y="735"/>
      <point x="77" y="612"/>
      <point x="113" y="735" type="curve"/>
      <point x="431" y="684"/>
      <point x="704" y="573"/>
      <point x="704" y="262" type="curve"/>
      <point x="704" y="78"/>
      <point x="558" y="-5"/>
      <point x="359" y="-5" type="curve"/>
      <point x="175" y="-5"/>
      <point x="40" y="67"/>
      <point x="40" y="234" type="curve"/>
      <point x="40" y="396"/>
      <point x="174" y="461"/>
      <point x="352" y="461" type="curve"/>
      <point x="502" y="461"/>
      <point x="591" y="400"/>
      <point x="652" y="272" type="curve"/>
      <point x="576" y="232"/>
      <point x="652" y="272"/>
    </contour>
  </outline>
</glyph>
<glyph name="odieresis" format="1">
  <advance width="768"/>
  <unicode hex="00F6"/>
  <outline>
    <contour>
      <point x="203" y="268" type="curve"/>
      <point x="203" y="365"/>
      <point x="270" y="421"/>
      <point x="377" y="421" type="curve"/>
      <point x="490" y="421"/>
      <point x="564" y="366"/>
      <point x="564" y="266" type="curve"/>
      <point x="564" y="162"/>
      <point x="492" y="112"/>
      <point x="388" y="112" type="curve"/>
      <point x="278" y="112"/>
      <point x="203" y="162"/>
      <point x="203" y="268" type="curve"/>
      <point x="58" y="268"/>
      <point x="190" y="268"/>
      <point x="45" y="268" type="curve"/>
      <point x="45" y="81"/>
      <point x="185" y="-5"/>
      <point x="380" y="-5" type="curve"/>
      <point x="579" y="-5"/>
      <point x="723" y="77"/>
      <point x="723" y="266" type="curve"/>
      <point x="723" y="446"/>
      <point x="585" y="538"/>
      <point x="384" y="538" type="curve"/>
      <point x="184" y="538"/>
      <point x="45" y="446"/>
      <point x="45" y="268" type="curve"/>
      <point x="190" y="268"/>
      <point x="58" y="268"/>
    </contour>
    <contour>
      <point x="357" y="681" type="curve"/>
      <point x="357" y="733"/>
      <point x="317" y="757"/>
      <point x="264" y="757" type="curve"/>
      <point x="210" y="757"/>
      <point x="173" y="730"/>
      <point x="173" y="681" type="curve"/>
      <point x="357" y="681"/>
      <point x="173" y="681"/>
      <point x="357" y="681" type="curve"/>
      <point x="357" y="629"/>
      <point x="317" y="607"/>
      <point x="263" y="607" type="curve"/>
      <point x="209" y="607"/>
      <point x="173" y="632"/>
      <point x="173" y="681" type="curve"/>
      <point x="357" y="681"/>
      <point x="173" y="681"/>
    </contour>
    <contour>
      <point x="594" y="681" type="curve"/>
      <point x="594" y="733"/>
      <point x="554" y="757"/>
      <point x="500" y="757" type="curve"/>
      <point x="447" y="757"/>
      <point x="409" y="730"/>
      <point x="409" y="681" type="curve"/>
      <point x="594" y="681"/>
      <point x="409" y="681"/>
      <point x="594" y="681" type="curve"/>
      <point x="594" y="629"/>
      <point x="554" y="607"/>
      <point x="500" y="607" type="curve"/>
      <point x="446" y="607"/>
      <point x="409" y="632"/>
      <point x="409" y="681" type="curve"/>
      <point x="594" y="681"/>
      <point x="409" y="681"/>
    </contour>
  </outline>
</glyph>
<glyph name="aogonek" format="1">
  <advance width="742"/>
  <unicode hex="0105"/>
  <outline>
    <contour>
      <point x="78" y="462" type="curve"/>
      <point x="78" y="343"/>
      <point x="78" y="456"/>
      <point x="78" y="336" type="curve"/>
      <point x="200" y="336"/>
      <point x="78" y="336"/>
      <point x="200" y="336" type="curve"/>
      <point x="200" y="456"/>
      <point x="200" y="343"/>
      <point x="200" y="462" type="curve"/>
      <point x="78" y="462"/>
      <point x="200" y="462"/>
    </contour>
    <contour>
      <point x="634" y="0" type="curve"/>
      <point x="634" y="123"/>
      <point x="634" y="239"/>
      <point x="634" y="362" type="curve"/>
      <point x="634" y="507"/>
      <point x="508" y="538"/>
      <point x="353" y="538" type="curve"/>
      <point x="237" y="538"/>
      <point x="150" y="508"/>
      <point x="78" y="462" type="curve"/>
      <point x="137" y="364"/>
      <point x="87" y="457"/>
      <point x="146" y="358" type="curve"/>
      <point x="197" y="389"/>
      <point x="248" y="421"/>
      <point x="331" y="421" type="curve"/>
      <point x="407" y="421"/>
      <point x="476" y="414"/>
      <point x="476" y="336" type="curve"/>
      <point x="476" y="223"/>
      <point x="476" y="112"/>
      <point x="476" y="0" type="curve"/>
      <point x="634" y="0"/>
      <point x="476" y="0"/>
    </contour>
    <contour>
      <point x="558" y="0" type="curve"/>
      <point x="607" y="0"/>
      <point x="656" y="0"/>
      <point x="706" y="0" type="curve"/>
      <point x="706" y="116"/>
      <point x="706" y="0"/>
      <point x="706" y="116" type="curve"/>
      <point x="558" y="116"/>
      <point x="706" y="116"/>
      <point x="558" y="116" type="curve"/>
      <point x="558" y="0"/>
      <point x="558" y="116"/>
    </contour>
    <contour>
      <point x="551" y="342" type="curve"/>
      <point x="454" y="333"/>
      <point x="396" y="330"/>
      <point x="299" y="321" type="curve"/>
      <point x="160" y="308"/>
      <point x="49" y="289"/>
      <point x="49" y="161" type="curve"/>
      <point x="49" y="39"/>
      <point x="144" y="-5"/>
      <point x="279" y="-5" type="curve"/>
      <point x="417" y="-5"/>
      <point x="514" y="55"/>
      <point x="589" y="153" type="curve"/>
      <point x="514" y="213"/>
      <point x="589" y="153"/>
      <point x="514" y="213" type="curve"/>
      <point x="477" y="154"/>
      <point x="389" y="110"/>
      <point x="303" y="110" type="curve"/>
      <point x="247" y="110"/>
      <point x="205" y="121"/>
      <point x="205" y="161" type="curve"/>
      <point x="205" y="204"/>
      <point x="248" y="211"/>
      <point x="293" y="215" type="curve"/>
      <point x="396" y="224"/>
      <point x="455" y="232"/>
      <point x="558" y="242" type="curve"/>
      <point x="551" y="342"/>
      <point x="558" y="242"/>
    </contour>
    <contour>
      <point x="572" y="90" type="curve"/>
      <point x="483" y="60"/>
      <point x="400" y="44"/>
      <point x="400" y="-44" type="curve"/>
      <point x="400" y="-132"/>
      <point x="470" y="-174"/>
      <point x="565" y="-174" type="curve"/>
      <point x="616" y="-174"/>
      <point x="650" y="-161"/>
      <point x="696" y="-141" type="curve"/>
      <point x="624" y="-48"/>
      <point x="696" y="-141"/>
      <point x="624" y="-48" type="curve"/>
      <point x="607" y="-55"/>
      <point x="597" y="-62"/>
      <point x="579" y="-62" type="curve"/>
      <point x="562" y="-62"/>
      <point x="549" y="-56"/>
      <point x="549" y="-40" type="curve"/>
      <point x="549" y="-9"/>
      <point x="592" y="-7"/>
      <point x="630" y="8" type="curve"/>
      <point x="572" y="90"/>
      <point x="630" y="8"/>
    </contour>
  </outline>
</glyph>
<glyph name="edotaccent" format="1">
  <advance width="720"/>
  <unicode hex="0117"/>
  <outline>
    <contour>
      <point x="127" y="222" type="curve"/>
      <point x="289" y="222"/>
      <point x="452" y="222"/>
      <point x="614" y="222" type="curve"/>
      <point x="679" y="222"/>
      <point x="614" y="222"/>
      <point x="679" y="222" type="curve"/>
      <point x="679" y="260"/>
      <point x="679" y="222"/>
      <point x="679" y="260" type="curve"/>
      <point x="679" y="266"/>
      <point x="679" y="271"/>
      <point x="679" y="277" type="curve"/>
      <point x="679" y="460"/>
      <point x="556" y="537"/>
      <point x="374" y="537" type="curve"/>
      <point x="180" y="537"/>
      <point x="46" y="462"/>
      <point x="46" y="278" type="curve"/>
      <point x="46" y="77"/>
      <point x="192" y="-5"/>
      <point x="402" y="-5" type="curve"/>
      <point x="503" y="-5"/>
      <point x="569" y="16"/>
      <point x="643" y="64" type="curve"/>
      <point x="571" y="158"/>
      <point x="643" y="64"/>
      <point x="571" y="158" type="curve"/>
      <point x="517" y="127"/>
      <point x="459" y="112"/>
      <point x="397" y="112" type="curve"/>
      <point x="278" y="112"/>
      <point x="198" y="163"/>
      <point x="198" y="278" type="curve"/>
      <point x="198" y="375"/>
      <point x="263" y="420"/>
      <point x="367" y="420" type="curve"/>
      <point x="461" y="420"/>
      <point x="528" y="391"/>
      <point x="528" y="303" type="curve"/>
      <point x="528" y="293"/>
      <point x="528" y="284"/>
      <point x="528" y="274" type="curve"/>
      <point x="543" y="284"/>
      <point x="555" y="300"/>
      <point x="570" y="309" type="curve"/>
      <point x="585" y="319"/>
      <point x="599" y="320"/>
      <point x="614" y="329" type="curve"/>
      <point x="452" y="329"/>
      <point x="289" y="329"/>
      <point x="127" y="329" type="curve"/>
      <point x="127" y="213"/>
      <point x="127" y="339"/>
    </contour>
    <contour>
      <point x="463" y="683" type="curve"/>
      <point x="463" y="734"/>
      <point x="423" y="758"/>
      <point x="369" y="758" type="curve"/>
      <point x="315" y="758"/>
      <point x="278" y="731"/>
      <point x="278" y="683" type="curve"/>
      <point x="463" y="683"/>
      <point x="278" y="683"/>
      <point x="463" y="683" type="curve"/>
      <point x="463" y="630"/>
      <point x="423" y="608"/>
      <point x="368" y="608" type="curve"/>
      <point x="314" y="608"/>
      <point x="278" y="633"/>
      <point x="278" y="683" type="curve"/>
      <point x="463" y="683"/>
      <point x="278" y="683"/>
    </contour>
  </outline>
</glyph>
<glyph name="Eogonek" format="1">
  <advance width="817"/>
  <unicode hex="0118"/>
  <outline>
    <contour>
      <point x="771" y="58" type="curve"/>
      <point x="771" y="178"/>
      <point x="771" y="58"/>
      <point x="771" y="178" type="curve"/>
      <point x="649" y="178"/>
      <point x="771" y="178"/>
      <point x="649" y="178" type="curve"/>
      <point x="649" y="58"/>
      <point x="649" y="178"/>
      <point x="649" y="58" type="curve"/>
      <point x="771" y="58"/>
      <point x="649" y="58"/>
    </contour>
    <contour>
      <point x="607" y="664" type="curve"/>
      <point x="607" y="544"/>
      <point x="607" y="664"/>
      <point x="607" y="544" type="curve"/>
      <point x="729" y="544"/>
      <point x="607" y="544"/>
      <point x="729" y="544" type="curve"/>
      <point x="729" y="664"/>
      <point x="729" y="544"/>
      <point x="729" y="664" type="curve"/>
      <point x="607" y="664"/>
      <point x="729" y="664"/>
    </contour>
    <contour>
      <point x="239" y="116" type="curve"/>
      <point x="77" y="116"/>
      <point x="239" y="116"/>
      <point x="77" y="116" type="curve"/>
      <point x="77" y="0"/>
      <point x="77" y="116"/>
      <point x="77" y="0" type="curve"/>
      <point x="131" y="0"/>
      <point x="185" y="0"/>
      <point x="239" y="0" type="curve"/>
      <point x="239" y="116"/>
      <point x="239" y="0"/>
    </contour>
    <contour>
      <point x="239" y="722" type="curve"/>
      <point x="185" y="722"/>
      <point x="131" y="722"/>
      <point x="77" y="722" type="curve"/>
      <point x="77" y="606"/>
      <point x="77" y="722"/>
      <point x="77" y="606" type="curve"/>
      <point x="239" y="606"/>
      <point x="77" y="606"/>
      <point x="239" y="606" type="curve"/>
      <point x="239" y="722"/>
      <point x="239" y="606"/>
    </contour>
    <contour>
      <point x="243" y="314" type="curve"/>
      <point x="379" y="314"/>
      <point x="515" y="314"/>
      <point x="651" y="314" type="curve"/>
      <point x="651" y="431"/>
      <point x="651" y="314"/>
      <point x="651" y="431" type="curve"/>
      <point x="515" y="431"/>
      <point x="379" y="431"/>
      <point x="243" y="431" type="curve"/>
      <point x="243" y="314"/>
      <point x="243" y="431"/>
    </contour>
    <contour>
      <point x="223" y="606" type="curve"/>
      <point x="392" y="606"/>
      <point x="561" y="606"/>
      <point x="729" y="606" type="curve"/>
      <point x="729" y="722"/>
      <point x="729" y="606"/>
      <point x="729" y="722" type="curve"/>
      <point x="561" y="722"/>
      <point x="392" y="722"/>
      <point x="223" y="722" type="curve"/>
      <point x="223" y="606"/>
      <point x="223" y="722"/>
    </contour>
    <contour>
      <point x="317" y="0" type="curve"/>
      <point x="317" y="722" type="line"/>
      <point x="158" y="722"/>
      <point x="317" y="722"/>
      <point x="158" y="722" type="curve"/>
      <point x="158" y="481"/>
      <point x="158" y="241"/>
      <point x="158" y="0" type="curve"/>
      <point x="317" y="0"/>
      <point x="158" y="0"/>
    </contour>
    <contour>
      <point x="223" y="0" type="curve"/>
      <point x="406" y="0"/>
      <point x="588" y="0"/>
      <point x="771" y="0" type="curve"/>
      <point x="771" y="116"/>
      <point x="771" y="0"/>
      <point x="771" y="116" type="curve"/>
      <point x="588" y="116"/>
      <point x="406" y="116"/>
      <point x="223" y="116" type="curve"/>
      <point x="223" y="0"/>
      <point x="223" y="116"/>
    </contour>
    <contour>
      <point x="671" y="93" type="curve"/>
      <point x="583" y="63"/>
      <point x="499" y="47"/>
      <point x="499" y="-41" type="curve"/>
      <point x="499" y="-129"/>
      <point x="569" y="-171"/>
      <point x="664" y="-171" type="curve"/>
      <point x="715" y="-171"/>
      <point x="749" y="-158"/>
      <point x="795" y="-138" type="curve"/>
      <point x="723" y="-46"/>
      <point x="795" y="-138"/>
      <point x="723" y="-46" type="curve"/>
      <point x="706" y="-52"/>
      <point x="696" y="-59"/>
      <point x="678" y="-59" type="curve"/>
      <point x="661" y="-59"/>
      <point x="648" y="-53"/>
      <point x="648" y="-38" type="curve"/>
      <point x="648" y="-6"/>
      <point x="691" y="-4"/>
      <point x="729" y="11" type="curve"/>
      <point x="671" y="93"/>
      <point x="729" y="11"/>
    </contour>
  </outline>
</glyph>
<glyph name="eogonek" format="1">
  <advance width="720"/>
  <unicode hex="0119"/>
  <outline>
    <contour>
      <point x="127" y="222" type="curve"/>
      <point x="289" y="222"/>
      <point x="452" y="222"/>
      <point x="614" y="222" type="curve"/>
      <point x="679" y="222"/>
      <point x="614" y="222"/>
      <point x="679" y="222" type="curve"/>
      <point x="679" y="260"/>
      <point x="679" y="222"/>
      <point x="679" y="260" type="curve"/>
      <point x="679" y="266"/>
      <point x="679" y="271"/>
      <point x="679" y="277" type="curve"/>
      <point x="679" y="460"/>
      <point x="556" y="537"/>
      <point x="374" y="537" type="curve"/>
      <point x="180" y="537"/>
      <point x="46" y="462"/>
      <point x="46" y="278" type="curve"/>
      <point x="46" y="77"/>
      <point x="192" y="-5"/>
      <point x="402" y="-5" type="curve"/>
      <point x="503" y="-5"/>
      <point x="569" y="16"/>
      <point x="643" y="64" type="curve"/>
      <point x="571" y="158"/>
      <point x="643" y="64"/>
      <point x="571" y="158" type="curve"/>
      <point x="517" y="127"/>
      <point x="459" y="112"/>
      <point x="397" y="112" type="curve"/>
      <point x="278" y="112"/>
      <point x="198" y="163"/>
      <point x="198" y="278" type="curve"/>
      <point x="198" y="375"/>
      <point x="263" y="420"/>
      <point x="367" y="420" type="curve"/>
      <point x="461" y="420"/>
      <point x="528" y="391"/>
      <point x="528" y="303" type="curve"/>
      <point x="528" y="293"/>
      <point x="528" y="284"/>
      <point x="528" y="274" type="curve"/>
      <point x="543" y="284"/>
      <point x="555" y="300"/>
      <point x="570" y="309" type="curve"/>
      <point x="585" y="319"/>
      <point x="599" y="320"/>
      <point x="614" y="329" type="curve"/>
      <point x="452" y="329"/>
      <point x="289" y="329"/>
      <point x="127" y="329" type="curve"/>
      <point x="127" y="213"/>
      <point x="127" y="339"/>
    </contour>
    <contour>
      <point x="466" y="102" type="curve"/>
      <point x="378" y="72"/>
      <point x="294" y="56"/>
      <point x="294" y="-32" type="curve"/>
      <point x="294" y="-120"/>
      <point x="364" y="-162"/>
      <point x="459" y="-162" type="curve"/>
      <point x="510" y="-162"/>
      <point x="544" y="-149"/>
      <point x="590" y="-129" type="curve"/>
      <point x="518" y="-36"/>
      <point x="590" y="-129"/>
      <point x="518" y="-36" type="curve"/>
      <point x="501" y="-43"/>
      <point x="491" y="-50"/>
      <point x="473" y="-50" type="curve"/>
      <point x="456" y="-50"/>
      <point x="443" y="-44"/>
      <point x="443" y="-29" type="curve"/>
      <point x="443" y="3"/>
      <point x="487" y="5"/>
      <point x="524" y="20" type="curve"/>
      <point x="466" y="102"/>
      <point x="524" y="20"/>
    </contour>
  </outline>
</glyph>
<glyph name="Gbreve" format="1">
  <advance width="1002"/>
  <unicode hex="011E"/>
  <outline>
    <contour>
      <point x="787" y="646" type="curve"/>
      <point x="787" y="524"/>
      <point x="787" y="610"/>
      <point x="787" y="488" type="curve"/>
      <point x="908" y="488"/>
      <point x="787" y="488"/>
      <point x="908" y="488" type="curve"/>
      <point x="908" y="610"/>
      <point x="908" y="524"/>
      <point x="908" y="646" type="curve"/>
      <point x="787" y="646"/>
      <point x="908" y="646"/>
    </contour>
    <contour>
      <point x="887" y="374" type="curve"/>
      <point x="796" y="374"/>
      <point x="704" y="374"/>
      <point x="613" y="374" type="curve"/>
      <point x="613" y="257"/>
      <point x="613" y="374"/>
      <point x="613" y="257" type="curve"/>
      <point x="704" y="257"/>
      <point x="796" y="257"/>
      <point x="887" y="257" type="curve"/>
      <point x="887" y="374"/>
      <point x="887" y="257"/>
    </contour>
    <contour>
      <point x="930" y="79" type="curve"/>
      <point x="930" y="177"/>
      <point x="930" y="275"/>
      <point x="930" y="374" type="curve"/>
      <point x="786" y="374"/>
      <point x="930" y="374"/>
      <point x="786" y="374" type="curve"/>
      <point x="786" y="275"/>
      <point x="786" y="177"/>
      <point x="786" y="79" type="curve"/>
      <point x="930" y="79"/>
      <point x="786" y="79"/>
    </contour>
    <contour>
      <point x="908" y="646" type="curve"/>
      <point x="781" y="704"/>
      <point x="671" y="727"/>
      <point x="532" y="727" type="curve"/>
      <point x="255" y="727"/>
      <point x="58" y="617"/>
      <point x="58" y="359" type="curve"/>
      <point x="58" y="99"/>
      <point x="263" y="-5"/>
      <point x="546" y="-5" type="curve"/>
      <point x="695" y="-5"/>
      <point x="791" y="23"/>
      <point x="930" y="79" type="curve"/>
      <point x="850" y="166"/>
      <point x="930" y="79"/>
      <point x="850" y="166" type="curve"/>
      <point x="743" y="123"/>
      <point x="662" y="116"/>
      <point x="546" y="116" type="curve"/>
      <point x="353" y="116"/>
      <point x="217" y="191"/>
      <point x="217" y="371" type="curve"/>
      <point x="217" y="539"/>
      <point x="349" y="606"/>
      <point x="532" y="606" type="curve"/>
      <point x="642" y="606"/>
      <point x="728" y="592"/>
      <point x="829" y="547" type="curve"/>
      <point x="908" y="646"/>
      <point x="829" y="547"/>
    </contour>
    <contour>
      <point x="618" y="962" type="curve"/>
      <point x="618" y="919"/>
      <point x="584" y="895"/>
      <point x="532" y="895" type="curve"/>
      <point x="479" y="895"/>
      <point x="441" y="918"/>
      <point x="441" y="963" type="curve"/>
      <point x="377" y="963"/>
      <point x="354" y="963"/>
      <point x="290" y="963" type="curve"/>
      <point x="290" y="840"/>
      <point x="390" y="780"/>
      <point x="529" y="780" type="curve"/>
      <point x="668" y="780"/>
      <point x="769" y="839"/>
      <point x="769" y="962" type="curve"/>
      <point x="705" y="962"/>
      <point x="682" y="962"/>
    </contour>
  </outline>
</glyph>
<glyph name="Gcommaaccent" format="1">
  <advance width="1002"/>
  <unicode hex="0122"/>
  <outline>
    <contour>
      <point x="787" y="646" type="curve"/>
      <point x="787" y="524"/>
      <point x="787" y="610"/>
      <point x="787" y="488" type="curve"/>
      <point x="908" y="488"/>
      <point x="787" y="488"/>
      <point x="908" y="488" type="curve"/>
      <point x="908" y="610"/>
      <point x="908" y="524"/>
      <point x="908" y="646" type="curve"/>
      <point x="787" y="646"/>
      <point x="908" y="646"/>
    </contour>
    <contour>
      <point x="887" y="374" type="curve"/>
      <point x="796" y="374"/>
      <point x="704" y="374"/>
      <point x="613" y="374" type="curve"/>
      <point x="613" y="257"/>
      <point x="613" y="374"/>
      <point x="613" y="257" type="curve"/>
      <point x="704" y="257"/>
      <point x="796" y="257"/>
      <point x="887" y="257" type="curve"/>
      <point x="887" y="374"/>
      <point x="887" y="257"/>
    </contour>
    <contour>
      <point x="930" y="79" type="curve"/>
      <point x="930" y="177"/>
      <point x="930" y="275"/>
      <point x="930" y="374" type="curve"/>
      <point x="786" y="374"/>
      <point x="930" y="374"/>
      <point x="786" y="374" type="curve"/>
      <point x="786" y="275"/>
      <point x="786" y="177"/>
      <point x="786" y="79" type="curve"/>
      <point x="930" y="79"/>
      <point x="786" y="79"/>
    </contour>
    <contour>
      <point x="908" y="646" type="curve"/>
      <point x="781" y="704"/>
      <point x="671" y="727"/>
      <point x="532" y="727" type="curve"/>
      <point x="255" y="727"/>
      <point x="58" y="617"/>
      <point x="58" y="359" type="curve"/>
      <point x="58" y="99"/>
      <point x="263" y="-5"/>
      <point x="546" y="-5" type="curve"/>
      <point x="695" y="-5"/>
      <point x="791" y="23"/>
      <point x="930" y="79" type="curve"/>
      <point x="850" y="166"/>
      <point x="930" y="79"/>
      <point x="850" y="166" type="curve"/>
      <point x="743" y="123"/>
      <point x="662" y="116"/>
      <point x="546" y="116" type="curve"/>
      <point x="353" y="116"/>
      <point x="217" y="191"/>
      <point x="217" y="371" type="curve"/>
      <point x="217" y="539"/>
      <point x="349" y="606"/>
      <point x="532" y="606" type="curve"/>
      <point x="642" y="606"/>
      <point x="728" y="592"/>
      <point x="829" y="547" type="curve"/>
      <point x="908" y="646"/>
      <point x="829" y="547"/>
    </contour>
    <contour>
      <point x="494" y="-398" type="line"/>
      <point x="615" y="-398"/>
      <point x="699" y="-324"/>
      <point x="699" y="-214" type="curve"/>
      <point x="699" y="-132"/>
      <point x="656" y="-69"/>
      <point x="590" y="-69" type="curve"/>
      <point x="538" y="-69"/>
      <point x="499" y="-95"/>
      <point x="499" y="-145" type="curve"/>
      <point x="499" y="-195"/>
      <point x="539" y="-222"/>
      <point x="595" y="-222" type="curve"/>
      <point x="593" y="-268"/>
      <point x="575" y="-307"/>
      <point x="494" y="-317" type="curve"/>
    </contour>
  </outline>
</glyph>
<glyph name="Imacron" format="1">
  <advance width="417"/>
  <unicode hex="012A"/>
  <outline>
    <contour>
      <point x="209" y="722" type="curve"/>
      <point x="146" y="722"/>
      <point x="110" y="722"/>
      <point x="48" y="722" type="curve"/>
      <point x="48" y="606"/>
      <point x="48" y="722"/>
      <point x="48" y="606" type="curve"/>
      <point x="236" y="606"/>
      <point x="21" y="606"/>
      <point x="209" y="606" type="curve"/>
      <point x="209" y="722"/>
      <point x="209" y="606"/>
    </contour>
    <contour>
      <point x="209" y="606" type="curve"/>
      <point x="398" y="606"/>
      <point x="182" y="606"/>
      <point x="371" y="606" type="curve"/>
      <point x="371" y="722"/>
      <point x="371" y="606"/>
      <point x="371" y="722" type="curve"/>
      <point x="308" y="722"/>
      <point x="272" y="722"/>
      <point x="209" y="722" type="curve"/>
      <point x="209" y="606"/>
      <point x="209" y="722"/>
    </contour>
    <contour>
      <point x="209" y="0" type="curve"/>
      <point x="272" y="0"/>
      <point x="308" y="0"/>
      <point x="371" y="0" type="curve"/>
      <point x="371" y="116"/>
      <point x="371" y="0"/>
      <point x="371" y="116" type="curve"/>
      <point x="182" y="116"/>
      <point x="398" y="116"/>
      <point x="209" y="116" type="curve"/>
      <point x="209" y="0"/>
      <point x="209" y="116"/>
    </contour>
    <contour>
      <point x="209" y="116" type="curve"/>
      <point x="21" y="116"/>
      <point x="236" y="116"/>
      <point x="48" y="116" type="curve"/>
      <point x="48" y="0"/>
      <point x="48" y="116"/>
      <point x="48" y="0" type="curve"/>
      <point x="110" y="0"/>
      <point x="146" y="0"/>
      <point x="209" y="0" type="curve"/>
      <point x="209" y="116"/>
      <point x="209" y="0"/>
    </contour>
    <contour>
      <point x="288" y="0" type="curve"/>
      <point x="288" y="241"/>
      <point x="288" y="481"/>
      <point x="288" y="722" type="curve"/>
      <point x="128" y="722"/>
      <point x="288" y="722"/>
      <point x="128" y="722" type="curve"/>
      <point x="128" y="481"/>
      <point x="128" y="241"/>
      <point x="128" y="0" type="curve"/>
      <point x="288" y="0"/>
      <point x="128" y="0"/>
    </contour>
    <contour>
      <point x="347" y="896" type="curve"/>
      <point x="253" y="896"/>
      <point x="160" y="896"/>
      <point x="66" y="896" type="curve"/>
      <point x="66" y="780"/>
      <point x="66" y="896"/>
      <point x="66" y="780" type="curve"/>
      <point x="160" y="780"/>
      <point x="253" y="780"/>
      <point x="347" y="780" type="curve"/>
      <point x="347" y="896"/>
      <point x="347" y="780"/>
    </contour>
  </outline>
</glyph>
<glyph name="Iogonek" format="1">
  <advance width="423"/>
  <unicode hex="012E"/>
  <outline>
    <contour>
      <point x="209" y="722" type="curve"/>
      <point x="146" y="722"/>
      <point x="110" y="722"/>
      <point x="48" y="722" type="curve"/>
      <point x="48" y="606"/>
      <point x="48" y="722"/>
      <point x="48" y="606" type="curve"/>
      <point x="236" y="606"/>
      <point x="21" y="606"/>
      <point x="209" y="606" type="curve"/>
      <point x="209" y="722"/>
      <point x="209" y="606"/>
    </contour>
    <contour>
      <point x="209" y="606" type="curve"/>
      <point x="398" y="606"/>
      <point x="182" y="606"/>
      <point x="371" y="606" type="curve"/>
      <point x="371" y="722"/>
      <point x="371" y="606"/>
      <point x="371" y="722" type="curve"/>
      <point x="308" y="722"/>
      <point x="272" y="722"/>
      <point x="209" y="722" type="curve"/>
      <point x="209" y="606"/>
      <point x="209" y="722"/>
    </contour>
    <contour>
      <point x="209" y="0" type="curve"/>
      <point x="272" y="0"/>
      <point x="308" y="0"/>
      <point x="371" y="0" type="curve"/>
      <point x="371" y="116"/>
      <point x="371" y="0"/>
      <point x="371" y="116" type="curve"/>
      <point x="182" y="116"/>
      <point x="398" y="116"/>
      <point x="209" y="116" type="curve"/>
      <point x="209" y="0"/>
      <point x="209" y="116"/>
    </contour>
    <contour>
      <point x="209" y="116" type="curve"/>
      <point x="21" y="116"/>
      <point x="236" y="116"/>
      <point x="48" y="116" type="curve"/>
      <point x="48" y="0"/>
      <point x="48" y="116"/>
      <point x="48" y="0" type="curve"/>
      <point x="110" y="0"/>
      <point x="146" y="0"/>
      <point x="209" y="0" type="curve"/>
      <point x="209" y="116"/>
      <point x="209" y="0"/>
    </contour>
    <contour>
      <point x="288" y="0" type="curve"/>
      <point x="288" y="241"/>
      <point x="288" y="481"/>
      <point x="288" y="722" type="curve"/>
      <point x="128" y="722"/>
      <point x="288" y="722"/>
      <point x="128" y="722" type="curve"/>
      <point x="128" y="481"/>
      <point x="128" y="241"/>
      <point x="128" y="0" type="curve"/>
      <point x="288" y="0"/>
      <point x="128" y="0"/>
    </contour>
    <contour>
      <point x="264" y="80" type="curve"/>
      <point x="176" y="51"/>
      <point x="92" y="34"/>
      <point x="92" y="-54" type="curve"/>
      <point x="92" y="-141"/>
      <point x="162" y="-184"/>
      <point x="257" y="-184" type="curve"/>
      <point x="308" y="-184"/>
      <point x="342" y="-171"/>
      <point x="388" y="-151" type="curve"/>
      <point x="316" y="-58"/>
      <point x="388" y="-151"/>
      <point x="316" y="-58" type="curve"/>
      <point x="299" y="-65"/>
      <point x="289" y="-72"/>
      <point x="271" y="-72" type="curve"/>
      <point x="254" y="-72"/>
      <point x="241" y="-66"/>
      <point x="241" y="-50" type="curve"/>
      <point x="241" y="-19"/>
      <point x="285" y="-17"/>
      <point x="322" y="-1" type="curve"/>
      <point x="264" y="80"/>
      <point x="322" y="-1"/>
    </contour>
  </outline>
</glyph>
<glyph name="Idotaccent" format="1">
  <advance width="417"/>
  <unicode hex="0130"/>
  <outline>
    <contour>
      <point x="209" y="722" type="curve"/>
      <point x="146" y="722"/>
      <point x="110" y="722"/>
      <point x="48" y="722" type="curve"/>
      <point x="48" y="606"/>
      <point x="48" y="722"/>
      <point x="48" y="606" type="curve"/>
      <point x="236" y="606"/>
      <point x="21" y="606"/>
      <point x="209" y="606" type="curve"/>
      <point x="209" y="722"/>
      <point x="209" y="606"/>
    </contour>
    <contour>
      <point x="209" y="606" type="curve"/>
      <point x="398" y="606"/>
      <point x="182" y="606"/>
      <point x="371" y="606" type="curve"/>
      <point x="371" y="722"/>
      <point x="371" y="606"/>
      <point x="371" y="722" type="curve"/>
      <point x="308" y="722"/>
      <point x="272" y="722"/>
      <point x="209" y="722" type="curve"/>
      <point x="209" y="606"/>
      <point x="209" y="722"/>
    </contour>
    <contour>
      <point x="209" y="0" type="curve"/>
      <point x="272" y="0"/>
      <point x="308" y="0"/>
      <point x="371" y="0" type="curve"/>
      <point x="371" y="116"/>
      <point x="371" y="0"/>
      <point x="371" y="116" type="curve"/>
      <point x="182" y="116"/>
      <point x="398" y="116"/>
      <point x="209" y="116" type="curve"/>
      <point x="209" y="0"/>
      <point x="209" y="116"/>
    </contour>
    <contour>
      <point x="209" y="116" type="curve"/>
      <point x="21" y="116"/>
      <point x="236" y="116"/>
      <point x="48" y="116" type="curve"/>
      <point x="48" y="0"/>
      <point x="48" y="116"/>
      <point x="48" y="0" type="curve"/>
      <point x="110" y="0"/>
      <point x="146" y="0"/>
      <point x="209" y="0" type="curve"/>
      <point x="209" y="116"/>
      <point x="209" y="0"/>
    </contour>
    <contour>
      <point x="288" y="0" type="curve"/>
      <point x="288" y="241"/>
      <point x="288" y="481"/>
      <point x="288" y="722" type="curve"/>
      <point x="128" y="722"/>
      <point x="288" y="722"/>
      <point x="128" y="722" type="curve"/>
      <point x="128" y="481"/>
      <point x="128" y="241"/>
      <point x="128" y="0" type="curve"/>
      <point x="288" y="0"/>
      <point x="128" y="0"/>
    </contour>
    <contour>
      <point x="305" y="840" type="curve"/>
      <point x="305" y="892"/>
      <point x="265" y="916"/>
      <point x="211" y="916" type="curve"/>
      <point x="158" y="916"/>
      <point x="120" y="889"/>
      <point x="120" y="840" type="curve"/>
      <point x="305" y="840"/>
      <point x="120" y="840"/>
      <point x="305" y="840" type="curve"/>
      <point x="305" y="788"/>
      <point x="265" y="766"/>
      <point x="211" y="766" type="curve"/>
      <point x="157" y="766"/>
      <point x="120" y="791"/>
      <point x="120" y="840" type="curve"/>
      <point x="305" y="840"/>
      <point x="120" y="840"/>
    </contour>
  </outline>
</glyph>
<glyph name="Kcommaaccent" format="1">
  <advance width="891"/>
  <unicode hex="0136"/>
  <outline>
    <contour>
      <point x="718" y="722" type="curve"/>
      <point x="653" y="722"/>
      <point x="497" y="722"/>
      <point x="431" y="722" type="curve"/>
      <point x="431" y="606"/>
      <point x="431" y="722"/>
      <point x="431" y="606" type="curve"/>
      <point x="626" y="606"/>
      <point x="523" y="606"/>
      <point x="718" y="606" type="curve"/>
      <point x="718" y="722"/>
      <point x="718" y="606"/>
    </contour>
    <contour>
      <point x="725" y="0" type="curve"/>
      <point x="789" y="0"/>
      <point x="795" y="0"/>
      <point x="860" y="0" type="curve"/>
      <point x="860" y="116"/>
      <point x="860" y="0"/>
      <point x="860" y="116" type="curve"/>
      <point x="666" y="116"/>
      <point x="919" y="116"/>
      <point x="725" y="116" type="curve"/>
      <point x="725" y="0"/>
      <point x="725" y="116"/>
    </contour>
    <contour>
      <point x="715" y="606" type="curve"/>
      <point x="895" y="606"/>
      <point x="634" y="606"/>
      <point x="815" y="606" type="curve"/>
      <point x="815" y="722"/>
      <point x="815" y="606"/>
      <point x="815" y="722" type="curve"/>
      <point x="754" y="722"/>
      <point x="774" y="722"/>
      <point x="715" y="722" type="curve"/>
      <point x="715" y="606"/>
      <point x="715" y="722"/>
    </contour>
    <contour>
      <point x="207" y="722" type="curve"/>
      <point x="144" y="722"/>
      <point x="109" y="722"/>
      <point x="46" y="722" type="curve"/>
      <point x="46" y="606"/>
      <point x="46" y="722"/>
      <point x="46" y="606" type="curve"/>
      <point x="234" y="606"/>
      <point x="19" y="606"/>
      <point x="207" y="606" type="curve"/>
      <point x="207" y="722"/>
      <point x="207" y="606"/>
    </contour>
    <contour>
      <point x="207" y="606" type="curve"/>
      <point x="374" y="606"/>
      <point x="188" y="606"/>
      <point x="355" y="606" type="curve"/>
      <point x="355" y="722"/>
      <point x="355" y="606"/>
      <point x="355" y="722" type="curve"/>
      <point x="299" y="722"/>
      <point x="263" y="722"/>
      <point x="207" y="722" type="curve"/>
      <point x="207" y="606"/>
      <point x="207" y="722"/>
    </contour>
    <contour>
      <point x="207" y="0" type="curve"/>
      <point x="271" y="0"/>
      <point x="176" y="0"/>
      <point x="366" y="0" type="curve"/>
      <point x="366" y="116"/>
      <point x="366" y="0"/>
      <point x="366" y="116" type="curve"/>
      <point x="176" y="116"/>
      <point x="397" y="116"/>
      <point x="207" y="116" type="curve"/>
      <point x="207" y="0"/>
      <point x="207" y="116"/>
    </contour>
    <contour>
      <point x="207" y="116" type="curve"/>
      <point x="19" y="116"/>
      <point x="234" y="116"/>
      <point x="46" y="116" type="curve"/>
      <point x="46" y="0"/>
      <point x="46" y="116"/>
      <point x="46" y="0" type="curve"/>
      <point x="109" y="0"/>
      <point x="144" y="0"/>
      <point x="207" y="0" type="curve"/>
      <point x="207" y="116"/>
      <point x="207" y="0"/>
    </contour>
    <contour>
      <point x="646" y="722" type="curve"/>
      <point x="234" y="380" type="line"/>
      <point x="434" y="380"/>
      <point x="229" y="380"/>
      <point x="430" y="380" type="curve"/>
      <point x="790" y="672" type="line"/>
      <point x="564" y="672"/>
      <point x="872" y="722"/>
    </contour>
    <contour>
      <point x="286" y="0" type="curve"/>
      <point x="286" y="722" type="line"/>
      <point x="128" y="722"/>
      <point x="286" y="722"/>
      <point x="128" y="722" type="curve"/>
      <point x="128" y="481"/>
      <point x="128" y="241"/>
      <point x="128" y="0" type="curve"/>
      <point x="286" y="0"/>
      <point x="128" y="0"/>
    </contour>
    <contour>
      <point x="827" y="53" type="curve"/>
      <point x="430" y="380" type="line"/>
      <point x="229" y="380"/>
      <point x="434" y="380"/>
      <point x="234" y="380" type="curve"/>
      <point x="672" y="0" type="line"/>
      <point x="906" y="0"/>
      <point x="593" y="53"/>
    </contour>
    <contour>
      <point x="396" y="-407" type="line"/>
      <point x="516" y="-407"/>
      <point x="601" y="-333"/>
      <point x="601" y="-223" type="curve"/>
      <point x="601" y="-141"/>
      <point x="558" y="-78"/>
      <point x="491" y="-78" type="curve"/>
      <point x="439" y="-78"/>
      <point x="400" y="-104"/>
      <point x="400" y="-154" type="curve"/>
      <point x="400" y="-204"/>
      <point x="440" y="-231"/>
      <point x="496" y="-231" type="curve"/>
      <point x="495" y="-277"/>
      <point x="476" y="-316"/>
      <point x="396" y="-326" type="curve"/>
    </contour>
  </outline>
</glyph>
<glyph name="kcommaaccent" format="1">
  <advance width="735"/>
  <unicode hex="0137"/>
  <outline>
    <contour>
      <point x="168" y="115" type="curve"/>
      <point x="-19" y="116"/>
      <point x="195" y="115"/>
      <point x="8" y="116" type="curve"/>
      <point x="8" y="0"/>
      <point x="8" y="116"/>
      <point x="8" y="0" type="curve"/>
      <point x="70" y="0"/>
      <point x="106" y="-1"/>
      <point x="168" y="-1" type="curve"/>
      <point x="168" y="115"/>
      <point x="168" y="-1"/>
    </contour>
    <contour>
      <point x="553" y="-1" type="curve"/>
      <point x="622" y="-1"/>
      <point x="648" y="0"/>
      <point x="716" y="0" type="curve"/>
      <point x="716" y="116"/>
      <point x="716" y="0"/>
      <point x="716" y="116" type="curve"/>
      <point x="508" y="115"/>
      <point x="761" y="116"/>
      <point x="553" y="115" type="curve"/>
      <point x="553" y="-1"/>
      <point x="553" y="115"/>
    </contour>
    <contour>
      <point x="559" y="417" type="curve"/>
      <point x="734" y="417"/>
      <point x="514" y="417"/>
      <point x="689" y="417" type="curve"/>
      <point x="689" y="533"/>
      <point x="689" y="417"/>
      <point x="689" y="533" type="curve"/>
      <point x="630" y="533"/>
      <point x="617" y="533"/>
      <point x="559" y="533" type="curve"/>
      <point x="559" y="417"/>
      <point x="559" y="533"/>
    </contour>
    <contour>
      <point x="168" y="-1" type="curve"/>
      <point x="215" y="-1"/>
      <point x="168" y="-1"/>
      <point x="310" y="0" type="curve"/>
      <point x="310" y="116"/>
      <point x="310" y="0"/>
      <point x="310" y="116" type="curve"/>
      <point x="168" y="115"/>
      <point x="310" y="116"/>
      <point x="168" y="115" type="curve"/>
      <point x="168" y="-1"/>
      <point x="168" y="115"/>
    </contour>
    <contour>
      <point x="580" y="533" type="curve"/>
      <point x="488" y="533"/>
      <point x="407" y="533"/>
      <point x="317" y="533" type="curve"/>
      <point x="317" y="417"/>
      <point x="317" y="533"/>
      <point x="317" y="417" type="curve"/>
      <point x="589" y="417"/>
      <point x="308" y="417"/>
      <point x="580" y="417" type="curve"/>
      <point x="580" y="533"/>
      <point x="580" y="417"/>
    </contour>
    <contour>
      <point x="171" y="799" type="curve"/>
      <point x="108" y="799"/>
      <point x="73" y="800"/>
      <point x="10" y="800" type="curve"/>
      <point x="10" y="684"/>
      <point x="10" y="800"/>
      <point x="10" y="684" type="curve"/>
      <point x="198" y="684"/>
      <point x="-17" y="684"/>
      <point x="171" y="684" type="curve"/>
      <point x="171" y="799"/>
      <point x="171" y="684"/>
    </contour>
    <contour>
      <point x="249" y="0" type="curve"/>
      <point x="249" y="800" type="line"/>
      <point x="90" y="800"/>
      <point x="249" y="800"/>
      <point x="90" y="800" type="curve"/>
      <point x="90" y="533"/>
      <point x="90" y="267"/>
      <point x="90" y="0" type="curve"/>
      <point x="249" y="0"/>
      <point x="90" y="0"/>
    </contour>
    <contour>
      <point x="508" y="533" type="curve"/>
      <point x="206" y="275" type="line"/>
      <point x="397" y="275"/>
      <point x="206" y="275"/>
      <point x="397" y="275" type="curve"/>
      <point x="670" y="487" type="line"/>
      <point x="453" y="487"/>
      <point x="725" y="533"/>
    </contour>
    <contour>
      <point x="689" y="60" type="curve"/>
      <point x="396" y="275" type="line"/>
      <point x="206" y="275"/>
      <point x="396" y="275"/>
      <point x="206" y="275" type="curve"/>
      <point x="540" y="0" type="line"/>
      <point x="755" y="0"/>
      <point x="473" y="60"/>
    </contour>
    <contour>
      <point x="317" y="-415" type="line"/>
      <point x="438" y="-415"/>
      <point x="523" y="-341"/>
      <point x="523" y="-231" type="curve"/>
      <point x="523" y="-149"/>
      <point x="480" y="-86"/>
      <point x="413" y="-86" type="curve"/>
      <point x="361" y="-86"/>
      <point x="322" y="-112"/>
      <point x="322" y="-162" type="curve"/>
      <point x="322" y="-213"/>
      <point x="362" y="-239"/>
      <point x="418" y="-239" type="curve"/>
      <point x="416" y="-285"/>
      <point x="398" y="-325"/>
      <point x="317" y="-334" type="curve"/>
    </contour>
  </outline>
</glyph>
<glyph name="lcommaaccent" format="1">
  <advance width="422"/>
  <unicode hex="013C"/>
  <outline>
    <contour>
      <point x="212" y="115" type="curve"/>
      <point x="24" y="116"/>
      <point x="212" y="115"/>
      <point x="24" y="116" type="curve"/>
      <point x="24" y="0"/>
      <point x="24" y="116"/>
      <point x="24" y="0" type="curve"/>
      <point x="87" y="0"/>
      <point x="149" y="-1"/>
      <point x="212" y="-1" type="curve"/>
      <point x="212" y="116"/>
      <point x="212" y="-1"/>
    </contour>
    <contour>
      <point x="215" y="799" type="curve"/>
      <point x="152" y="799"/>
      <point x="89" y="800"/>
      <point x="26" y="800" type="curve"/>
      <point x="26" y="684"/>
      <point x="26" y="800"/>
      <point x="26" y="684" type="curve"/>
      <point x="215" y="684"/>
      <point x="26" y="684"/>
      <point x="215" y="684" type="curve"/>
      <point x="215" y="799"/>
      <point x="215" y="684"/>
    </contour>
    <contour>
      <point x="212" y="-1" type="curve"/>
      <point x="275" y="-1"/>
      <point x="337" y="0"/>
      <point x="400" y="0" type="curve"/>
      <point x="400" y="116"/>
      <point x="400" y="0"/>
      <point x="400" y="116" type="curve"/>
      <point x="212" y="115"/>
      <point x="400" y="116"/>
      <point x="212" y="115" type="curve"/>
      <point x="212" y="-1"/>
      <point x="212" y="116"/>
    </contour>
    <contour>
      <point x="290" y="0" type="curve"/>
      <point x="290" y="267"/>
      <point x="290" y="533"/>
      <point x="290" y="800" type="curve"/>
      <point x="132" y="800"/>
      <point x="290" y="800"/>
      <point x="132" y="800" type="curve"/>
      <point x="132" y="533"/>
      <point x="132" y="267"/>
      <point x="132" y="0" type="curve"/>
      <point x="290" y="0"/>
      <point x="132" y="0"/>
    </contour>
    <contour>
      <point x="167" y="-402" type="line"/>
      <point x="288" y="-402"/>
      <point x="372" y="-327"/>
      <point x="372" y="-218" type="curve"/>
      <point x="372" y="-136"/>
      <point x="329" y="-73"/>
      <point x="262" y="-73" type="curve"/>
      <point x="210" y="-73"/>
      <point x="171" y="-99"/>
      <point x="171" y="-148" type="curve"/>
      <point x="171" y="-199"/>
      <point x="211" y="-225"/>
      <point x="267" y="-225" type="curve"/>
      <point x="266" y="-271"/>
      <point x="247" y="-311"/>
      <point x="167" y="-320" type="curve"/>
    </contour>
  </outline>
</glyph>
<glyph name="nacute" format="1">
  <advance width="821"/>
  <unicode hex="0144"/>
  <outline>
    <contour>
      <point x="235" y="247" type="curve"/>
      <point x="269" y="349"/>
      <point x="333" y="417"/>
      <point x="436" y="417" type="curve"/>
      <point x="516" y="417"/>
      <point x="575" y="380"/>
      <point x="575" y="305" type="curve"/>
      <point x="575" y="195"/>
      <point x="575" y="110"/>
      <point x="575" y="0" type="curve"/>
      <point x="642" y="0"/>
      <point x="667" y="0"/>
      <point x="734" y="0" type="curve"/>
      <point x="734" y="115"/>
      <point x="734" y="202"/>
      <point x="734" y="317" type="curve"/>
      <point x="734" y="468"/>
      <point x="632" y="538"/>
      <point x="473" y="538" type="curve"/>
      <point x="317" y="538"/>
      <point x="214" y="450"/>
      <point x="156" y="299" type="curve"/>
      <point x="186" y="274"/>
      <point x="205" y="272"/>
    </contour>
    <contour>
      <point x="653" y="0" type="curve"/>
      <point x="716" y="0"/>
      <point x="752" y="0"/>
      <point x="815" y="0" type="curve"/>
      <point x="815" y="116"/>
      <point x="815" y="0"/>
      <point x="815" y="116" type="curve"/>
      <point x="626" y="116"/>
      <point x="842" y="116"/>
      <point x="653" y="116" type="curve"/>
      <point x="653" y="0"/>
      <point x="653" y="116"/>
    </contour>
    <contour>
      <point x="191" y="116" type="curve"/>
      <point x="3" y="116"/>
      <point x="218" y="116"/>
      <point x="30" y="116" type="curve"/>
      <point x="30" y="0"/>
      <point x="30" y="116"/>
      <point x="30" y="0" type="curve"/>
      <point x="93" y="0"/>
      <point x="129" y="0"/>
      <point x="191" y="0" type="curve"/>
      <point x="191" y="116"/>
      <point x="191" y="0"/>
    </contour>
    <contour>
      <point x="191" y="0" type="curve"/>
      <point x="250" y="0"/>
      <point x="164" y="0"/>
      <point x="340" y="0" type="curve"/>
      <point x="340" y="116"/>
      <point x="340" y="0"/>
      <point x="340" y="116" type="curve"/>
      <point x="164" y="116"/>
      <point x="367" y="116"/>
      <point x="191" y="116" type="curve"/>
      <point x="191" y="0"/>
      <point x="191" y="116"/>
    </contour>
    <contour>
      <point x="271" y="0" type="curve"/>
      <point x="271" y="178"/>
      <point x="271" y="355"/>
      <point x="271" y="533" type="curve"/>
      <point x="112" y="533"/>
      <point x="271" y="533"/>
      <point x="112" y="533" type="curve"/>
      <point x="112" y="355"/>
      <point x="112" y="178"/>
      <point x="112" y="0" type="curve"/>
      <point x="271" y="0"/>
      <point x="112" y="0"/>
    </contour>
    <contour>
      <point x="191" y="533" type="curve"/>
      <point x="129" y="533"/>
      <point x="93" y="533"/>
      <point x="30" y="533" type="curve"/>
      <point x="30" y="417"/>
      <point x="30" y="533"/>
      <point x="30" y="417" type="curve"/>
      <point x="218" y="417"/>
      <point x="3" y="417"/>
      <point x="191" y="417" type="curve"/>
      <point x="191" y="533"/>
      <point x="191" y="417"/>
    </contour>
    <contour>
      <point x="501" y="609" type="line"/>
      <point x="688" y="775" type="line"/>
      <point x="482" y="775" type="line"/>
      <point x="344" y="609" type="line"/>
    </contour>
  </outline>
</glyph>
<glyph name="Ncommaaccent" format="1">
  <advance width="1072"/>
  <unicode hex="0145"/>
  <outline>
    <contour>
      <point x="208" y="722" type="curve"/>
      <point x="146" y="722"/>
      <point x="110" y="722"/>
      <point x="47" y="722" type="curve"/>
      <point x="47" y="606"/>
      <point x="47" y="722"/>
      <point x="47" y="606" type="curve"/>
      <point x="235" y="606"/>
      <point x="20" y="606"/>
      <point x="208" y="606" type="curve"/>
      <point x="208" y="722"/>
      <point x="208" y="606"/>
    </contour>
    <contour>
      <point x="871" y="606" type="curve"/>
      <point x="1059" y="606"/>
      <point x="844" y="606"/>
      <point x="1032" y="606" type="curve"/>
      <point x="1032" y="722"/>
      <point x="1032" y="606"/>
      <point x="1032" y="722" type="curve"/>
      <point x="969" y="722"/>
      <point x="934" y="722"/>
      <point x="871" y="722" type="curve"/>
      <point x="871" y="606"/>
      <point x="871" y="722"/>
    </contour>
    <contour>
      <point x="889" y="722" type="curve"/>
      <point x="828" y="722"/>
      <point x="792" y="722"/>
      <point x="729" y="722" type="curve"/>
      <point x="729" y="606"/>
      <point x="729" y="722"/>
      <point x="729" y="606" type="curve"/>
      <point x="916" y="606"/>
      <point x="702" y="606"/>
      <point x="889" y="606" type="curve"/>
      <point x="889" y="722"/>
      <point x="889" y="606"/>
    </contour>
    <contour>
      <point x="207" y="116" type="curve"/>
      <point x="19" y="116"/>
      <point x="234" y="116"/>
      <point x="46" y="116" type="curve"/>
      <point x="46" y="0"/>
      <point x="46" y="116"/>
      <point x="46" y="0" type="curve"/>
      <point x="109" y="0"/>
      <point x="144" y="0"/>
      <point x="207" y="0" type="curve"/>
      <point x="207" y="116"/>
      <point x="207" y="0"/>
    </contour>
    <contour>
      <point x="207" y="0" type="curve"/>
      <point x="270" y="0"/>
      <point x="180" y="0"/>
      <point x="367" y="0" type="curve"/>
      <point x="367" y="116"/>
      <point x="367" y="0"/>
      <point x="367" y="116" type="curve"/>
      <point x="180" y="116"/>
      <point x="394" y="116"/>
      <point x="207" y="116" type="curve"/>
      <point x="207" y="0"/>
      <point x="207" y="116"/>
    </contour>
    <contour>
      <point x="963" y="0" type="curve"/>
      <point x="743" y="239"/>
      <point x="527" y="483"/>
      <point x="307" y="722" type="curve"/>
      <point x="114" y="722"/>
      <point x="307" y="722"/>
      <point x="114" y="722" type="curve"/>
      <point x="334" y="483"/>
      <point x="551" y="239"/>
      <point x="771" y="0" type="curve"/>
      <point x="963" y="0"/>
      <point x="771" y="0"/>
    </contour>
    <contour>
      <point x="809" y="722" type="curve"/>
      <point x="809" y="481"/>
      <point x="809" y="241"/>
      <point x="809" y="0" type="curve"/>
      <point x="968" y="0"/>
      <point x="809" y="0"/>
      <point x="968" y="0" type="curve"/>
      <point x="968" y="241"/>
      <point x="968" y="481"/>
      <point x="968" y="722" type="curve"/>
      <point x="809" y="722"/>
      <point x="968" y="722"/>
    </contour>
    <contour>
      <point x="286" y="0" type="curve"/>
      <point x="286" y="241"/>
      <point x="286" y="481"/>
      <point x="286" y="722" type="curve"/>
      <point x="128" y="722"/>
      <point x="286" y="722"/>
      <point x="128" y="722" type="curve"/>
      <point x="128" y="481"/>
      <point x="128" y="241"/>
      <point x="128" y="0" type="curve"/>
      <point x="286" y="0"/>
      <point x="128" y="0"/>
    </contour>
    <contour>
      <point x="436" y="-410" type="line"/>
      <point x="556" y="-410"/>
      <point x="641" y="-336"/>
      <point x="641" y="-226" type="curve"/>
      <point x="641" y="-144"/>
      <point x="598" y="-81"/>
      <point x="531" y="-81" type="curve"/>
      <point x="479" y="-81"/>
      <point x="440" y="-107"/>
      <point x="440" y="-157" type="curve"/>
      <point x="440" y="-207"/>
      <point x="480" y="-234"/>
      <point x="536" y="-234" type="curve"/>
      <point x="534" y="-279"/>
      <point x="516" y="-319"/>
      <point x="436" y="-328" type="curve"/>
    </contour>
  </outline>
</glyph>
<glyph name="ncommaaccent" format="1">
  <advance width="821"/>
  <unicode hex="0146"/>
  <outline>
    <contour>
      <point x="235" y="247" type="curve"/>
      <point x="269" y="349"/>
      <point x="333" y="417"/>
      <point x="436" y="417" type="curve"/>
      <point x="516" y="417"/>
      <point x="575" y="380"/>
      <point x="575" y="305" type="curve"/>
      <point x="575" y="195"/>
      <point x="575" y="110"/>
      <point x="575" y="0" type="curve"/>
      <point x="642" y="0"/>
      <point x="667" y="0"/>
      <point x="734" y="0" type="curve"/>
      <point x="734" y="115"/>
      <point x="734" y="202"/>
      <point x="734" y="317" type="curve"/>
      <point x="734" y="468"/>
      <point x="632" y="538"/>
      <point x="473" y="538" type="curve"/>
      <point x="317" y="538"/>
      <point x="214" y="450"/>
      <point x="156" y="299" type="curve"/>
      <point x="186" y="274"/>
      <point x="205" y="272"/>
    </contour>
    <contour>
      <point x="653" y="0" type="curve"/>
      <point x="716" y="0"/>
      <point x="752" y="0"/>
      <point x="815" y="0" type="curve"/>
      <point x="815" y="116"/>
      <point x="815" y="0"/>
      <point x="815" y="116" type="curve"/>
      <point x="626" y="116"/>
      <point x="842" y="116"/>
      <point x="653" y="116" type="curve"/>
      <point x="653" y="0"/>
      <point x="653" y="116"/>
    </contour>
    <contour>
      <point x="191" y="116" type="curve"/>
      <point x="3" y="116"/>
      <point x="218" y="116"/>
      <point x="30" y="116" type="curve"/>
      <point x="30" y="0"/>
      <point x="30" y="116"/>
      <point x="30" y="0" type="curve"/>
      <point x="93" y="0"/>
      <point x="129" y="0"/>
      <point x="191" y="0" type="curve"/>
      <point x="191" y="116"/>
      <point x="191" y="0"/>
    </contour>
    <contour>
      <point x="191" y="0" type="curve"/>
      <point x="250" y="0"/>
      <point x="164" y="0"/>
      <point x="340" y="0" type="curve"/>
      <point x="340" y="116"/>
      <point x="340" y="0"/>
      <point x="340" y="116" type="curve"/>
      <point x="164" y="116"/>
      <point x="367" y="116"/>
      <point x="191" y="116" type="curve"/>
      <point x="191" y="0"/>
      <point x="191" y="116"/>
    </contour>
    <contour>
      <point x="271" y="0" type="curve"/>
      <point x="271" y="178"/>
      <point x="271" y="355"/>
      <point x="271" y="533" type="curve"/>
      <point x="112" y="533"/>
      <point x="271" y="533"/>
      <point x="112" y="533" type="curve"/>
      <point x="112" y="355"/>
      <point x="112" y="178"/>
      <point x="112" y="0" type="curve"/>
      <point x="271" y="0"/>
      <point x="112" y="0"/>
    </contour>
    <contour>
      <point x="191" y="533" type="curve"/>
      <point x="129" y="533"/>
      <point x="93" y="533"/>
      <point x="30" y="533" type="curve"/>
      <point x="30" y="417"/>
      <point x="30" y="533"/>
      <point x="30" y="417" type="curve"/>
      <point x="218" y="417"/>
      <point x="3" y="417"/>
      <point x="191" y="417" type="curve"/>
      <point x="191" y="533"/>
      <point x="191" y="417"/>
    </contour>
    <contour>
      <point x="326" y="-373" type="line"/>
      <point x="447" y="-373"/>
      <point x="531" y="-298"/>
      <point x="531" y="-189" type="curve"/>
      <point x="531" y="-107"/>
      <point x="488" y="-44"/>
      <point x="421" y="-44" type="curve"/>
      <point x="369" y="-44"/>
      <point x="330" y="-70"/>
      <point x="330" y="-119" type="curve"/>
      <point x="330" y="-170"/>
      <point x="370" y="-196"/>
      <point x="426" y="-196" type="curve"/>
      <point x="425" y="-242"/>
      <point x="406" y="-282"/>
      <point x="326" y="-291" type="curve"/>
    </contour>
  </outline>
</glyph>
<glyph name="omacron" format="1">
  <advance width="768"/>
  <unicode hex="014D"/>
  <outline>
    <contour>
      <point x="203" y="268" type="curve"/>
      <point x="203" y="365"/>
      <point x="270" y="421"/>
      <point x="377" y="421" type="curve"/>
      <point x="490" y="421"/>
      <point x="564" y="366"/>
      <point x="564" y="266" type="curve"/>
      <point x="564" y="162"/>
      <point x="492" y="112"/>
      <point x="388" y="112" type="curve"/>
      <point x="278" y="112"/>
      <point x="203" y="162"/>
      <point x="203" y="268" type="curve"/>
      <point x="58" y="268"/>
      <point x="190" y="268"/>
      <point x="45" y="268" type="curve"/>
      <point x="45" y="81"/>
      <point x="185" y="-5"/>
      <point x="380" y="-5" type="curve"/>
      <point x="579" y="-5"/>
      <point x="723" y="77"/>
      <point x="723" y="266" type="curve"/>
      <point x="723" y="446"/>
      <point x="585" y="538"/>
      <point x="384" y="538" type="curve"/>
      <point x="184" y="538"/>
      <point x="45" y="446"/>
      <point x="45" y="268" type="curve"/>
      <point x="190" y="268"/>
      <point x="58" y="268"/>
    </contour>
    <contour>
      <point x="522" y="726" type="curve"/>
      <point x="428" y="726"/>
      <point x="335" y="726"/>
      <point x="242" y="726" type="curve"/>
      <point x="242" y="610"/>
      <point x="242" y="726"/>
      <point x="242" y="610" type="curve"/>
      <point x="335" y="610"/>
      <point x="428" y="610"/>
      <point x="522" y="610" type="curve"/>
      <point x="522" y="726"/>
      <point x="522" y="610"/>
    </contour>
  </outline>
</glyph>
<glyph name="Ohungarumlaut" format="1">
  <advance width="976"/>
  <unicode hex="0150"/>
  <outline>
    <contour>
      <point x="217" y="360" type="curve"/>
      <point x="217" y="516"/>
      <point x="318" y="604"/>
      <point x="481" y="604" type="curve"/>
      <point x="649" y="604"/>
      <point x="760" y="521"/>
      <point x="760" y="363" type="curve"/>
      <point x="760" y="207"/>
      <point x="657" y="119"/>
      <point x="493" y="119" type="curve"/>
      <point x="324" y="119"/>
      <point x="217" y="202"/>
      <point x="217" y="360" type="curve"/>
      <point x="58" y="360"/>
      <point x="217" y="360"/>
      <point x="58" y="360" type="curve"/>
      <point x="58" y="120"/>
      <point x="232" y="-5"/>
      <point x="485" y="-5" type="curve"/>
      <point x="742" y="-5"/>
      <point x="918" y="121"/>
      <point x="918" y="363" type="curve"/>
      <point x="918" y="601"/>
      <point x="746" y="727"/>
      <point x="494" y="727" type="curve"/>
      <point x="236" y="727"/>
      <point x="58" y="602"/>
      <point x="58" y="360" type="curve"/>
      <point x="217" y="360"/>
      <point x="58" y="360"/>
    </contour>
    <contour>
      <point x="415" y="782" type="line"/>
      <point x="602" y="948" type="line"/>
      <point x="396" y="948" type="line"/>
      <point x="258" y="782" type="line"/>
    </contour>
    <contour>
      <point x="676" y="782" type="line"/>
      <point x="863" y="948" type="line"/>
      <point x="657" y="948" type="line"/>
      <point x="519" y="782" type="line"/>
    </contour>
  </outline>
</glyph>
<glyph name="scedilla" format="1">
  <advance width="667"/>
  <unicode hex="015F"/>
  <outline>
    <contour>
      <point x="62" y="46" type="curve"/>
      <point x="159" y="14"/>
      <point x="231" y="-5"/>
      <point x="330" y="-5" type="curve"/>
      <point x="493" y="-5"/>
      <point x="621" y="29"/>
      <point x="621" y="164" type="curve"/>
      <point x="621" y="291"/>
      <point x="495" y="299"/>
      <point x="351" y="330" type="curve"/>
      <point x="282" y="344"/>
      <point x="209" y="352"/>
      <point x="209" y="387" type="curve"/>
      <point x="209" y="410"/>
      <point x="258" y="421"/>
      <point x="314" y="421" type="curve"/>
      <point x="374" y="421"/>
      <point x="448" y="406"/>
      <point x="489" y="389" type="curve"/>
      <point x="561" y="493"/>
      <point x="489" y="389"/>
      <point x="561" y="493" type="curve"/>
      <point x="505" y="518"/>
      <point x="403" y="538"/>
      <point x="321" y="538" type="curve"/>
      <point x="176" y="538"/>
      <point x="65" y="504"/>
      <point x="65" y="386" type="curve"/>
      <point x="65" y="272"/>
      <point x="168" y="244"/>
      <point x="300" y="217" type="curve"/>
      <point x="379" y="199"/>
      <point x="469" y="197"/>
      <point x="469" y="160" type="curve"/>
      <point x="469" y="130"/>
      <point x="414" y="112"/>
      <point x="350" y="112" type="curve"/>
      <point x="271" y="112"/>
      <point x="219" y="125"/>
      <point x="142" y="151" type="curve"/>
      <point x="62" y="46"/>
      <point x="142" y="151"/>
    </contour>
    <contour>
      <point x="439" y="493" type="curve"/>
      <point x="439" y="372"/>
      <point x="439" y="477"/>
      <point x="439" y="356" type="curve"/>
      <point x="561" y="356"/>
      <point x="439" y="356"/>
      <point x="561" y="356" type="curve"/>
      <point x="561" y="477"/>
      <point x="561" y="372"/>
      <point x="561" y="493" type="curve"/>
      <point x="439" y="493"/>
      <point x="561" y="493"/>
    </contour>
    <contour>
      <point x="181" y="46" type="curve"/>
      <point x="181" y="168"/>
      <point x="181" y="70"/>
      <point x="181" y="192" type="curve"/>
      <point x="59" y="192"/>
      <point x="181" y="192"/>
      <point x="59" y="192" type="curve"/>
      <point x="59" y="70"/>
      <point x="59" y="168"/>
      <point x="59" y="46" type="curve"/>
      <point x="181" y="46"/>
      <point x="59" y="46"/>
    </contour>
    <contour>
      <point x="278" y="85" type="curve"/>
      <point x="262" y="64"/>
      <point x="182" y="-42"/>
      <point x="166" y="-63" type="curve"/>
      <point x="274" y="-156"/>
      <point x="166" y="-63"/>
      <point x="274" y="-156" type="curve"/>
      <point x="295" y="-130"/>
      <point x="381" y="-21"/>
      <point x="401" y="5" type="curve"/>
      <point x="278" y="85"/>
      <point x="401" y="5"/>
    </contour>
    <contour>
      <point x="274" y="-156" type="curve"/>
      <point x="278" y="-153"/>
      <point x="282" y="-151"/>
      <point x="287" y="-151" type="curve"/>
      <point x="295" y="-151"/>
      <point x="302" y="-153"/>
      <point x="302" y="-160" type="curve"/>
      <point x="302" y="-172"/>
      <point x="289" y="-175"/>
      <point x="275" y="-175" type="curve"/>
      <point x="249" y="-175"/>
      <point x="226" y="-167"/>
      <point x="190" y="-153" type="curve"/>
      <point x="146" y="-242"/>
      <point x="190" y="-153"/>
      <point x="146" y="-242" type="curve"/>
      <point x="188" y="-259"/>
      <point x="222" y="-270"/>
      <point x="268" y="-270" type="curve"/>
      <point x="367" y="-270"/>
      <point x="447" y="-244"/>
      <point x="447" y="-155" type="curve"/>
      <point x="447" y="-75"/>
      <point x="381" y="-39"/>
      <point x="295" y="-39" type="curve"/>
      <point x="247" y="-39"/>
      <point x="212" y="-47"/>
      <point x="166" y="-63" type="curve"/>
      <point x="274" y="-156"/>
      <point x="166" y="-63"/>
    </contour>
  </outline>
</glyph>
<glyph name="Scaron" format="1">
  <advance width="794"/>
  <unicode hex="0160"/>
  <outline>
    <contour>
      <point x="563" y="661" type="curve"/>
      <point x="563" y="541"/>
      <point x="563" y="629"/>
      <point x="563" y="509" type="curve"/>
      <point x="684" y="509"/>
      <point x="563" y="509"/>
      <point x="684" y="509" type="curve"/>
      <point x="684" y="629"/>
      <point x="684" y="541"/>
      <point x="684" y="661" type="curve"/>
      <point x="563" y="661"/>
      <point x="684" y="661"/>
    </contour>
    <contour>
      <point x="197" y="52" type="curve"/>
      <point x="197" y="172"/>
      <point x="197" y="95"/>
      <point x="197" y="215" type="curve"/>
      <point x="76" y="215"/>
      <point x="197" y="215"/>
      <point x="76" y="215" type="curve"/>
      <point x="76" y="95"/>
      <point x="76" y="172"/>
      <point x="76" y="52" type="curve"/>
      <point x="197" y="52"/>
      <point x="76" y="52"/>
    </contour>
    <contour>
      <point x="78" y="52" type="curve"/>
      <point x="180" y="8"/>
      <point x="264" y="-5"/>
      <point x="376" y="-5" type="curve"/>
      <point x="569" y="-5"/>
      <point x="740" y="32"/>
      <point x="740" y="195" type="curve"/>
      <point x="740" y="336"/>
      <point x="609" y="374"/>
      <point x="469" y="421" type="curve" smooth="yes"/>
      <point x="362" y="456"/>
      <point x="238" y="486"/>
      <point x="238" y="543" type="curve"/>
      <point x="238" y="602"/>
      <point x="310" y="615"/>
      <point x="392" y="615" type="curve"/>
      <point x="474" y="615"/>
      <point x="537" y="594"/>
      <point x="612" y="563" type="curve"/>
      <point x="686" y="659"/>
      <point x="609" y="565"/>
      <point x="684" y="661" type="curve"/>
      <point x="587" y="702"/>
      <point x="507" y="726"/>
      <point x="399" y="726" type="curve"/>
      <point x="224" y="726"/>
      <point x="79" y="678"/>
      <point x="79" y="532" type="curve"/>
      <point x="79" y="394"/>
      <point x="215" y="361"/>
      <point x="356" y="314" type="curve" smooth="yes"/>
      <point x="461" y="279"/>
      <point x="581" y="252"/>
      <point x="581" y="190" type="curve"/>
      <point x="581" y="134"/>
      <point x="484" y="116"/>
      <point x="382" y="116" type="curve"/>
      <point x="300" y="116"/>
      <point x="238" y="133"/>
      <point x="163" y="164" type="curve"/>
      <point x="76" y="54"/>
      <point x="164" y="163"/>
    </contour>
    <contour>
      <point x="525" y="945" type="line"/>
      <point x="338" y="779" type="line"/>
      <point x="543" y="779" type="line"/>
      <point x="681" y="945" type="line"/>
    </contour>
    <contour>
      <point x="124" y="945" type="line"/>
      <point x="265" y="779" type="line"/>
      <point x="471" y="779" type="line"/>
      <point x="284" y="945" type="line"/>
    </contour>
  </outline>
</glyph>
<glyph name="scaron" format="1">
  <advance width="665"/>
  <unicode hex="0161"/>
  <outline>
    <contour>
      <point x="61" y="46" type="curve"/>
      <point x="158" y="14"/>
      <point x="230" y="-5"/>
      <point x="329" y="-5" type="curve"/>
      <point x="493" y="-5"/>
      <point x="621" y="29"/>
      <point x="621" y="164" type="curve"/>
      <point x="621" y="291"/>
      <point x="494" y="299"/>
      <point x="350" y="330" type="curve"/>
      <point x="281" y="344"/>
      <point x="208" y="352"/>
      <point x="208" y="387" type="curve"/>
      <point x="208" y="410"/>
      <point x="257" y="421"/>
      <point x="314" y="421" type="curve"/>
      <point x="374" y="421"/>
      <point x="447" y="406"/>
      <point x="489" y="389" type="curve"/>
      <point x="561" y="493"/>
      <point x="489" y="389"/>
      <point x="561" y="493" type="curve"/>
      <point x="505" y="518"/>
      <point x="402" y="538"/>
      <point x="321" y="538" type="curve"/>
      <point x="175" y="538"/>
      <point x="64" y="504"/>
      <point x="64" y="386" type="curve"/>
      <point x="64" y="272"/>
      <point x="168" y="244"/>
      <point x="300" y="217" type="curve"/>
      <point x="379" y="199"/>
      <point x="469" y="197"/>
      <point x="469" y="160" type="curve"/>
      <point x="469" y="130"/>
      <point x="414" y="112"/>
      <point x="350" y="112" type="curve"/>
      <point x="270" y="112"/>
      <point x="218" y="125"/>
      <point x="141" y="151" type="curve"/>
      <point x="61" y="46"/>
      <point x="141" y="151"/>
    </contour>
    <contour>
      <point x="439" y="493" type="curve"/>
      <point x="439" y="372"/>
      <point x="439" y="477"/>
      <point x="439" y="356" type="curve"/>
      <point x="561" y="356"/>
      <point x="439" y="356"/>
      <point x="561" y="356" type="curve"/>
      <point x="561" y="477"/>
      <point x="561" y="372"/>
      <point x="561" y="493" type="curve"/>
      <point x="439" y="493"/>
      <point x="561" y="493"/>
    </contour>
    <contour>
      <point x="180" y="46" type="curve"/>
      <point x="180" y="168"/>
      <point x="180" y="70"/>
      <point x="180" y="192" type="curve"/>
      <point x="58" y="192"/>
      <point x="180" y="192"/>
      <point x="58" y="192" type="curve"/>
      <point x="58" y="70"/>
      <point x="58" y="168"/>
      <point x="58" y="46" type="curve"/>
      <point x="180" y="46"/>
      <point x="58" y="46"/>
    </contour>
    <contour>
      <point x="450" y="775" type="line"/>
      <point x="263" y="609" type="line"/>
      <point x="469" y="609" type="line"/>
      <point x="607" y="775" type="line"/>
    </contour>
    <contour>
      <point x="50" y="775" type="line"/>
      <point x="191" y="609" type="line"/>
      <point x="397" y="609" type="line"/>
      <point x="210" y="775" type="line"/>
    </contour>
  </outline>
</glyph>
<glyph name="Tcommaaccent" format="1">
  <advance width="823"/>
  <unicode hex="0162"/>
  <outline>
    <contour>
      <point x="26" y="663" type="curve"/>
      <point x="26" y="543"/>
      <point x="26" y="663"/>
      <point x="26" y="543" type="curve"/>
      <point x="146" y="543"/>
      <point x="26" y="543"/>
      <point x="146" y="543" type="curve"/>
      <point x="146" y="663"/>
      <point x="146" y="543"/>
      <point x="146" y="663" type="curve"/>
      <point x="26" y="663"/>
      <point x="146" y="663"/>
    </contour>
    <contour>
      <point x="676" y="663" type="curve"/>
      <point x="676" y="543"/>
      <point x="676" y="663"/>
      <point x="676" y="543" type="curve"/>
      <point x="797" y="543"/>
      <point x="676" y="543"/>
      <point x="797" y="543" type="curve"/>
      <point x="797" y="663"/>
      <point x="797" y="543"/>
      <point x="797" y="663" type="curve"/>
      <point x="676" y="663"/>
      <point x="797" y="663"/>
    </contour>
    <contour>
      <point x="410" y="0" type="curve"/>
      <point x="464" y="0"/>
      <point x="518" y="0"/>
      <point x="571" y="0" type="curve"/>
      <point x="571" y="116"/>
      <point x="571" y="0"/>
      <point x="571" y="116" type="curve"/>
      <point x="410" y="116"/>
      <point x="571" y="116"/>
      <point x="410" y="116" type="curve"/>
      <point x="410" y="0"/>
      <point x="410" y="116"/>
    </contour>
    <contour>
      <point x="410" y="116" type="curve"/>
      <point x="249" y="116"/>
      <point x="410" y="116"/>
      <point x="249" y="116" type="curve"/>
      <point x="249" y="0"/>
      <point x="249" y="116"/>
      <point x="249" y="0" type="curve"/>
      <point x="302" y="0"/>
      <point x="356" y="0"/>
      <point x="410" y="0" type="curve"/>
      <point x="410" y="116"/>
      <point x="410" y="0"/>
    </contour>
    <contour>
      <point x="491" y="0" type="curve"/>
      <point x="491" y="237"/>
      <point x="491" y="473"/>
      <point x="491" y="710" type="curve"/>
      <point x="332" y="710"/>
      <point x="491" y="710"/>
      <point x="332" y="710" type="curve"/>
      <point x="332" y="473"/>
      <point x="332" y="237"/>
      <point x="332" y="0" type="curve"/>
      <point x="491" y="0"/>
      <point x="332" y="0"/>
    </contour>
    <contour>
      <point x="26" y="599" type="curve"/>
      <point x="282" y="599"/>
      <point x="540" y="599"/>
      <point x="797" y="599" type="curve"/>
      <point x="797" y="727"/>
      <point x="797" y="594"/>
      <point x="797" y="722" type="curve"/>
      <point x="540" y="722"/>
      <point x="282" y="722"/>
      <point x="26" y="722" type="curve"/>
      <point x="26" y="594"/>
      <point x="26" y="727"/>
    </contour>
    <contour>
      <point x="352" y="-407" type="line"/>
      <point x="472" y="-407"/>
      <point x="557" y="-333"/>
      <point x="557" y="-223" type="curve"/>
      <point x="557" y="-141"/>
      <point x="514" y="-78"/>
      <point x="447" y="-78" type="curve"/>
      <point x="395" y="-78"/>
      <point x="356" y="-104"/>
      <point x="356" y="-154" type="curve"/>
      <point x="356" y="-204"/>
      <point x="396" y="-231"/>
      <point x="452" y="-231" type="curve"/>
      <point x="450" y="-277"/>
      <point x="432" y="-316"/>
      <point x="352" y="-326" type="curve"/>
    </contour>
  </outline>
</glyph>
<glyph name="Tcaron" format="1">
  <advance width="823"/>
  <unicode hex="0164"/>
  <outline>
    <contour>
      <point x="26" y="663" type="curve"/>
      <point x="26" y="543"/>
      <point x="26" y="663"/>
      <point x="26" y="543" type="curve"/>
      <point x="146" y="543"/>
      <point x="26" y="543"/>
      <point x="146" y="543" type="curve"/>
      <point x="146" y="663"/>
      <point x="146" y="543"/>
      <point x="146" y="663" type="curve"/>
      <point x="26" y="663"/>
      <point x="146" y="663"/>
    </contour>
    <contour>
      <point x="676" y="663" type="curve"/>
      <point x="676" y="543"/>
      <point x="676" y="663"/>
      <point x="676" y="543" type="curve"/>
      <point x="797" y="543"/>
      <point x="676" y="543"/>
      <point x="797" y="543" type="curve"/>
      <point x="797" y="663"/>
      <point x="797" y="543"/>
      <point x="797" y="663" type="curve"/>
      <point x="676" y="663"/>
      <point x="797" y="663"/>
    </contour>
    <contour>
      <point x="410" y="0" type="curve"/>
      <point x="464" y="0"/>
      <point x="518" y="0"/>
      <point x="571" y="0" type="curve"/>
      <point x="571" y="116"/>
      <point x="571" y="0"/>
      <point x="571" y="116" type="curve"/>
      <point x="410" y="116"/>
      <point x="571" y="116"/>
      <point x="410" y="116" type="curve"/>
      <point x="410" y="0"/>
      <point x="410" y="116"/>
    </contour>
    <contour>
      <point x="410" y="116" type="curve"/>
      <point x="249" y="116"/>
      <point x="410" y="116"/>
      <point x="249" y="116" type="curve"/>
      <point x="249" y="0"/>
      <point x="249" y="116"/>
      <point x="249" y="0" type="curve"/>
      <point x="302" y="0"/>
      <point x="356" y="0"/>
      <point x="410" y="0" type="curve"/>
      <point x="410" y="116"/>
      <point x="410" y="0"/>
    </contour>
    <contour>
      <point x="491" y="0" type="curve"/>
      <point x="491" y="237"/>
      <point x="491" y="473"/>
      <point x="491" y="710" type="curve"/>
      <point x="332" y="710"/>
      <point x="491" y="710"/>
      <point x="332" y="710" type="curve"/>
      <point x="332" y="473"/>
      <point x="332" y="237"/>
      <point x="332" y="0" type="curve"/>
      <point x="491" y="0"/>
      <point x="332" y="0"/>
    </contour>
    <contour>
      <point x="26" y="599" type="curve"/>
      <point x="282" y="599"/>
      <point x="540" y="599"/>
      <point x="797" y="599" type="curve"/>
      <point x="797" y="727"/>
      <point x="797" y="594"/>
      <point x="797" y="722" type="curve"/>
      <point x="540" y="722"/>
      <point x="282" y="722"/>
      <point x="26" y="722" type="curve"/>
      <point x="26" y="594"/>
      <point x="26" y="727"/>
    </contour>
    <contour>
      <point x="534" y="945" type="line"/>
      <point x="347" y="779" type="line"/>
      <point x="553" y="779" type="line"/>
      <point x="691" y="945" type="line"/>
    </contour>
    <contour>
      <point x="133" y="945" type="line"/>
      <point x="275" y="779" type="line"/>
      <point x="480" y="779" type="line"/>
      <point x="293" y="945" type="line"/>
    </contour>
  </outline>
</glyph>
<glyph name="Uring" format="1">
  <advance width="1042"/>
  <unicode hex="016E"/>
  <outline>
    <contour>
      <point x="834" y="606" type="curve"/>
      <point x="995" y="606"/>
      <point x="834" y="606"/>
      <point x="995" y="606" type="curve"/>
      <point x="995" y="722"/>
      <point x="995" y="606"/>
      <point x="995" y="722" type="curve"/>
      <point x="942" y="722"/>
      <point x="888" y="722"/>
      <point x="834" y="722" type="curve"/>
      <point x="834" y="606"/>
      <point x="834" y="722"/>
    </contour>
    <contour>
      <point x="834" y="722" type="curve"/>
      <point x="780" y="722"/>
      <point x="726" y="722"/>
      <point x="673" y="722" type="curve"/>
      <point x="673" y="606"/>
      <point x="673" y="722"/>
      <point x="673" y="606" type="curve"/>
      <point x="834" y="606"/>
      <point x="673" y="606"/>
      <point x="834" y="606" type="curve"/>
      <point x="834" y="722"/>
      <point x="834" y="606"/>
    </contour>
    <contour>
      <point x="211" y="722" type="curve"/>
      <point x="158" y="722"/>
      <point x="104" y="722"/>
      <point x="51" y="722" type="curve"/>
      <point x="50" y="606"/>
      <point x="51" y="722"/>
      <point x="50" y="606" type="curve"/>
      <point x="211" y="606"/>
      <point x="50" y="606"/>
      <point x="211" y="606" type="curve"/>
      <point x="211" y="722"/>
      <point x="211" y="606"/>
    </contour>
    <contour>
      <point x="211" y="606" type="curve"/>
      <point x="372" y="606"/>
      <point x="211" y="606"/>
      <point x="372" y="606" type="curve"/>
      <point x="372" y="722"/>
      <point x="372" y="606"/>
      <point x="372" y="722" type="curve"/>
      <point x="319" y="722"/>
      <point x="265" y="722"/>
      <point x="211" y="722" type="curve"/>
      <point x="211" y="606"/>
      <point x="211" y="722"/>
    </contour>
    <contour>
      <point x="137" y="672" type="curve"/>
      <point x="137" y="539"/>
      <point x="137" y="415"/>
      <point x="137" y="282" type="curve"/>
      <point x="137" y="69"/>
      <point x="283" y="-5"/>
      <point x="518" y="-5" type="curve"/>
      <point x="757" y="-5"/>
      <point x="906" y="76"/>
      <point x="906" y="295" type="curve"/>
      <point x="906" y="424"/>
      <point x="906" y="544"/>
      <point x="906" y="672" type="curve"/>
      <point x="761" y="672"/>
      <point x="906" y="672"/>
      <point x="761" y="672" type="curve"/>
      <point x="761" y="536"/>
      <point x="761" y="418"/>
      <point x="761" y="282" type="curve"/>
      <point x="761" y="162"/>
      <point x="668" y="123"/>
      <point x="532" y="123" type="curve"/>
      <point x="380" y="123"/>
      <point x="281" y="166"/>
      <point x="281" y="303" type="curve"/>
      <point x="281" y="428"/>
      <point x="281" y="547"/>
      <point x="281" y="672" type="curve"/>
      <point x="137" y="672"/>
      <point x="281" y="672"/>
    </contour>
    <contour>
      <point x="323" y="926" type="curve"/>
      <point x="323" y="822"/>
      <point x="410" y="776"/>
      <point x="524" y="776" type="curve"/>
      <point x="641" y="776"/>
      <point x="731" y="821"/>
      <point x="731" y="926" type="curve"/>
      <point x="731" y="1032"/>
      <point x="640" y="1076"/>
      <point x="522" y="1076" type="curve"/>
      <point x="408" y="1076"/>
      <point x="323" y="1030"/>
      <point x="323" y="926" type="curve"/>
      <point x="455" y="926"/>
      <point x="321" y="926"/>
      <point x="454" y="926" type="curve"/>
      <point x="454" y="965"/>
      <point x="484" y="978"/>
      <point x="522" y="978" type="curve"/>
      <point x="564" y="978"/>
      <point x="598" y="971"/>
      <point x="598" y="926" type="curve"/>
      <point x="598" y="885"/>
      <point x="565" y="874"/>
      <point x="524" y="874" type="curve"/>
      <point x="486" y="874"/>
      <point x="454" y="886"/>
      <point x="454" y="926" type="curve"/>
      <point x="321" y="926"/>
      <point x="455" y="926"/>
    </contour>
  </outline>
</glyph>
